G04 #@! TF.GenerationSoftware,KiCad,Pcbnew,6.0.11-2627ca5db0~126~ubuntu22.04.1*
G04 #@! TF.CreationDate,2026-05-27T20:24:31+10:00*
G04 #@! TF.ProjectId,ToothEater,546f6f74-6845-4617-9465-722e6b696361,rev?*
G04 #@! TF.SameCoordinates,Original*
G04 #@! TF.FileFunction,Copper,L1,Top*
G04 #@! TF.FilePolarity,Positive*
%FSLAX46Y46*%
G04 Gerber Fmt 4.6, Leading zero omitted, Abs format (unit mm)*
G04 Created by KiCad (PCBNEW 6.0.11-2627ca5db0~126~ubuntu22.04.1) date 2026-05-27 20:24:31*
%MOMM*%
%LPD*%
G01*
G04 APERTURE LIST*
G04 Aperture macros list*
%AMRoundRect*
0 Rectangle with rounded corners*
0 $1 Rounding radius*
0 $2 $3 $4 $5 $6 $7 $8 $9 X,Y pos of 4 corners*
0 Add a 4 corners polygon primitive as box body*
4,1,4,$2,$3,$4,$5,$6,$7,$8,$9,$2,$3,0*
0 Add four circle primitives for the rounded corners*
1,1,$1+$1,$2,$3*
1,1,$1+$1,$4,$5*
1,1,$1+$1,$6,$7*
1,1,$1+$1,$8,$9*
0 Add four rect primitives between the rounded corners*
20,1,$1+$1,$2,$3,$4,$5,0*
20,1,$1+$1,$4,$5,$6,$7,0*
20,1,$1+$1,$6,$7,$8,$9,0*
20,1,$1+$1,$8,$9,$2,$3,0*%
G04 Aperture macros list end*
G04 #@! TA.AperFunction,ComponentPad*
%ADD10R,2.200000X2.200000*%
G04 #@! TD*
G04 #@! TA.AperFunction,ComponentPad*
%ADD11O,2.200000X2.200000*%
G04 #@! TD*
G04 #@! TA.AperFunction,ComponentPad*
%ADD12R,1.800000X1.800000*%
G04 #@! TD*
G04 #@! TA.AperFunction,ComponentPad*
%ADD13C,1.800000*%
G04 #@! TD*
G04 #@! TA.AperFunction,ComponentPad*
%ADD14R,1.050000X1.500000*%
G04 #@! TD*
G04 #@! TA.AperFunction,ComponentPad*
%ADD15O,1.050000X1.500000*%
G04 #@! TD*
G04 #@! TA.AperFunction,ComponentPad*
%ADD16C,1.600000*%
G04 #@! TD*
G04 #@! TA.AperFunction,ComponentPad*
%ADD17O,1.600000X1.600000*%
G04 #@! TD*
G04 #@! TA.AperFunction,ComponentPad*
%ADD18R,1.600000X1.600000*%
G04 #@! TD*
G04 #@! TA.AperFunction,ComponentPad*
%ADD19RoundRect,0.250001X-0.499999X0.499999X-0.499999X-0.499999X0.499999X-0.499999X0.499999X0.499999X0*%
G04 #@! TD*
G04 #@! TA.AperFunction,ComponentPad*
%ADD20C,1.500000*%
G04 #@! TD*
G04 #@! TA.AperFunction,ComponentPad*
%ADD21R,2.400000X1.600000*%
G04 #@! TD*
G04 #@! TA.AperFunction,ComponentPad*
%ADD22O,2.400000X1.600000*%
G04 #@! TD*
G04 #@! TA.AperFunction,ComponentPad*
%ADD23R,1.500000X1.050000*%
G04 #@! TD*
G04 #@! TA.AperFunction,ComponentPad*
%ADD24O,1.500000X1.050000*%
G04 #@! TD*
G04 #@! TA.AperFunction,ComponentPad*
%ADD25R,1.800000X1.714500*%
G04 #@! TD*
G04 #@! TA.AperFunction,ComponentPad*
%ADD26O,1.800000X1.714500*%
G04 #@! TD*
G04 #@! TA.AperFunction,ViaPad*
%ADD27C,0.800000*%
G04 #@! TD*
G04 #@! TA.AperFunction,Conductor*
%ADD28C,1.000000*%
G04 #@! TD*
G04 #@! TA.AperFunction,Conductor*
%ADD29C,0.400000*%
G04 #@! TD*
G04 #@! TA.AperFunction,Conductor*
%ADD30C,0.800000*%
G04 #@! TD*
G04 #@! TA.AperFunction,Conductor*
%ADD31C,0.250000*%
G04 #@! TD*
G04 APERTURE END LIST*
D10*
X139446000Y-102108000D03*
D11*
X139446000Y-91948000D03*
D12*
X135612000Y-99822000D03*
D13*
X133072000Y-99822000D03*
D14*
X144526000Y-63352000D03*
D15*
X145796000Y-63352000D03*
X147066000Y-63352000D03*
D16*
X146812000Y-70612000D03*
D17*
X136652000Y-70612000D03*
D16*
X125476000Y-62230000D03*
D17*
X125476000Y-64770000D03*
D16*
X142748000Y-92202000D03*
D17*
X142748000Y-102362000D03*
D16*
X149860000Y-69371000D03*
D17*
X149860000Y-66831000D03*
D14*
X138938000Y-63352000D03*
D15*
X140208000Y-63352000D03*
X141478000Y-63352000D03*
D16*
X128954000Y-67818000D03*
D17*
X126414000Y-67818000D03*
D16*
X121637000Y-67818000D03*
D17*
X124177000Y-67818000D03*
D18*
X133614000Y-80782000D03*
D17*
X133614000Y-83322000D03*
X133614000Y-85862000D03*
X133614000Y-88402000D03*
X141234000Y-88402000D03*
X141234000Y-85862000D03*
X141234000Y-83322000D03*
X141234000Y-80782000D03*
D14*
X153162000Y-71988000D03*
D15*
X154432000Y-71988000D03*
X155702000Y-71988000D03*
D19*
X153879000Y-78510000D03*
D20*
X153879000Y-81510000D03*
X150879000Y-78510000D03*
X150879000Y-81510000D03*
D14*
X159004000Y-71988000D03*
D15*
X160274000Y-71988000D03*
X161544000Y-71988000D03*
D12*
X122637000Y-71882000D03*
D13*
X125177000Y-71882000D03*
D16*
X146812000Y-77216000D03*
D17*
X136652000Y-77216000D03*
D21*
X121676000Y-76210000D03*
D22*
X121676000Y-78750000D03*
X121676000Y-81290000D03*
X121676000Y-83830000D03*
X129296000Y-83830000D03*
X129296000Y-81290000D03*
X129296000Y-78750000D03*
X129296000Y-76210000D03*
D16*
X157012000Y-100330000D03*
X162012000Y-100330000D03*
X149860000Y-74930000D03*
D17*
X149860000Y-72390000D03*
D16*
X129794000Y-99256000D03*
D17*
X129794000Y-101796000D03*
D23*
X125476000Y-87630000D03*
D24*
X125476000Y-88900000D03*
X125476000Y-90170000D03*
D19*
X153879000Y-89940000D03*
D20*
X153879000Y-92940000D03*
X150879000Y-89940000D03*
X150879000Y-92940000D03*
D14*
X128016000Y-72136000D03*
D15*
X129286000Y-72136000D03*
X130556000Y-72136000D03*
D12*
X133345000Y-62992000D03*
D13*
X135885000Y-62992000D03*
D16*
X136652000Y-67310000D03*
D17*
X146812000Y-67310000D03*
D25*
X149606000Y-97536000D03*
D26*
X149606000Y-99822000D03*
X149606000Y-102108000D03*
D10*
X146558000Y-102108000D03*
D11*
X146558000Y-91948000D03*
D12*
X150617000Y-62992000D03*
D13*
X153157000Y-62992000D03*
D16*
X128464000Y-93980000D03*
D17*
X120964000Y-93980000D03*
D16*
X136652000Y-73914000D03*
D17*
X146812000Y-73914000D03*
D16*
X121920000Y-62201000D03*
D17*
X121920000Y-64741000D03*
D27*
X146558000Y-89408000D03*
X159766000Y-77216000D03*
X131064000Y-89916000D03*
X126492000Y-79248000D03*
X127000000Y-75692000D03*
X153924000Y-68072000D03*
X128524000Y-86360000D03*
X144780000Y-81534000D03*
X144780000Y-83058000D03*
D28*
X157226000Y-74676000D02*
X159766000Y-77216000D01*
X153924000Y-68072000D02*
X157226000Y-71374000D01*
X126492000Y-78486000D02*
X127000000Y-77978000D01*
X150879000Y-89940000D02*
X150093000Y-89154000D01*
X150093000Y-89154000D02*
X146812000Y-89154000D01*
X127000000Y-77978000D02*
X127000000Y-75692000D01*
X157226000Y-71374000D02*
X157226000Y-74676000D01*
X131064000Y-89916000D02*
X131064000Y-88900000D01*
X126492000Y-79248000D02*
X126492000Y-78486000D01*
X146812000Y-89154000D02*
X146558000Y-89408000D01*
X131064000Y-88900000D02*
X128524000Y-86360000D01*
D29*
X128778000Y-70358000D02*
X131826000Y-70358000D01*
X138938000Y-64262000D02*
X138938000Y-63352000D01*
D28*
X157012000Y-100330000D02*
X159004000Y-100330000D01*
D29*
X132588000Y-69596000D02*
X132588000Y-67564000D01*
X138938000Y-63352000D02*
X138938000Y-64516000D01*
D28*
X159004000Y-73406000D02*
X159004000Y-71988000D01*
D29*
X132588000Y-67564000D02*
X134874000Y-65278000D01*
X128016000Y-71120000D02*
X128778000Y-70358000D01*
D28*
X159004000Y-100330000D02*
X162052000Y-97282000D01*
D29*
X128016000Y-72136000D02*
X128016000Y-71120000D01*
D28*
X162052000Y-97282000D02*
X162052000Y-76454000D01*
X149606000Y-97536000D02*
X139446000Y-97536000D01*
D29*
X139700000Y-65278000D02*
X143764000Y-65278000D01*
X128464000Y-93980000D02*
X128464000Y-97926000D01*
D28*
X139446000Y-97536000D02*
X135890000Y-93980000D01*
D30*
X133614000Y-79004000D02*
X133614000Y-80782000D01*
D29*
X128464000Y-97926000D02*
X129794000Y-99256000D01*
X134874000Y-65278000D02*
X137922000Y-65278000D01*
X131826000Y-70358000D02*
X132588000Y-69596000D01*
X144526000Y-64516000D02*
X144526000Y-63352000D01*
X143764000Y-65278000D02*
X144526000Y-64516000D01*
X137922000Y-65278000D02*
X138938000Y-64262000D01*
D28*
X162052000Y-76454000D02*
X159004000Y-73406000D01*
D30*
X130820000Y-76210000D02*
X133614000Y-79004000D01*
D29*
X138938000Y-64516000D02*
X139700000Y-65278000D01*
D30*
X129296000Y-76210000D02*
X130820000Y-76210000D01*
D28*
X135890000Y-93980000D02*
X128464000Y-93980000D01*
X154940000Y-94996000D02*
X155702000Y-94234000D01*
X139446000Y-91948000D02*
X142494000Y-94996000D01*
X142494000Y-94996000D02*
X154940000Y-94996000D01*
X153879000Y-90379000D02*
X153879000Y-89940000D01*
X155702000Y-92202000D02*
X153879000Y-90379000D01*
X155702000Y-94234000D02*
X155702000Y-92202000D01*
D29*
X151638000Y-71120000D02*
X152400000Y-70358000D01*
X148082000Y-68580000D02*
X148082000Y-70612000D01*
X153924000Y-70358000D02*
X154432000Y-70866000D01*
X146812000Y-67310000D02*
X148082000Y-68580000D01*
X154432000Y-70866000D02*
X154432000Y-71988000D01*
X148082000Y-70612000D02*
X148590000Y-71120000D01*
X152400000Y-70358000D02*
X153924000Y-70358000D01*
X148590000Y-71120000D02*
X151638000Y-71120000D01*
D31*
X135128000Y-61214000D02*
X135885000Y-61971000D01*
X132080000Y-61214000D02*
X135128000Y-61214000D01*
X135885000Y-61971000D02*
X135885000Y-62992000D01*
X126414000Y-67818000D02*
X128192000Y-66040000D01*
X128192000Y-66040000D02*
X131826000Y-66040000D01*
X131826000Y-61468000D02*
X132080000Y-61214000D01*
X131826000Y-66040000D02*
X131826000Y-61468000D01*
D29*
X133604000Y-73660000D02*
X133604000Y-68326000D01*
X121676000Y-81290000D02*
X125730000Y-77236000D01*
X134620000Y-67310000D02*
X136652000Y-67310000D01*
X132588000Y-74676000D02*
X133604000Y-73660000D01*
X125730000Y-77236000D02*
X125730000Y-75438000D01*
X133604000Y-68326000D02*
X134620000Y-67310000D01*
X125730000Y-75438000D02*
X126492000Y-74676000D01*
X126492000Y-74676000D02*
X132588000Y-74676000D01*
X132172000Y-84420000D02*
X132172000Y-81626000D01*
X133614000Y-85862000D02*
X132172000Y-84420000D01*
X132172000Y-81626000D02*
X129296000Y-78750000D01*
D28*
X139964000Y-88402000D02*
X141234000Y-88402000D01*
X139944000Y-80782000D02*
X138938000Y-81788000D01*
X138938000Y-87376000D02*
X139964000Y-88402000D01*
X141234000Y-80782000D02*
X139944000Y-80782000D01*
X138938000Y-81788000D02*
X138938000Y-87376000D01*
D29*
X143256000Y-81534000D02*
X144780000Y-81534000D01*
X142494000Y-84074000D02*
X143002000Y-83566000D01*
X142494000Y-84602000D02*
X142494000Y-84074000D01*
X141234000Y-85862000D02*
X142494000Y-84602000D01*
X143002000Y-81788000D02*
X143256000Y-81534000D01*
X143002000Y-83566000D02*
X143002000Y-81788000D01*
X142494000Y-89916000D02*
X143256000Y-89154000D01*
X143256000Y-89154000D02*
X143256000Y-84582000D01*
X139446000Y-89916000D02*
X142494000Y-89916000D01*
X137932000Y-88402000D02*
X139446000Y-89916000D01*
X147828000Y-80010000D02*
X151892000Y-80010000D01*
X152400000Y-79502000D02*
X152400000Y-73914000D01*
X132598000Y-88402000D02*
X133614000Y-88402000D01*
X129804000Y-81290000D02*
X131572000Y-83058000D01*
X131572000Y-87376000D02*
X132598000Y-88402000D01*
X152400000Y-73914000D02*
X153162000Y-73152000D01*
X129296000Y-81290000D02*
X129804000Y-81290000D01*
X133614000Y-88402000D02*
X137932000Y-88402000D01*
X144780000Y-83058000D02*
X147828000Y-80010000D01*
X131572000Y-83058000D02*
X131572000Y-87376000D01*
X143256000Y-84582000D02*
X144780000Y-83058000D01*
X153162000Y-73152000D02*
X153162000Y-71988000D01*
X151892000Y-80010000D02*
X152400000Y-79502000D01*
X152400000Y-91461000D02*
X152400000Y-85344000D01*
X155702000Y-82042000D02*
X155702000Y-71988000D01*
X152400000Y-85344000D02*
X155702000Y-82042000D01*
X153879000Y-92940000D02*
X152400000Y-91461000D01*
D31*
X139487000Y-61976000D02*
X140208000Y-62697000D01*
X131318000Y-69342000D02*
X131826000Y-68834000D01*
X138088000Y-64096000D02*
X138088000Y-62170500D01*
X137431000Y-64753000D02*
X138088000Y-64096000D01*
X138282500Y-61976000D02*
X139487000Y-61976000D01*
X138088000Y-62170500D02*
X138282500Y-61976000D01*
X131826000Y-67564000D02*
X134637000Y-64753000D01*
X125701000Y-69342000D02*
X131318000Y-69342000D01*
X131826000Y-68834000D02*
X131826000Y-67564000D01*
X140208000Y-62697000D02*
X140208000Y-63352000D01*
X124177000Y-67818000D02*
X125701000Y-69342000D01*
X134637000Y-64753000D02*
X137431000Y-64753000D01*
D29*
X122682000Y-87630000D02*
X119888000Y-84836000D01*
X125476000Y-87630000D02*
X122682000Y-87630000D01*
X119888000Y-84836000D02*
X119888000Y-77998000D01*
X119888000Y-77998000D02*
X121676000Y-76210000D01*
D31*
X141478000Y-61468000D02*
X141478000Y-63352000D01*
X128954000Y-67818000D02*
X130684396Y-67818000D01*
X137414000Y-63754000D02*
X137414000Y-61468000D01*
X130684396Y-67818000D02*
X134240396Y-64262000D01*
X134240396Y-64262000D02*
X136906000Y-64262000D01*
X138430000Y-60452000D02*
X140462000Y-60452000D01*
X140462000Y-60452000D02*
X141478000Y-61468000D01*
X137414000Y-61468000D02*
X138430000Y-60452000D01*
X136906000Y-64262000D02*
X137414000Y-63754000D01*
D29*
X131098000Y-101796000D02*
X133072000Y-99822000D01*
X129794000Y-101796000D02*
X131098000Y-101796000D01*
D31*
X123052000Y-67194000D02*
X123052000Y-69847000D01*
X123952000Y-70747000D02*
X123952000Y-72390000D01*
X125476000Y-64770000D02*
X123052000Y-67194000D01*
X123052000Y-69847000D02*
X123952000Y-70747000D01*
X129286000Y-73152000D02*
X129286000Y-72136000D01*
X123952000Y-72390000D02*
X125222000Y-73660000D01*
X125222000Y-73660000D02*
X128778000Y-73660000D01*
X128778000Y-73660000D02*
X129286000Y-73152000D01*
M02*
