G04 #@! TF.GenerationSoftware,KiCad,Pcbnew,6.0.11-2627ca5db0~126~ubuntu22.04.1*
G04 #@! TF.CreationDate,2026-05-27T20:24:31+10:00*
G04 #@! TF.ProjectId,ToothEater,546f6f74-6845-4617-9465-722e6b696361,rev?*
G04 #@! TF.SameCoordinates,Original*
G04 #@! TF.FileFunction,Legend,Top*
G04 #@! TF.FilePolarity,Positive*
%FSLAX46Y46*%
G04 Gerber Fmt 4.6, Leading zero omitted, Abs format (unit mm)*
G04 Created by KiCad (PCBNEW 6.0.11-2627ca5db0~126~ubuntu22.04.1) date 2026-05-27 20:24:31*
%MOMM*%
%LPD*%
G01*
G04 APERTURE LIST*
%ADD10C,0.150000*%
%ADD11C,0.300000*%
%ADD12C,0.120000*%
G04 APERTURE END LIST*
D10*
X120266666Y-72733833D02*
X120266666Y-72333833D01*
X120966666Y-72533833D02*
X120266666Y-72533833D01*
X120600000Y-72100500D02*
X120600000Y-71867166D01*
X120966666Y-71767166D02*
X120966666Y-72100500D01*
X120266666Y-72100500D01*
X120266666Y-71767166D01*
X120933333Y-71500500D02*
X120966666Y-71400500D01*
X120966666Y-71233833D01*
X120933333Y-71167166D01*
X120900000Y-71133833D01*
X120833333Y-71100500D01*
X120766666Y-71100500D01*
X120700000Y-71133833D01*
X120666666Y-71167166D01*
X120633333Y-71233833D01*
X120600000Y-71367166D01*
X120566666Y-71433833D01*
X120533333Y-71467166D01*
X120466666Y-71500500D01*
X120400000Y-71500500D01*
X120333333Y-71467166D01*
X120300000Y-71433833D01*
X120266666Y-71367166D01*
X120266666Y-71200500D01*
X120300000Y-71100500D01*
X120266666Y-70900500D02*
X120266666Y-70500500D01*
X120966666Y-70700500D02*
X120266666Y-70700500D01*
D11*
X125047428Y-79688571D02*
X125047428Y-81188571D01*
X125761714Y-80474285D02*
X125833142Y-80617142D01*
X125976000Y-80688571D01*
X125047428Y-80474285D02*
X125118857Y-80617142D01*
X125261714Y-80688571D01*
X125547428Y-80688571D01*
X125690285Y-80617142D01*
X125761714Y-80474285D01*
X125761714Y-79688571D01*
D10*
X134014166Y-60448000D02*
X133980833Y-60481333D01*
X133880833Y-60514666D01*
X133814166Y-60514666D01*
X133714166Y-60481333D01*
X133647500Y-60414666D01*
X133614166Y-60348000D01*
X133580833Y-60214666D01*
X133580833Y-60114666D01*
X133614166Y-59981333D01*
X133647500Y-59914666D01*
X133714166Y-59848000D01*
X133814166Y-59814666D01*
X133880833Y-59814666D01*
X133980833Y-59848000D01*
X134014166Y-59881333D01*
X134280833Y-60314666D02*
X134614166Y-60314666D01*
X134214166Y-60514666D02*
X134447500Y-59814666D01*
X134680833Y-60514666D01*
X134914166Y-60514666D02*
X134914166Y-59814666D01*
X135147500Y-60314666D01*
X135380833Y-59814666D01*
X135380833Y-60514666D01*
X150778166Y-60448000D02*
X150744833Y-60481333D01*
X150644833Y-60514666D01*
X150578166Y-60514666D01*
X150478166Y-60481333D01*
X150411500Y-60414666D01*
X150378166Y-60348000D01*
X150344833Y-60214666D01*
X150344833Y-60114666D01*
X150378166Y-59981333D01*
X150411500Y-59914666D01*
X150478166Y-59848000D01*
X150578166Y-59814666D01*
X150644833Y-59814666D01*
X150744833Y-59848000D01*
X150778166Y-59881333D01*
X151478166Y-60514666D02*
X151244833Y-60181333D01*
X151078166Y-60514666D02*
X151078166Y-59814666D01*
X151344833Y-59814666D01*
X151411500Y-59848000D01*
X151444833Y-59881333D01*
X151478166Y-59948000D01*
X151478166Y-60048000D01*
X151444833Y-60114666D01*
X151411500Y-60148000D01*
X151344833Y-60181333D01*
X151078166Y-60181333D01*
X151744833Y-60314666D02*
X152078166Y-60314666D01*
X151678166Y-60514666D02*
X151911500Y-59814666D01*
X152144833Y-60514666D01*
X152378166Y-60514666D02*
X152378166Y-59814666D01*
X152778166Y-60514666D01*
X152778166Y-59814666D01*
X153111500Y-60514666D02*
X153111500Y-59814666D01*
X153511500Y-60514666D02*
X153211500Y-60114666D01*
X153511500Y-59814666D02*
X153111500Y-60214666D01*
D11*
X136164000Y-83760571D02*
X136664000Y-85260571D01*
X137164000Y-83760571D01*
X138521142Y-85260571D02*
X138021142Y-84546285D01*
X137664000Y-85260571D02*
X137664000Y-83760571D01*
X138235428Y-83760571D01*
X138378285Y-83832000D01*
X138449714Y-83903428D01*
X138521142Y-84046285D01*
X138521142Y-84260571D01*
X138449714Y-84403428D01*
X138378285Y-84474857D01*
X138235428Y-84546285D01*
X137664000Y-84546285D01*
D10*
X132852166Y-103186666D02*
X132852166Y-102486666D01*
X133118833Y-102486666D01*
X133185500Y-102520000D01*
X133218833Y-102553333D01*
X133252166Y-102620000D01*
X133252166Y-102720000D01*
X133218833Y-102786666D01*
X133185500Y-102820000D01*
X133118833Y-102853333D01*
X132852166Y-102853333D01*
X133685500Y-102486666D02*
X133818833Y-102486666D01*
X133885500Y-102520000D01*
X133952166Y-102586666D01*
X133985500Y-102720000D01*
X133985500Y-102953333D01*
X133952166Y-103086666D01*
X133885500Y-103153333D01*
X133818833Y-103186666D01*
X133685500Y-103186666D01*
X133618833Y-103153333D01*
X133552166Y-103086666D01*
X133518833Y-102953333D01*
X133518833Y-102720000D01*
X133552166Y-102586666D01*
X133618833Y-102520000D01*
X133685500Y-102486666D01*
X134218833Y-102486666D02*
X134385500Y-103186666D01*
X134518833Y-102686666D01*
X134652166Y-103186666D01*
X134818833Y-102486666D01*
X135085500Y-102820000D02*
X135318833Y-102820000D01*
X135418833Y-103186666D02*
X135085500Y-103186666D01*
X135085500Y-102486666D01*
X135418833Y-102486666D01*
X136118833Y-103186666D02*
X135885500Y-102853333D01*
X135718833Y-103186666D02*
X135718833Y-102486666D01*
X135985500Y-102486666D01*
X136052166Y-102520000D01*
X136085500Y-102553333D01*
X136118833Y-102620000D01*
X136118833Y-102720000D01*
X136085500Y-102786666D01*
X136052166Y-102820000D01*
X135985500Y-102853333D01*
X135718833Y-102853333D01*
X139898380Y-97766095D02*
X138898380Y-97766095D01*
X138898380Y-97528000D01*
X138946000Y-97385142D01*
X139041238Y-97289904D01*
X139136476Y-97242285D01*
X139326952Y-97194666D01*
X139469809Y-97194666D01*
X139660285Y-97242285D01*
X139755523Y-97289904D01*
X139850761Y-97385142D01*
X139898380Y-97528000D01*
X139898380Y-97766095D01*
X139898380Y-96242285D02*
X139898380Y-96813714D01*
X139898380Y-96528000D02*
X138898380Y-96528000D01*
X139041238Y-96623238D01*
X139136476Y-96718476D01*
X139184095Y-96813714D01*
X133627904Y-97226380D02*
X133627904Y-96226380D01*
X133866000Y-96226380D01*
X134008857Y-96274000D01*
X134104095Y-96369238D01*
X134151714Y-96464476D01*
X134199333Y-96654952D01*
X134199333Y-96797809D01*
X134151714Y-96988285D01*
X134104095Y-97083523D01*
X134008857Y-97178761D01*
X133866000Y-97226380D01*
X133627904Y-97226380D01*
X134532666Y-96226380D02*
X135151714Y-96226380D01*
X134818380Y-96607333D01*
X134961238Y-96607333D01*
X135056476Y-96654952D01*
X135104095Y-96702571D01*
X135151714Y-96797809D01*
X135151714Y-97035904D01*
X135104095Y-97131142D01*
X135056476Y-97178761D01*
X134961238Y-97226380D01*
X134675523Y-97226380D01*
X134580285Y-97178761D01*
X134532666Y-97131142D01*
X145700761Y-62269619D02*
X145605523Y-62222000D01*
X145510285Y-62126761D01*
X145367428Y-61983904D01*
X145272190Y-61936285D01*
X145176952Y-61936285D01*
X145224571Y-62174380D02*
X145129333Y-62126761D01*
X145034095Y-62031523D01*
X144986476Y-61841047D01*
X144986476Y-61507714D01*
X145034095Y-61317238D01*
X145129333Y-61222000D01*
X145224571Y-61174380D01*
X145415047Y-61174380D01*
X145510285Y-61222000D01*
X145605523Y-61317238D01*
X145653142Y-61507714D01*
X145653142Y-61841047D01*
X145605523Y-62031523D01*
X145510285Y-62126761D01*
X145415047Y-62174380D01*
X145224571Y-62174380D01*
X146557904Y-61174380D02*
X146081714Y-61174380D01*
X146034095Y-61650571D01*
X146081714Y-61602952D01*
X146176952Y-61555333D01*
X146415047Y-61555333D01*
X146510285Y-61602952D01*
X146557904Y-61650571D01*
X146605523Y-61745809D01*
X146605523Y-61983904D01*
X146557904Y-62079142D01*
X146510285Y-62126761D01*
X146415047Y-62174380D01*
X146176952Y-62174380D01*
X146081714Y-62126761D01*
X146034095Y-62079142D01*
X141565333Y-71064380D02*
X141232000Y-70588190D01*
X140993904Y-71064380D02*
X140993904Y-70064380D01*
X141374857Y-70064380D01*
X141470095Y-70112000D01*
X141517714Y-70159619D01*
X141565333Y-70254857D01*
X141565333Y-70397714D01*
X141517714Y-70492952D01*
X141470095Y-70540571D01*
X141374857Y-70588190D01*
X140993904Y-70588190D01*
X142422476Y-70397714D02*
X142422476Y-71064380D01*
X142184380Y-70016761D02*
X141946285Y-70731047D01*
X142565333Y-70731047D01*
X125026000Y-60514666D02*
X124792666Y-60181333D01*
X124626000Y-60514666D02*
X124626000Y-59814666D01*
X124892666Y-59814666D01*
X124959333Y-59848000D01*
X124992666Y-59881333D01*
X125026000Y-59948000D01*
X125026000Y-60048000D01*
X124992666Y-60114666D01*
X124959333Y-60148000D01*
X124892666Y-60181333D01*
X124626000Y-60181333D01*
X125692666Y-60514666D02*
X125292666Y-60514666D01*
X125492666Y-60514666D02*
X125492666Y-59814666D01*
X125426000Y-59914666D01*
X125359333Y-59981333D01*
X125292666Y-60014666D01*
X126359333Y-60514666D02*
X125959333Y-60514666D01*
X126159333Y-60514666D02*
X126159333Y-59814666D01*
X126092666Y-59914666D01*
X126026000Y-59981333D01*
X125959333Y-60014666D01*
X143200380Y-97448666D02*
X142724190Y-97782000D01*
X143200380Y-98020095D02*
X142200380Y-98020095D01*
X142200380Y-97639142D01*
X142248000Y-97543904D01*
X142295619Y-97496285D01*
X142390857Y-97448666D01*
X142533714Y-97448666D01*
X142628952Y-97496285D01*
X142676571Y-97543904D01*
X142724190Y-97639142D01*
X142724190Y-98020095D01*
X143200380Y-96496285D02*
X143200380Y-97067714D01*
X143200380Y-96782000D02*
X142200380Y-96782000D01*
X142343238Y-96877238D01*
X142438476Y-96972476D01*
X142486095Y-97067714D01*
X151442000Y-68134666D02*
X151208666Y-67801333D01*
X151042000Y-68134666D02*
X151042000Y-67434666D01*
X151308666Y-67434666D01*
X151375333Y-67468000D01*
X151408666Y-67501333D01*
X151442000Y-67568000D01*
X151442000Y-67668000D01*
X151408666Y-67734666D01*
X151375333Y-67768000D01*
X151308666Y-67801333D01*
X151042000Y-67801333D01*
X152108666Y-68134666D02*
X151708666Y-68134666D01*
X151908666Y-68134666D02*
X151908666Y-67434666D01*
X151842000Y-67534666D01*
X151775333Y-67601333D01*
X151708666Y-67634666D01*
X152542000Y-67434666D02*
X152608666Y-67434666D01*
X152675333Y-67468000D01*
X152708666Y-67501333D01*
X152742000Y-67568000D01*
X152775333Y-67701333D01*
X152775333Y-67868000D01*
X152742000Y-68001333D01*
X152708666Y-68068000D01*
X152675333Y-68101333D01*
X152608666Y-68134666D01*
X152542000Y-68134666D01*
X152475333Y-68101333D01*
X152442000Y-68068000D01*
X152408666Y-68001333D01*
X152375333Y-67868000D01*
X152375333Y-67701333D01*
X152408666Y-67568000D01*
X152442000Y-67501333D01*
X152475333Y-67468000D01*
X152542000Y-67434666D01*
X140112761Y-62269619D02*
X140017523Y-62222000D01*
X139922285Y-62126761D01*
X139779428Y-61983904D01*
X139684190Y-61936285D01*
X139588952Y-61936285D01*
X139636571Y-62174380D02*
X139541333Y-62126761D01*
X139446095Y-62031523D01*
X139398476Y-61841047D01*
X139398476Y-61507714D01*
X139446095Y-61317238D01*
X139541333Y-61222000D01*
X139636571Y-61174380D01*
X139827047Y-61174380D01*
X139922285Y-61222000D01*
X140017523Y-61317238D01*
X140065142Y-61507714D01*
X140065142Y-61841047D01*
X140017523Y-62031523D01*
X139922285Y-62126761D01*
X139827047Y-62174380D01*
X139636571Y-62174380D01*
X140922285Y-61507714D02*
X140922285Y-62174380D01*
X140684190Y-61126761D02*
X140446095Y-61841047D01*
X141065142Y-61841047D01*
X127137333Y-66610666D02*
X126904000Y-66277333D01*
X126737333Y-66610666D02*
X126737333Y-65910666D01*
X127004000Y-65910666D01*
X127070666Y-65944000D01*
X127104000Y-65977333D01*
X127137333Y-66044000D01*
X127137333Y-66144000D01*
X127104000Y-66210666D01*
X127070666Y-66244000D01*
X127004000Y-66277333D01*
X126737333Y-66277333D01*
X127537333Y-66210666D02*
X127470666Y-66177333D01*
X127437333Y-66144000D01*
X127404000Y-66077333D01*
X127404000Y-66044000D01*
X127437333Y-65977333D01*
X127470666Y-65944000D01*
X127537333Y-65910666D01*
X127670666Y-65910666D01*
X127737333Y-65944000D01*
X127770666Y-65977333D01*
X127804000Y-66044000D01*
X127804000Y-66077333D01*
X127770666Y-66144000D01*
X127737333Y-66177333D01*
X127670666Y-66210666D01*
X127537333Y-66210666D01*
X127470666Y-66244000D01*
X127437333Y-66277333D01*
X127404000Y-66344000D01*
X127404000Y-66477333D01*
X127437333Y-66544000D01*
X127470666Y-66577333D01*
X127537333Y-66610666D01*
X127670666Y-66610666D01*
X127737333Y-66577333D01*
X127770666Y-66544000D01*
X127804000Y-66477333D01*
X127804000Y-66344000D01*
X127770666Y-66277333D01*
X127737333Y-66244000D01*
X127670666Y-66210666D01*
X123327333Y-66864666D02*
X123094000Y-66531333D01*
X122927333Y-66864666D02*
X122927333Y-66164666D01*
X123194000Y-66164666D01*
X123260666Y-66198000D01*
X123294000Y-66231333D01*
X123327333Y-66298000D01*
X123327333Y-66398000D01*
X123294000Y-66464666D01*
X123260666Y-66498000D01*
X123194000Y-66531333D01*
X122927333Y-66531333D01*
X123560666Y-66164666D02*
X124027333Y-66164666D01*
X123727333Y-66864666D01*
X136652095Y-80732380D02*
X136652095Y-81541904D01*
X136699714Y-81637142D01*
X136747333Y-81684761D01*
X136842571Y-81732380D01*
X137033047Y-81732380D01*
X137128285Y-81684761D01*
X137175904Y-81637142D01*
X137223523Y-81541904D01*
X137223523Y-80732380D01*
X137652095Y-80827619D02*
X137699714Y-80780000D01*
X137794952Y-80732380D01*
X138033047Y-80732380D01*
X138128285Y-80780000D01*
X138175904Y-80827619D01*
X138223523Y-80922857D01*
X138223523Y-81018095D01*
X138175904Y-81160952D01*
X137604476Y-81732380D01*
X138223523Y-81732380D01*
X154336761Y-70905619D02*
X154241523Y-70858000D01*
X154146285Y-70762761D01*
X154003428Y-70619904D01*
X153908190Y-70572285D01*
X153812952Y-70572285D01*
X153860571Y-70810380D02*
X153765333Y-70762761D01*
X153670095Y-70667523D01*
X153622476Y-70477047D01*
X153622476Y-70143714D01*
X153670095Y-69953238D01*
X153765333Y-69858000D01*
X153860571Y-69810380D01*
X154051047Y-69810380D01*
X154146285Y-69858000D01*
X154241523Y-69953238D01*
X154289142Y-70143714D01*
X154289142Y-70477047D01*
X154241523Y-70667523D01*
X154146285Y-70762761D01*
X154051047Y-70810380D01*
X153860571Y-70810380D01*
X154670095Y-69905619D02*
X154717714Y-69858000D01*
X154812952Y-69810380D01*
X155051047Y-69810380D01*
X155146285Y-69858000D01*
X155193904Y-69905619D01*
X155241523Y-70000857D01*
X155241523Y-70096095D01*
X155193904Y-70238952D01*
X154622476Y-70810380D01*
X155241523Y-70810380D01*
X157908666Y-75398380D02*
X157908666Y-76112666D01*
X157861047Y-76255523D01*
X157765809Y-76350761D01*
X157622952Y-76398380D01*
X157527714Y-76398380D01*
X158337238Y-75493619D02*
X158384857Y-75446000D01*
X158480095Y-75398380D01*
X158718190Y-75398380D01*
X158813428Y-75446000D01*
X158861047Y-75493619D01*
X158908666Y-75588857D01*
X158908666Y-75684095D01*
X158861047Y-75826952D01*
X158289619Y-76398380D01*
X158908666Y-76398380D01*
X160178761Y-70905619D02*
X160083523Y-70858000D01*
X159988285Y-70762761D01*
X159845428Y-70619904D01*
X159750190Y-70572285D01*
X159654952Y-70572285D01*
X159702571Y-70810380D02*
X159607333Y-70762761D01*
X159512095Y-70667523D01*
X159464476Y-70477047D01*
X159464476Y-70143714D01*
X159512095Y-69953238D01*
X159607333Y-69858000D01*
X159702571Y-69810380D01*
X159893047Y-69810380D01*
X159988285Y-69858000D01*
X160083523Y-69953238D01*
X160131142Y-70143714D01*
X160131142Y-70477047D01*
X160083523Y-70667523D01*
X159988285Y-70762761D01*
X159893047Y-70810380D01*
X159702571Y-70810380D01*
X160464476Y-69810380D02*
X161083523Y-69810380D01*
X160750190Y-70191333D01*
X160893047Y-70191333D01*
X160988285Y-70238952D01*
X161035904Y-70286571D01*
X161083523Y-70381809D01*
X161083523Y-70619904D01*
X161035904Y-70715142D01*
X160988285Y-70762761D01*
X160893047Y-70810380D01*
X160607333Y-70810380D01*
X160512095Y-70762761D01*
X160464476Y-70715142D01*
X121403333Y-70166666D02*
X121403333Y-69466666D01*
X121570000Y-69466666D01*
X121670000Y-69500000D01*
X121736666Y-69566666D01*
X121770000Y-69633333D01*
X121803333Y-69766666D01*
X121803333Y-69866666D01*
X121770000Y-70000000D01*
X121736666Y-70066666D01*
X121670000Y-70133333D01*
X121570000Y-70166666D01*
X121403333Y-70166666D01*
X122403333Y-69466666D02*
X122270000Y-69466666D01*
X122203333Y-69500000D01*
X122170000Y-69533333D01*
X122103333Y-69633333D01*
X122070000Y-69766666D01*
X122070000Y-70033333D01*
X122103333Y-70100000D01*
X122136666Y-70133333D01*
X122203333Y-70166666D01*
X122336666Y-70166666D01*
X122403333Y-70133333D01*
X122436666Y-70100000D01*
X122470000Y-70033333D01*
X122470000Y-69866666D01*
X122436666Y-69800000D01*
X122403333Y-69766666D01*
X122336666Y-69733333D01*
X122203333Y-69733333D01*
X122136666Y-69766666D01*
X122103333Y-69800000D01*
X122070000Y-69866666D01*
X141565333Y-77668380D02*
X141232000Y-77192190D01*
X140993904Y-77668380D02*
X140993904Y-76668380D01*
X141374857Y-76668380D01*
X141470095Y-76716000D01*
X141517714Y-76763619D01*
X141565333Y-76858857D01*
X141565333Y-77001714D01*
X141517714Y-77096952D01*
X141470095Y-77144571D01*
X141374857Y-77192190D01*
X140993904Y-77192190D01*
X142422476Y-76668380D02*
X142232000Y-76668380D01*
X142136761Y-76716000D01*
X142089142Y-76763619D01*
X141993904Y-76906476D01*
X141946285Y-77096952D01*
X141946285Y-77477904D01*
X141993904Y-77573142D01*
X142041523Y-77620761D01*
X142136761Y-77668380D01*
X142327238Y-77668380D01*
X142422476Y-77620761D01*
X142470095Y-77573142D01*
X142517714Y-77477904D01*
X142517714Y-77239809D01*
X142470095Y-77144571D01*
X142422476Y-77096952D01*
X142327238Y-77049333D01*
X142136761Y-77049333D01*
X142041523Y-77096952D01*
X141993904Y-77144571D01*
X141946285Y-77239809D01*
X124714095Y-76160380D02*
X124714095Y-76969904D01*
X124761714Y-77065142D01*
X124809333Y-77112761D01*
X124904571Y-77160380D01*
X125095047Y-77160380D01*
X125190285Y-77112761D01*
X125237904Y-77065142D01*
X125285523Y-76969904D01*
X125285523Y-76160380D01*
X126285523Y-77160380D02*
X125714095Y-77160380D01*
X125999809Y-77160380D02*
X125999809Y-76160380D01*
X125904571Y-76303238D01*
X125809333Y-76398476D01*
X125714095Y-76446095D01*
X159345333Y-100687142D02*
X159297714Y-100734761D01*
X159154857Y-100782380D01*
X159059619Y-100782380D01*
X158916761Y-100734761D01*
X158821523Y-100639523D01*
X158773904Y-100544285D01*
X158726285Y-100353809D01*
X158726285Y-100210952D01*
X158773904Y-100020476D01*
X158821523Y-99925238D01*
X158916761Y-99830000D01*
X159059619Y-99782380D01*
X159154857Y-99782380D01*
X159297714Y-99830000D01*
X159345333Y-99877619D01*
X160297714Y-100782380D02*
X159726285Y-100782380D01*
X160012000Y-100782380D02*
X160012000Y-99782380D01*
X159916761Y-99925238D01*
X159821523Y-100020476D01*
X159726285Y-100068095D01*
X151267333Y-76770666D02*
X151034000Y-76437333D01*
X150867333Y-76770666D02*
X150867333Y-76070666D01*
X151134000Y-76070666D01*
X151200666Y-76104000D01*
X151234000Y-76137333D01*
X151267333Y-76204000D01*
X151267333Y-76304000D01*
X151234000Y-76370666D01*
X151200666Y-76404000D01*
X151134000Y-76437333D01*
X150867333Y-76437333D01*
X151600666Y-76770666D02*
X151734000Y-76770666D01*
X151800666Y-76737333D01*
X151834000Y-76704000D01*
X151900666Y-76604000D01*
X151934000Y-76470666D01*
X151934000Y-76204000D01*
X151900666Y-76137333D01*
X151867333Y-76104000D01*
X151800666Y-76070666D01*
X151667333Y-76070666D01*
X151600666Y-76104000D01*
X151567333Y-76137333D01*
X151534000Y-76204000D01*
X151534000Y-76370666D01*
X151567333Y-76437333D01*
X151600666Y-76470666D01*
X151667333Y-76504000D01*
X151800666Y-76504000D01*
X151867333Y-76470666D01*
X151900666Y-76437333D01*
X151934000Y-76370666D01*
X129627333Y-97422380D02*
X129294000Y-96946190D01*
X129055904Y-97422380D02*
X129055904Y-96422380D01*
X129436857Y-96422380D01*
X129532095Y-96470000D01*
X129579714Y-96517619D01*
X129627333Y-96612857D01*
X129627333Y-96755714D01*
X129579714Y-96850952D01*
X129532095Y-96898571D01*
X129436857Y-96946190D01*
X129055904Y-96946190D01*
X130008285Y-96517619D02*
X130055904Y-96470000D01*
X130151142Y-96422380D01*
X130389238Y-96422380D01*
X130484476Y-96470000D01*
X130532095Y-96517619D01*
X130579714Y-96612857D01*
X130579714Y-96708095D01*
X130532095Y-96850952D01*
X129960666Y-97422380D01*
X130579714Y-97422380D01*
X126720666Y-88516666D02*
X126720666Y-89083333D01*
X126754000Y-89150000D01*
X126787333Y-89183333D01*
X126854000Y-89216666D01*
X126987333Y-89216666D01*
X127054000Y-89183333D01*
X127087333Y-89150000D01*
X127120666Y-89083333D01*
X127120666Y-88516666D01*
X127387333Y-88516666D02*
X127820666Y-88516666D01*
X127587333Y-88783333D01*
X127687333Y-88783333D01*
X127754000Y-88816666D01*
X127787333Y-88850000D01*
X127820666Y-88916666D01*
X127820666Y-89083333D01*
X127787333Y-89150000D01*
X127754000Y-89183333D01*
X127687333Y-89216666D01*
X127487333Y-89216666D01*
X127420666Y-89183333D01*
X127387333Y-89150000D01*
X157908666Y-86828380D02*
X157908666Y-87542666D01*
X157861047Y-87685523D01*
X157765809Y-87780761D01*
X157622952Y-87828380D01*
X157527714Y-87828380D01*
X158908666Y-87828380D02*
X158337238Y-87828380D01*
X158622952Y-87828380D02*
X158622952Y-86828380D01*
X158527714Y-86971238D01*
X158432476Y-87066476D01*
X158337238Y-87114095D01*
X129219333Y-70741333D02*
X129152666Y-70708000D01*
X129086000Y-70641333D01*
X128986000Y-70541333D01*
X128919333Y-70508000D01*
X128852666Y-70508000D01*
X128886000Y-70674666D02*
X128819333Y-70641333D01*
X128752666Y-70574666D01*
X128719333Y-70441333D01*
X128719333Y-70208000D01*
X128752666Y-70074666D01*
X128819333Y-70008000D01*
X128886000Y-69974666D01*
X129019333Y-69974666D01*
X129086000Y-70008000D01*
X129152666Y-70074666D01*
X129186000Y-70208000D01*
X129186000Y-70441333D01*
X129152666Y-70574666D01*
X129086000Y-70641333D01*
X129019333Y-70674666D01*
X128886000Y-70674666D01*
X129786000Y-69974666D02*
X129652666Y-69974666D01*
X129586000Y-70008000D01*
X129552666Y-70041333D01*
X129486000Y-70141333D01*
X129452666Y-70274666D01*
X129452666Y-70541333D01*
X129486000Y-70608000D01*
X129519333Y-70641333D01*
X129586000Y-70674666D01*
X129719333Y-70674666D01*
X129786000Y-70641333D01*
X129819333Y-70608000D01*
X129852666Y-70541333D01*
X129852666Y-70374666D01*
X129819333Y-70308000D01*
X129786000Y-70274666D01*
X129719333Y-70241333D01*
X129586000Y-70241333D01*
X129519333Y-70274666D01*
X129486000Y-70308000D01*
X129452666Y-70374666D01*
X131849904Y-65730380D02*
X131849904Y-64730380D01*
X132088000Y-64730380D01*
X132230857Y-64778000D01*
X132326095Y-64873238D01*
X132373714Y-64968476D01*
X132421333Y-65158952D01*
X132421333Y-65301809D01*
X132373714Y-65492285D01*
X132326095Y-65587523D01*
X132230857Y-65682761D01*
X132088000Y-65730380D01*
X131849904Y-65730380D01*
X133278476Y-65063714D02*
X133278476Y-65730380D01*
X133040380Y-64682761D02*
X132802285Y-65397047D01*
X133421333Y-65397047D01*
X141565333Y-67762380D02*
X141232000Y-67286190D01*
X140993904Y-67762380D02*
X140993904Y-66762380D01*
X141374857Y-66762380D01*
X141470095Y-66810000D01*
X141517714Y-66857619D01*
X141565333Y-66952857D01*
X141565333Y-67095714D01*
X141517714Y-67190952D01*
X141470095Y-67238571D01*
X141374857Y-67286190D01*
X140993904Y-67286190D01*
X141898666Y-66762380D02*
X142517714Y-66762380D01*
X142184380Y-67143333D01*
X142327238Y-67143333D01*
X142422476Y-67190952D01*
X142470095Y-67238571D01*
X142517714Y-67333809D01*
X142517714Y-67571904D01*
X142470095Y-67667142D01*
X142422476Y-67714761D01*
X142327238Y-67762380D01*
X142041523Y-67762380D01*
X141946285Y-67714761D01*
X141898666Y-67667142D01*
X149764761Y-96051619D02*
X149669523Y-96004000D01*
X149574285Y-95908761D01*
X149431428Y-95765904D01*
X149336190Y-95718285D01*
X149240952Y-95718285D01*
X149288571Y-95956380D02*
X149193333Y-95908761D01*
X149098095Y-95813523D01*
X149050476Y-95623047D01*
X149050476Y-95289714D01*
X149098095Y-95099238D01*
X149193333Y-95004000D01*
X149288571Y-94956380D01*
X149479047Y-94956380D01*
X149574285Y-95004000D01*
X149669523Y-95099238D01*
X149717142Y-95289714D01*
X149717142Y-95623047D01*
X149669523Y-95813523D01*
X149574285Y-95908761D01*
X149479047Y-95956380D01*
X149288571Y-95956380D01*
X150669523Y-95956380D02*
X150098095Y-95956380D01*
X150383809Y-95956380D02*
X150383809Y-94956380D01*
X150288571Y-95099238D01*
X150193333Y-95194476D01*
X150098095Y-95242095D01*
X147010380Y-97766095D02*
X146010380Y-97766095D01*
X146010380Y-97528000D01*
X146058000Y-97385142D01*
X146153238Y-97289904D01*
X146248476Y-97242285D01*
X146438952Y-97194666D01*
X146581809Y-97194666D01*
X146772285Y-97242285D01*
X146867523Y-97289904D01*
X146962761Y-97385142D01*
X147010380Y-97528000D01*
X147010380Y-97766095D01*
X146105619Y-96813714D02*
X146058000Y-96766095D01*
X146010380Y-96670857D01*
X146010380Y-96432761D01*
X146058000Y-96337523D01*
X146105619Y-96289904D01*
X146200857Y-96242285D01*
X146296095Y-96242285D01*
X146438952Y-96289904D01*
X147010380Y-96861333D01*
X147010380Y-96242285D01*
X153693904Y-65730380D02*
X153693904Y-64730380D01*
X153932000Y-64730380D01*
X154074857Y-64778000D01*
X154170095Y-64873238D01*
X154217714Y-64968476D01*
X154265333Y-65158952D01*
X154265333Y-65301809D01*
X154217714Y-65492285D01*
X154170095Y-65587523D01*
X154074857Y-65682761D01*
X153932000Y-65730380D01*
X153693904Y-65730380D01*
X155170095Y-64730380D02*
X154693904Y-64730380D01*
X154646285Y-65206571D01*
X154693904Y-65158952D01*
X154789142Y-65111333D01*
X155027238Y-65111333D01*
X155122476Y-65158952D01*
X155170095Y-65206571D01*
X155217714Y-65301809D01*
X155217714Y-65539904D01*
X155170095Y-65635142D01*
X155122476Y-65682761D01*
X155027238Y-65730380D01*
X154789142Y-65730380D01*
X154693904Y-65682761D01*
X154646285Y-65635142D01*
X124547333Y-94337142D02*
X124499714Y-94384761D01*
X124356857Y-94432380D01*
X124261619Y-94432380D01*
X124118761Y-94384761D01*
X124023523Y-94289523D01*
X123975904Y-94194285D01*
X123928285Y-94003809D01*
X123928285Y-93860952D01*
X123975904Y-93670476D01*
X124023523Y-93575238D01*
X124118761Y-93480000D01*
X124261619Y-93432380D01*
X124356857Y-93432380D01*
X124499714Y-93480000D01*
X124547333Y-93527619D01*
X124928285Y-93527619D02*
X124975904Y-93480000D01*
X125071142Y-93432380D01*
X125309238Y-93432380D01*
X125404476Y-93480000D01*
X125452095Y-93527619D01*
X125499714Y-93622857D01*
X125499714Y-93718095D01*
X125452095Y-93860952D01*
X124880666Y-94432380D01*
X125499714Y-94432380D01*
X141565333Y-74366380D02*
X141232000Y-73890190D01*
X140993904Y-74366380D02*
X140993904Y-73366380D01*
X141374857Y-73366380D01*
X141470095Y-73414000D01*
X141517714Y-73461619D01*
X141565333Y-73556857D01*
X141565333Y-73699714D01*
X141517714Y-73794952D01*
X141470095Y-73842571D01*
X141374857Y-73890190D01*
X140993904Y-73890190D01*
X142470095Y-73366380D02*
X141993904Y-73366380D01*
X141946285Y-73842571D01*
X141993904Y-73794952D01*
X142089142Y-73747333D01*
X142327238Y-73747333D01*
X142422476Y-73794952D01*
X142470095Y-73842571D01*
X142517714Y-73937809D01*
X142517714Y-74175904D01*
X142470095Y-74271142D01*
X142422476Y-74318761D01*
X142327238Y-74366380D01*
X142089142Y-74366380D01*
X141993904Y-74318761D01*
X141946285Y-74271142D01*
X121470000Y-60514666D02*
X121236666Y-60181333D01*
X121070000Y-60514666D02*
X121070000Y-59814666D01*
X121336666Y-59814666D01*
X121403333Y-59848000D01*
X121436666Y-59881333D01*
X121470000Y-59948000D01*
X121470000Y-60048000D01*
X121436666Y-60114666D01*
X121403333Y-60148000D01*
X121336666Y-60181333D01*
X121070000Y-60181333D01*
X122136666Y-60514666D02*
X121736666Y-60514666D01*
X121936666Y-60514666D02*
X121936666Y-59814666D01*
X121870000Y-59914666D01*
X121803333Y-59981333D01*
X121736666Y-60014666D01*
X122403333Y-59881333D02*
X122436666Y-59848000D01*
X122503333Y-59814666D01*
X122670000Y-59814666D01*
X122736666Y-59848000D01*
X122770000Y-59881333D01*
X122803333Y-59948000D01*
X122803333Y-60014666D01*
X122770000Y-60114666D01*
X122370000Y-60514666D01*
X122803333Y-60514666D01*
D12*
X139446000Y-100768000D02*
X139446000Y-99748000D01*
X137976000Y-98848000D02*
X140916000Y-98848000D01*
X140916000Y-99748000D02*
X140916000Y-94308000D01*
X137976000Y-94308000D02*
X137976000Y-99748000D01*
X137976000Y-98968000D02*
X140916000Y-98968000D01*
X137976000Y-98728000D02*
X140916000Y-98728000D01*
X140916000Y-94308000D02*
X137976000Y-94308000D01*
X137976000Y-99748000D02*
X140916000Y-99748000D01*
X139446000Y-93288000D02*
X139446000Y-94308000D01*
X135902000Y-101058000D02*
X135902000Y-100902000D01*
X135902000Y-98742000D02*
X135902000Y-98586000D01*
X135902000Y-98586484D02*
G75*
G03*
X132669665Y-98743392I-1560000J-1235516D01*
G01*
X132669665Y-100900608D02*
G75*
G03*
X135902000Y-101057516I1672335J1078608D01*
G01*
X133300870Y-100901837D02*
G75*
G03*
X135382961Y-100902000I1041130J1079837D01*
G01*
X135382961Y-98742000D02*
G75*
G03*
X133300870Y-98742163I-1040961J-1080000D01*
G01*
X143996000Y-65202000D02*
X147596000Y-65202000D01*
X145796000Y-60751999D02*
G75*
G03*
X143957522Y-65190478I0J-2600001D01*
G01*
X147634478Y-65190478D02*
G75*
G03*
X145796000Y-60752000I-1838478J1838478D01*
G01*
X145772000Y-70612000D02*
X145002000Y-70612000D01*
X145002000Y-69242000D02*
X138462000Y-69242000D01*
X145002000Y-71982000D02*
X145002000Y-69242000D01*
X138462000Y-71982000D02*
X145002000Y-71982000D01*
X138462000Y-69242000D02*
X138462000Y-71982000D01*
X137692000Y-70612000D02*
X138462000Y-70612000D01*
X125476000Y-63600000D02*
X125476000Y-63670000D01*
X126846000Y-62230000D02*
G75*
G03*
X126846000Y-62230000I-1370000J0D01*
G01*
X142748000Y-101322000D02*
X142748000Y-100552000D01*
X141378000Y-100552000D02*
X144118000Y-100552000D01*
X144118000Y-100552000D02*
X144118000Y-94012000D01*
X142748000Y-93242000D02*
X142748000Y-94012000D01*
X144118000Y-94012000D02*
X141378000Y-94012000D01*
X141378000Y-94012000D02*
X141378000Y-100552000D01*
X149860000Y-68001000D02*
X149860000Y-67931000D01*
X151230000Y-69371000D02*
G75*
G03*
X151230000Y-69371000I-1370000J0D01*
G01*
X138408000Y-65202000D02*
X142008000Y-65202000D01*
X140208000Y-60751999D02*
G75*
G03*
X138369522Y-65190478I0J-2600001D01*
G01*
X142046478Y-65190478D02*
G75*
G03*
X140208000Y-60752000I-1838478J1838478D01*
G01*
X127584000Y-67818000D02*
X127514000Y-67818000D01*
X130324000Y-67818000D02*
G75*
G03*
X130324000Y-67818000I-1370000J0D01*
G01*
X123007000Y-67818000D02*
X123077000Y-67818000D01*
X123007000Y-67818000D02*
G75*
G03*
X123007000Y-67818000I-1370000J0D01*
G01*
X136424000Y-79452000D02*
X134774000Y-79452000D01*
X140074000Y-89732000D02*
X140074000Y-79452000D01*
X134774000Y-89732000D02*
X140074000Y-89732000D01*
X134774000Y-79452000D02*
X134774000Y-89732000D01*
X140074000Y-79452000D02*
X138424000Y-79452000D01*
X136424000Y-79452000D02*
G75*
G03*
X138424000Y-79452000I1000000J0D01*
G01*
X152632000Y-73838000D02*
X156232000Y-73838000D01*
X154432000Y-69387999D02*
G75*
G03*
X152593522Y-73826478I0J-2600001D01*
G01*
X156270478Y-73826478D02*
G75*
G03*
X154432000Y-69388000I-1838478J1838478D01*
G01*
X152779000Y-74825000D02*
X161909000Y-74825000D01*
X152779000Y-85195000D02*
X152779000Y-74825000D01*
X162909000Y-75825000D02*
X162909000Y-84195000D01*
X161909000Y-85195000D02*
X152779000Y-85195000D01*
X161909000Y-74825000D02*
X162909000Y-75825000D01*
X162909000Y-84195000D02*
X161909000Y-85195000D01*
X158474000Y-73838000D02*
X162074000Y-73838000D01*
X160274000Y-69387999D02*
G75*
G03*
X158435522Y-73826478I0J-2600001D01*
G01*
X162112478Y-73826478D02*
G75*
G03*
X160274000Y-69388000I-1838478J1838478D01*
G01*
X122347000Y-70646000D02*
X122347000Y-70802000D01*
X122347000Y-72962000D02*
X122347000Y-73118000D01*
X122347000Y-73117516D02*
G75*
G03*
X125579335Y-72960608I1560000J1235516D01*
G01*
X124948130Y-70802163D02*
G75*
G03*
X122866039Y-70802000I-1041130J-1079837D01*
G01*
X122866039Y-72962000D02*
G75*
G03*
X124948130Y-72961837I1040961J1080000D01*
G01*
X125579335Y-70803392D02*
G75*
G03*
X122347000Y-70646484I-1672335J-1078608D01*
G01*
X145772000Y-77216000D02*
X145002000Y-77216000D01*
X145002000Y-78586000D02*
X145002000Y-75846000D01*
X138462000Y-75846000D02*
X138462000Y-78586000D01*
X145002000Y-75846000D02*
X138462000Y-75846000D01*
X137692000Y-77216000D02*
X138462000Y-77216000D01*
X138462000Y-78586000D02*
X145002000Y-78586000D01*
X123236000Y-85160000D02*
X127736000Y-85160000D01*
X120236000Y-85220000D02*
X130736000Y-85220000D01*
X127736000Y-74880000D02*
X126486000Y-74880000D01*
X130736000Y-74820000D02*
X120236000Y-74820000D01*
X124486000Y-74880000D02*
X123236000Y-74880000D01*
X127736000Y-85160000D02*
X127736000Y-74880000D01*
X130736000Y-85220000D02*
X130736000Y-74820000D01*
X120236000Y-74820000D02*
X120236000Y-85220000D01*
X123236000Y-74880000D02*
X123236000Y-85160000D01*
X124486000Y-74880000D02*
G75*
G03*
X126486000Y-74880000I1000000J0D01*
G01*
X155892000Y-97960000D02*
X163132000Y-97960000D01*
X155892000Y-97960000D02*
X155892000Y-102700000D01*
X155892000Y-102700000D02*
X163132000Y-102700000D01*
X163132000Y-97960000D02*
X163132000Y-102700000D01*
X149860000Y-73560000D02*
X149860000Y-73490000D01*
X151230000Y-74930000D02*
G75*
G03*
X151230000Y-74930000I-1370000J0D01*
G01*
X129794000Y-100626000D02*
X129794000Y-100696000D01*
X131164000Y-99256000D02*
G75*
G03*
X131164000Y-99256000I-1370000J0D01*
G01*
X123626000Y-87100000D02*
X123626000Y-90700000D01*
X128076001Y-88900000D02*
G75*
G03*
X123637522Y-87061522I-2600001J0D01*
G01*
X123637522Y-90738478D02*
G75*
G03*
X128076000Y-88900000I1838478J1838478D01*
G01*
X161909000Y-96625000D02*
X152779000Y-96625000D01*
X152779000Y-86255000D02*
X161909000Y-86255000D01*
X161909000Y-86255000D02*
X162909000Y-87255000D01*
X162909000Y-95625000D02*
X161909000Y-96625000D01*
X152779000Y-96625000D02*
X152779000Y-86255000D01*
X162909000Y-87255000D02*
X162909000Y-95625000D01*
X127486000Y-73986000D02*
X131086000Y-73986000D01*
X131124478Y-73974478D02*
G75*
G03*
X129286000Y-69536000I-1838478J1838478D01*
G01*
X129286000Y-69535999D02*
G75*
G03*
X127447522Y-73974478I0J-2600001D01*
G01*
X133055000Y-64072000D02*
X133055000Y-64228000D01*
X133055000Y-61756000D02*
X133055000Y-61912000D01*
X136287335Y-61913392D02*
G75*
G03*
X133055000Y-61756484I-1672335J-1078608D01*
G01*
X135656130Y-61912163D02*
G75*
G03*
X133574039Y-61912000I-1041130J-1079837D01*
G01*
X133574039Y-64072000D02*
G75*
G03*
X135656130Y-64071837I1040961J1080000D01*
G01*
X133055000Y-64227516D02*
G75*
G03*
X136287335Y-64070608I1560000J1235516D01*
G01*
X138462000Y-68680000D02*
X145002000Y-68680000D01*
X137692000Y-67310000D02*
X138462000Y-67310000D01*
X145002000Y-68680000D02*
X145002000Y-65940000D01*
X145772000Y-67310000D02*
X145002000Y-67310000D01*
X138462000Y-65940000D02*
X138462000Y-68680000D01*
X145002000Y-65940000D02*
X138462000Y-65940000D01*
X151146000Y-103242000D02*
X148606000Y-103242000D01*
X150506000Y-103116000D02*
X150506000Y-103242000D01*
X150506000Y-98544000D02*
X150506000Y-98815000D01*
X148606000Y-98544000D02*
X148606000Y-98815000D01*
X148606000Y-96402000D02*
X148606000Y-96528000D01*
X150506000Y-96402000D02*
X150506000Y-96528000D01*
X150506000Y-100830000D02*
X150506000Y-101101000D01*
X148606000Y-103116000D02*
X148606000Y-103242000D01*
X151146000Y-96402000D02*
X148606000Y-96402000D01*
X151146000Y-96402000D02*
X151146000Y-103242000D01*
X148606000Y-100830000D02*
X148606000Y-101101000D01*
X146558000Y-100768000D02*
X146558000Y-99748000D01*
X148028000Y-94308000D02*
X145088000Y-94308000D01*
X145088000Y-99748000D02*
X148028000Y-99748000D01*
X145088000Y-94308000D02*
X145088000Y-99748000D01*
X145088000Y-98848000D02*
X148028000Y-98848000D01*
X145088000Y-98968000D02*
X148028000Y-98968000D01*
X146558000Y-93288000D02*
X146558000Y-94308000D01*
X145088000Y-98728000D02*
X148028000Y-98728000D01*
X148028000Y-99748000D02*
X148028000Y-94308000D01*
X150327000Y-61756000D02*
X150327000Y-61912000D01*
X150327000Y-64072000D02*
X150327000Y-64228000D01*
X153559335Y-61913392D02*
G75*
G03*
X150327000Y-61756484I-1672335J-1078608D01*
G01*
X152928130Y-61912163D02*
G75*
G03*
X150846039Y-61912000I-1041130J-1079837D01*
G01*
X150846039Y-64072000D02*
G75*
G03*
X152928130Y-64071837I1040961J1080000D01*
G01*
X150327000Y-64227516D02*
G75*
G03*
X153559335Y-64070608I1560000J1235516D01*
G01*
X122694000Y-92560000D02*
X122694000Y-95400000D01*
X122694000Y-95400000D02*
X126734000Y-95400000D01*
X127424000Y-93980000D02*
X126734000Y-93980000D01*
X126734000Y-92560000D02*
X122694000Y-92560000D01*
X122004000Y-93980000D02*
X122694000Y-93980000D01*
X126734000Y-95400000D02*
X126734000Y-92560000D01*
X138462000Y-72544000D02*
X138462000Y-75284000D01*
X145002000Y-72544000D02*
X138462000Y-72544000D01*
X145002000Y-75284000D02*
X145002000Y-72544000D01*
X137692000Y-73914000D02*
X138462000Y-73914000D01*
X138462000Y-75284000D02*
X145002000Y-75284000D01*
X145772000Y-73914000D02*
X145002000Y-73914000D01*
X121920000Y-63571000D02*
X121920000Y-63641000D01*
X123290000Y-62201000D02*
G75*
G03*
X123290000Y-62201000I-1370000J0D01*
G01*
M02*
