G04 #@! TF.GenerationSoftware,KiCad,Pcbnew,6.0.11-2627ca5db0~126~ubuntu22.04.1*
G04 #@! TF.CreationDate,2026-05-27T20:24:31+10:00*
G04 #@! TF.ProjectId,ToothEater,546f6f74-6845-4617-9465-722e6b696361,rev?*
G04 #@! TF.SameCoordinates,Original*
G04 #@! TF.FileFunction,Copper,L2,Bot*
G04 #@! TF.FilePolarity,Positive*
%FSLAX46Y46*%
G04 Gerber Fmt 4.6, Leading zero omitted, Abs format (unit mm)*
G04 Created by KiCad (PCBNEW 6.0.11-2627ca5db0~126~ubuntu22.04.1) date 2026-05-27 20:24:31*
%MOMM*%
%LPD*%
G01*
G04 APERTURE LIST*
G04 Aperture macros list*
%AMRoundRect*
0 Rectangle with rounded corners*
0 $1 Rounding radius*
0 $2 $3 $4 $5 $6 $7 $8 $9 X,Y pos of 4 corners*
0 Add a 4 corners polygon primitive as box body*
4,1,4,$2,$3,$4,$5,$6,$7,$8,$9,$2,$3,0*
0 Add four circle primitives for the rounded corners*
1,1,$1+$1,$2,$3*
1,1,$1+$1,$4,$5*
1,1,$1+$1,$6,$7*
1,1,$1+$1,$8,$9*
0 Add four rect primitives between the rounded corners*
20,1,$1+$1,$2,$3,$4,$5,0*
20,1,$1+$1,$4,$5,$6,$7,0*
20,1,$1+$1,$6,$7,$8,$9,0*
20,1,$1+$1,$8,$9,$2,$3,0*%
%AMFreePoly0*
4,1,22,0.500000,-0.750000,0.000000,-0.750000,0.000000,-0.745033,-0.079941,-0.743568,-0.215256,-0.701293,-0.333266,-0.622738,-0.424486,-0.514219,-0.481581,-0.384460,-0.499164,-0.250000,-0.500000,-0.250000,-0.500000,0.250000,-0.499164,0.250000,-0.499963,0.256109,-0.478152,0.396186,-0.417904,0.524511,-0.324060,0.630769,-0.204165,0.706417,-0.067858,0.745374,0.000000,0.744959,0.000000,0.750000,
0.500000,0.750000,0.500000,-0.750000,0.500000,-0.750000,$1*%
%AMFreePoly1*
4,1,20,0.000000,0.744959,0.073905,0.744508,0.209726,0.703889,0.328688,0.626782,0.421226,0.519385,0.479903,0.390333,0.500000,0.250000,0.500000,-0.250000,0.499851,-0.262216,0.476331,-0.402017,0.414519,-0.529596,0.319384,-0.634700,0.198574,-0.708877,0.061801,-0.746166,0.000000,-0.745033,0.000000,-0.750000,-0.500000,-0.750000,-0.500000,0.750000,0.000000,0.750000,0.000000,0.744959,
0.000000,0.744959,$1*%
G04 Aperture macros list end*
G04 #@! TA.AperFunction,ComponentPad*
%ADD10R,2.200000X2.200000*%
G04 #@! TD*
G04 #@! TA.AperFunction,ComponentPad*
%ADD11O,2.200000X2.200000*%
G04 #@! TD*
G04 #@! TA.AperFunction,ComponentPad*
%ADD12R,1.800000X1.800000*%
G04 #@! TD*
G04 #@! TA.AperFunction,ComponentPad*
%ADD13C,1.800000*%
G04 #@! TD*
G04 #@! TA.AperFunction,ComponentPad*
%ADD14R,1.050000X1.500000*%
G04 #@! TD*
G04 #@! TA.AperFunction,ComponentPad*
%ADD15O,1.050000X1.500000*%
G04 #@! TD*
G04 #@! TA.AperFunction,ComponentPad*
%ADD16C,1.600000*%
G04 #@! TD*
G04 #@! TA.AperFunction,ComponentPad*
%ADD17O,1.600000X1.600000*%
G04 #@! TD*
G04 #@! TA.AperFunction,ComponentPad*
%ADD18R,1.600000X1.600000*%
G04 #@! TD*
G04 #@! TA.AperFunction,ComponentPad*
%ADD19RoundRect,0.250001X-0.499999X0.499999X-0.499999X-0.499999X0.499999X-0.499999X0.499999X0.499999X0*%
G04 #@! TD*
G04 #@! TA.AperFunction,ComponentPad*
%ADD20C,1.500000*%
G04 #@! TD*
G04 #@! TA.AperFunction,ComponentPad*
%ADD21R,2.400000X1.600000*%
G04 #@! TD*
G04 #@! TA.AperFunction,ComponentPad*
%ADD22O,2.400000X1.600000*%
G04 #@! TD*
G04 #@! TA.AperFunction,ComponentPad*
%ADD23R,1.500000X1.050000*%
G04 #@! TD*
G04 #@! TA.AperFunction,ComponentPad*
%ADD24O,1.500000X1.050000*%
G04 #@! TD*
G04 #@! TA.AperFunction,ComponentPad*
%ADD25R,1.800000X1.714500*%
G04 #@! TD*
G04 #@! TA.AperFunction,ComponentPad*
%ADD26O,1.800000X1.714500*%
G04 #@! TD*
G04 #@! TA.AperFunction,SMDPad,CuDef*
%ADD27FreePoly0,270.000000*%
G04 #@! TD*
G04 #@! TA.AperFunction,SMDPad,CuDef*
%ADD28FreePoly1,270.000000*%
G04 #@! TD*
G04 #@! TA.AperFunction,ViaPad*
%ADD29C,0.800000*%
G04 #@! TD*
G04 #@! TA.AperFunction,Conductor*
%ADD30C,0.800000*%
G04 #@! TD*
G04 #@! TA.AperFunction,Conductor*
%ADD31C,0.400000*%
G04 #@! TD*
G04 #@! TA.AperFunction,Conductor*
%ADD32C,1.000000*%
G04 #@! TD*
G04 #@! TA.AperFunction,Conductor*
%ADD33C,0.250000*%
G04 #@! TD*
G04 APERTURE END LIST*
D10*
X139446000Y-102108000D03*
D11*
X139446000Y-91948000D03*
D12*
X135612000Y-99822000D03*
D13*
X133072000Y-99822000D03*
D14*
X144526000Y-63352000D03*
D15*
X145796000Y-63352000D03*
X147066000Y-63352000D03*
D16*
X146812000Y-70612000D03*
D17*
X136652000Y-70612000D03*
D16*
X125476000Y-62230000D03*
D17*
X125476000Y-64770000D03*
D16*
X142748000Y-92202000D03*
D17*
X142748000Y-102362000D03*
D16*
X149860000Y-69371000D03*
D17*
X149860000Y-66831000D03*
D14*
X138938000Y-63352000D03*
D15*
X140208000Y-63352000D03*
X141478000Y-63352000D03*
D16*
X128954000Y-67818000D03*
D17*
X126414000Y-67818000D03*
D16*
X121637000Y-67818000D03*
D17*
X124177000Y-67818000D03*
D18*
X133614000Y-80782000D03*
D17*
X133614000Y-83322000D03*
X133614000Y-85862000D03*
X133614000Y-88402000D03*
X141234000Y-88402000D03*
X141234000Y-85862000D03*
X141234000Y-83322000D03*
X141234000Y-80782000D03*
D14*
X153162000Y-71988000D03*
D15*
X154432000Y-71988000D03*
X155702000Y-71988000D03*
D19*
X153879000Y-78510000D03*
D20*
X153879000Y-81510000D03*
X150879000Y-78510000D03*
X150879000Y-81510000D03*
D14*
X159004000Y-71988000D03*
D15*
X160274000Y-71988000D03*
X161544000Y-71988000D03*
D12*
X122637000Y-71882000D03*
D13*
X125177000Y-71882000D03*
D16*
X146812000Y-77216000D03*
D17*
X136652000Y-77216000D03*
D21*
X121676000Y-76210000D03*
D22*
X121676000Y-78750000D03*
X121676000Y-81290000D03*
X121676000Y-83830000D03*
X129296000Y-83830000D03*
X129296000Y-81290000D03*
X129296000Y-78750000D03*
X129296000Y-76210000D03*
D16*
X157012000Y-100330000D03*
X162012000Y-100330000D03*
X149860000Y-74930000D03*
D17*
X149860000Y-72390000D03*
D16*
X129794000Y-99256000D03*
D17*
X129794000Y-101796000D03*
D23*
X125476000Y-87630000D03*
D24*
X125476000Y-88900000D03*
X125476000Y-90170000D03*
D19*
X153879000Y-89940000D03*
D20*
X153879000Y-92940000D03*
X150879000Y-89940000D03*
X150879000Y-92940000D03*
D14*
X128016000Y-72136000D03*
D15*
X129286000Y-72136000D03*
X130556000Y-72136000D03*
D12*
X133345000Y-62992000D03*
D13*
X135885000Y-62992000D03*
D16*
X136652000Y-67310000D03*
D17*
X146812000Y-67310000D03*
D25*
X149606000Y-97536000D03*
D26*
X149606000Y-99822000D03*
X149606000Y-102108000D03*
D10*
X146558000Y-102108000D03*
D11*
X146558000Y-91948000D03*
D12*
X150617000Y-62992000D03*
D13*
X153157000Y-62992000D03*
D16*
X128464000Y-93980000D03*
D17*
X120964000Y-93980000D03*
D16*
X136652000Y-73914000D03*
D17*
X146812000Y-73914000D03*
D16*
X121920000Y-62201000D03*
D17*
X121920000Y-64741000D03*
D27*
X144780000Y-81646000D03*
D28*
X144780000Y-82946000D03*
D27*
X145034000Y-86472000D03*
D28*
X145034000Y-87772000D03*
D29*
X146558000Y-89408000D03*
X159766000Y-77216000D03*
X131064000Y-89916000D03*
X126492000Y-79248000D03*
X127000000Y-75692000D03*
X153924000Y-68072000D03*
X128524000Y-86360000D03*
X144780000Y-81534000D03*
X144780000Y-83058000D03*
D30*
X125476000Y-88900000D02*
X126176000Y-88900000D01*
D31*
X128016000Y-73914000D02*
X128016000Y-72136000D01*
X129296000Y-75194000D02*
X128016000Y-73914000D01*
D32*
X157012000Y-97830000D02*
X157012000Y-100330000D01*
D30*
X132324000Y-80782000D02*
X133614000Y-80782000D01*
X128464000Y-89214000D02*
X131826000Y-85852000D01*
X128464000Y-91188000D02*
X128464000Y-93980000D01*
D32*
X155194000Y-96012000D02*
X157012000Y-97830000D01*
D30*
X126176000Y-88900000D02*
X128464000Y-91188000D01*
X131826000Y-81280000D02*
X132324000Y-80782000D01*
D32*
X151130000Y-96012000D02*
X155194000Y-96012000D01*
X149606000Y-97536000D02*
X151130000Y-96012000D01*
D30*
X128464000Y-93980000D02*
X128464000Y-89214000D01*
X131826000Y-85852000D02*
X131826000Y-81280000D01*
D31*
X129296000Y-76210000D02*
X129296000Y-75194000D01*
D32*
X141732000Y-99822000D02*
X142748000Y-98806000D01*
X139446000Y-102108000D02*
X141732000Y-99822000D01*
X141732000Y-99822000D02*
X149606000Y-99822000D01*
X142748000Y-98806000D02*
X142748000Y-92202000D01*
D33*
X121676000Y-78750000D02*
X120151000Y-77225000D01*
X120151000Y-77225000D02*
X120151000Y-60697000D01*
X120650000Y-60198000D02*
X124968000Y-60198000D01*
X124968000Y-60198000D02*
X125476000Y-60706000D01*
X120151000Y-60697000D02*
X120650000Y-60198000D01*
X125476000Y-60706000D02*
X125476000Y-62230000D01*
X149860000Y-74930000D02*
X148590000Y-74930000D01*
X148590000Y-74930000D02*
X148082000Y-75438000D01*
X145542000Y-75438000D02*
X143002000Y-72898000D01*
X141478000Y-67310000D02*
X136652000Y-67310000D01*
X148082000Y-75438000D02*
X145542000Y-75438000D01*
X143002000Y-72898000D02*
X143002000Y-68834000D01*
X143002000Y-68834000D02*
X141478000Y-67310000D01*
D31*
X131318000Y-79756000D02*
X131318000Y-76454000D01*
D33*
X131318000Y-79756000D02*
X131318000Y-77978000D01*
X121412000Y-74422000D02*
X120904000Y-73914000D01*
D31*
X131318000Y-76454000D02*
X133858000Y-73914000D01*
D33*
X125984000Y-76454000D02*
X123952000Y-74422000D01*
D31*
X131026000Y-82100000D02*
X129296000Y-83830000D01*
D33*
X120904000Y-68551000D02*
X121637000Y-67818000D01*
D31*
X131026000Y-80048000D02*
X131026000Y-82100000D01*
X131318000Y-79756000D02*
X131026000Y-80048000D01*
D33*
X130810000Y-77470000D02*
X126238000Y-77470000D01*
X126238000Y-77470000D02*
X125984000Y-77216000D01*
D31*
X133858000Y-73914000D02*
X136652000Y-73914000D01*
D33*
X120904000Y-73914000D02*
X120904000Y-68551000D01*
X131318000Y-77978000D02*
X130810000Y-77470000D01*
X123952000Y-74422000D02*
X121412000Y-74422000D01*
X125984000Y-77216000D02*
X125984000Y-76454000D01*
D31*
X151609000Y-66831000D02*
X153162000Y-65278000D01*
X149860000Y-66831000D02*
X151609000Y-66831000D01*
X153162000Y-65278000D02*
X153162000Y-62997000D01*
X153162000Y-62997000D02*
X153157000Y-62992000D01*
X142494000Y-87122000D02*
X143256000Y-87884000D01*
X143256000Y-87884000D02*
X144922000Y-87884000D01*
X134874000Y-87122000D02*
X142494000Y-87122000D01*
X133614000Y-85862000D02*
X134874000Y-87122000D01*
X144922000Y-87884000D02*
X145034000Y-87772000D01*
X141234000Y-80782000D02*
X143022000Y-78994000D01*
X143022000Y-78994000D02*
X150395000Y-78994000D01*
X150395000Y-78994000D02*
X150879000Y-78510000D01*
X149352000Y-80010000D02*
X152379000Y-80010000D01*
X147828000Y-81534000D02*
X149352000Y-80010000D01*
X144780000Y-81534000D02*
X147828000Y-81534000D01*
X152379000Y-80010000D02*
X153879000Y-81510000D01*
X145034000Y-86472000D02*
X144384000Y-86472000D01*
X150879000Y-81510000D02*
X145917000Y-86472000D01*
X144384000Y-86472000D02*
X141234000Y-83322000D01*
X145917000Y-86472000D02*
X145034000Y-86472000D01*
X151638000Y-71120000D02*
X152400000Y-70358000D01*
X155448000Y-70358000D02*
X155702000Y-70612000D01*
X155702000Y-70866000D02*
X155702000Y-71988000D01*
X148844000Y-71120000D02*
X151638000Y-71120000D01*
X152400000Y-70358000D02*
X155448000Y-70358000D01*
X146812000Y-70612000D02*
X148336000Y-70612000D01*
X148336000Y-70612000D02*
X148844000Y-71120000D01*
X155702000Y-70612000D02*
X155702000Y-71988000D01*
D33*
X123052000Y-65873000D02*
X121920000Y-64741000D01*
X123052000Y-69757000D02*
X123052000Y-65873000D01*
X125177000Y-71882000D02*
X123052000Y-69757000D01*
D31*
X155956000Y-77470000D02*
X155956000Y-82804000D01*
X155956000Y-82804000D02*
X154686000Y-84074000D01*
X149606000Y-87122000D02*
X149606000Y-92202000D01*
X155448000Y-76962000D02*
X155956000Y-77470000D01*
X150344000Y-92940000D02*
X150879000Y-92940000D01*
X146812000Y-77216000D02*
X149606000Y-77216000D01*
X156972000Y-77470000D02*
X161544000Y-72898000D01*
X149860000Y-76962000D02*
X155448000Y-76962000D01*
X161544000Y-72898000D02*
X161544000Y-71988000D01*
X155956000Y-77470000D02*
X156972000Y-77470000D01*
X149606000Y-77216000D02*
X149860000Y-76962000D01*
X154686000Y-84074000D02*
X152654000Y-84074000D01*
X149606000Y-92202000D02*
X150344000Y-92940000D01*
X152654000Y-84074000D02*
X149606000Y-87122000D01*
X159682000Y-73730000D02*
X160274000Y-73138000D01*
X146996000Y-73730000D02*
X159682000Y-73730000D01*
X146812000Y-73914000D02*
X146996000Y-73730000D01*
X160274000Y-73138000D02*
X160274000Y-71988000D01*
D33*
X145542000Y-71628000D02*
X145542000Y-65532000D01*
X145542000Y-65532000D02*
X145796000Y-65278000D01*
X149860000Y-72390000D02*
X146304000Y-72390000D01*
X145796000Y-65278000D02*
X145796000Y-63352000D01*
X146304000Y-72390000D02*
X145542000Y-71628000D01*
D32*
X146304000Y-102362000D02*
X146558000Y-102108000D01*
X149606000Y-102108000D02*
X146558000Y-102108000D01*
X142748000Y-102362000D02*
X146304000Y-102362000D01*
D33*
X147680000Y-63352000D02*
X147066000Y-63352000D01*
X148336000Y-67847000D02*
X148336000Y-64008000D01*
X148336000Y-64008000D02*
X147680000Y-63352000D01*
X149860000Y-69371000D02*
X148336000Y-67847000D01*
X130556000Y-72136000D02*
X130556000Y-66802000D01*
X125155009Y-66040000D02*
X121920000Y-62804991D01*
X130556000Y-66802000D02*
X129794000Y-66040000D01*
X121920000Y-62804991D02*
X121920000Y-62201000D01*
X129794000Y-66040000D02*
X125155009Y-66040000D01*
G04 #@! TA.AperFunction,Conductor*
G36*
X156871491Y-81517999D02*
G01*
X156916811Y-81556027D01*
X157015550Y-81638879D01*
X157253764Y-81787731D01*
X157510375Y-81901982D01*
X157780390Y-81979407D01*
X157784740Y-81980018D01*
X157784743Y-81980019D01*
X157887690Y-81994487D01*
X158058552Y-82018500D01*
X158269146Y-82018500D01*
X158271332Y-82018347D01*
X158271336Y-82018347D01*
X158474827Y-82004118D01*
X158474832Y-82004117D01*
X158479212Y-82003811D01*
X158753970Y-81945409D01*
X158758099Y-81943906D01*
X158758103Y-81943905D01*
X159004000Y-81854406D01*
X159004000Y-89599832D01*
X158887625Y-89548018D01*
X158617610Y-89470593D01*
X158613260Y-89469982D01*
X158613257Y-89469981D01*
X158510310Y-89455513D01*
X158339448Y-89431500D01*
X158128854Y-89431500D01*
X158126668Y-89431653D01*
X158126664Y-89431653D01*
X157923173Y-89445882D01*
X157923168Y-89445883D01*
X157918788Y-89446189D01*
X157644030Y-89504591D01*
X157639901Y-89506094D01*
X157639897Y-89506095D01*
X157384219Y-89599154D01*
X157384215Y-89599156D01*
X157380074Y-89600663D01*
X157132058Y-89732536D01*
X157128499Y-89735122D01*
X157128497Y-89735123D01*
X157023895Y-89811121D01*
X156904808Y-89897642D01*
X156901644Y-89900698D01*
X156901641Y-89900700D01*
X156855275Y-89945475D01*
X156702748Y-90092769D01*
X156529812Y-90314118D01*
X156527616Y-90317922D01*
X156527611Y-90317929D01*
X156426189Y-90493598D01*
X156389364Y-90557381D01*
X156284138Y-90817824D01*
X156283073Y-90822097D01*
X156283072Y-90822099D01*
X156227959Y-91043146D01*
X156216183Y-91090376D01*
X156215724Y-91094744D01*
X156215723Y-91094749D01*
X156205870Y-91188498D01*
X156186822Y-91369733D01*
X156196625Y-91650458D01*
X156197387Y-91654781D01*
X156197388Y-91654788D01*
X156221164Y-91789624D01*
X156245402Y-91927087D01*
X156332203Y-92194235D01*
X156455340Y-92446702D01*
X156457795Y-92450341D01*
X156457798Y-92450347D01*
X156500217Y-92513235D01*
X156612415Y-92679576D01*
X156800371Y-92888322D01*
X157015550Y-93068879D01*
X157253764Y-93217731D01*
X157510375Y-93331982D01*
X157780390Y-93409407D01*
X157784740Y-93410018D01*
X157784743Y-93410019D01*
X157887690Y-93424487D01*
X158058552Y-93448500D01*
X158269146Y-93448500D01*
X158271332Y-93448347D01*
X158271336Y-93448347D01*
X158474827Y-93434118D01*
X158474832Y-93434117D01*
X158479212Y-93433811D01*
X158753970Y-93375409D01*
X158758099Y-93373906D01*
X158758103Y-93373905D01*
X159004000Y-93284406D01*
X159004000Y-97282000D01*
X157863927Y-97282000D01*
X157861892Y-97278074D01*
X157858569Y-97273911D01*
X157856066Y-97269204D01*
X157797245Y-97197082D01*
X157796554Y-97196226D01*
X157765262Y-97157027D01*
X157762758Y-97154523D01*
X157762116Y-97153805D01*
X157758415Y-97149472D01*
X157731065Y-97115938D01*
X157695737Y-97086712D01*
X157686958Y-97078723D01*
X155950855Y-95342621D01*
X155941753Y-95332478D01*
X155921897Y-95307782D01*
X155918032Y-95302975D01*
X155879578Y-95270708D01*
X155875931Y-95267528D01*
X155874119Y-95265885D01*
X155871925Y-95263691D01*
X155838651Y-95236358D01*
X155837853Y-95235696D01*
X155766526Y-95175846D01*
X155761856Y-95173278D01*
X155757739Y-95169897D01*
X155675914Y-95126023D01*
X155674755Y-95125394D01*
X155598619Y-95083538D01*
X155598611Y-95083535D01*
X155593213Y-95080567D01*
X155588131Y-95078955D01*
X155583437Y-95076438D01*
X155494469Y-95049238D01*
X155493441Y-95048918D01*
X155404694Y-95020765D01*
X155399398Y-95020171D01*
X155394302Y-95018613D01*
X155301743Y-95009210D01*
X155300607Y-95009089D01*
X155266992Y-95005319D01*
X155254270Y-95003892D01*
X155254266Y-95003892D01*
X155250773Y-95003500D01*
X155247246Y-95003500D01*
X155246261Y-95003445D01*
X155240581Y-95002998D01*
X155211175Y-95000011D01*
X155203663Y-94999248D01*
X155203661Y-94999248D01*
X155197538Y-94998626D01*
X155155259Y-95002623D01*
X155151891Y-95002941D01*
X155140033Y-95003500D01*
X151638000Y-95003500D01*
X151638000Y-93944887D01*
X151686527Y-93910908D01*
X151686529Y-93910906D01*
X151691038Y-93907749D01*
X151846749Y-93752038D01*
X151973056Y-93571653D01*
X151975379Y-93566671D01*
X151975382Y-93566666D01*
X152037189Y-93434118D01*
X152066120Y-93372076D01*
X152123115Y-93159371D01*
X152142307Y-92940000D01*
X152615693Y-92940000D01*
X152634885Y-93159371D01*
X152691880Y-93372076D01*
X152720811Y-93434118D01*
X152782618Y-93566666D01*
X152782621Y-93566671D01*
X152784944Y-93571653D01*
X152911251Y-93752038D01*
X153066962Y-93907749D01*
X153247346Y-94034056D01*
X153446924Y-94127120D01*
X153659629Y-94184115D01*
X153879000Y-94203307D01*
X154098371Y-94184115D01*
X154311076Y-94127120D01*
X154510654Y-94034056D01*
X154691038Y-93907749D01*
X154846749Y-93752038D01*
X154973056Y-93571653D01*
X154975379Y-93566671D01*
X154975382Y-93566666D01*
X155037189Y-93434118D01*
X155066120Y-93372076D01*
X155123115Y-93159371D01*
X155142307Y-92940000D01*
X155123115Y-92720629D01*
X155066120Y-92507924D01*
X155022585Y-92414562D01*
X154975382Y-92313334D01*
X154975379Y-92313329D01*
X154973056Y-92308347D01*
X154969899Y-92303838D01*
X154849908Y-92132473D01*
X154849906Y-92132470D01*
X154846749Y-92127962D01*
X154691038Y-91972251D01*
X154510654Y-91845944D01*
X154311076Y-91752880D01*
X154098371Y-91695885D01*
X153879000Y-91676693D01*
X153659629Y-91695885D01*
X153446924Y-91752880D01*
X153368126Y-91789624D01*
X153252334Y-91843618D01*
X153252329Y-91843621D01*
X153247347Y-91845944D01*
X153242840Y-91849100D01*
X153242838Y-91849101D01*
X153071473Y-91969092D01*
X153071470Y-91969094D01*
X153066962Y-91972251D01*
X152911251Y-92127962D01*
X152908094Y-92132470D01*
X152908092Y-92132473D01*
X152788101Y-92303838D01*
X152784944Y-92308347D01*
X152782621Y-92313329D01*
X152782618Y-92313334D01*
X152735415Y-92414562D01*
X152691880Y-92507924D01*
X152634885Y-92720629D01*
X152615693Y-92940000D01*
X152142307Y-92940000D01*
X152123115Y-92720629D01*
X152066120Y-92507924D01*
X152022585Y-92414562D01*
X151975382Y-92313334D01*
X151975379Y-92313329D01*
X151973056Y-92308347D01*
X151969899Y-92303838D01*
X151849908Y-92132473D01*
X151849906Y-92132470D01*
X151846749Y-92127962D01*
X151691038Y-91972251D01*
X151638000Y-91935113D01*
X151638000Y-90339789D01*
X151917391Y-90619180D01*
X151929161Y-90625607D01*
X151941176Y-90616311D01*
X151969466Y-90575907D01*
X151974946Y-90566417D01*
X152010394Y-90490400D01*
X152620500Y-90490400D01*
X152620837Y-90493646D01*
X152620837Y-90493650D01*
X152627450Y-90557381D01*
X152631474Y-90596165D01*
X152633655Y-90602701D01*
X152633655Y-90602703D01*
X152661367Y-90685765D01*
X152687450Y-90763945D01*
X152780522Y-90914348D01*
X152905697Y-91039305D01*
X152911927Y-91043145D01*
X152911928Y-91043146D01*
X153049090Y-91127694D01*
X153056262Y-91132115D01*
X153136005Y-91158564D01*
X153217611Y-91185632D01*
X153217613Y-91185632D01*
X153224139Y-91187797D01*
X153230975Y-91188497D01*
X153230978Y-91188498D01*
X153274031Y-91192909D01*
X153328600Y-91198500D01*
X154429400Y-91198500D01*
X154432646Y-91198163D01*
X154432650Y-91198163D01*
X154528307Y-91188238D01*
X154528311Y-91188237D01*
X154535165Y-91187526D01*
X154541701Y-91185345D01*
X154541703Y-91185345D01*
X154673805Y-91141272D01*
X154702945Y-91131550D01*
X154853348Y-91038478D01*
X154978305Y-90913303D01*
X155034524Y-90822099D01*
X155067275Y-90768968D01*
X155067276Y-90768966D01*
X155071115Y-90762738D01*
X155118731Y-90619180D01*
X155124632Y-90601389D01*
X155124632Y-90601387D01*
X155126797Y-90594861D01*
X155137500Y-90490400D01*
X155137500Y-89389600D01*
X155126526Y-89283835D01*
X155119090Y-89261545D01*
X155072868Y-89123003D01*
X155070550Y-89116055D01*
X154977478Y-88965652D01*
X154852303Y-88840695D01*
X154846072Y-88836854D01*
X154707968Y-88751725D01*
X154707966Y-88751724D01*
X154701738Y-88747885D01*
X154541254Y-88694655D01*
X154540389Y-88694368D01*
X154540387Y-88694368D01*
X154533861Y-88692203D01*
X154527025Y-88691503D01*
X154527022Y-88691502D01*
X154483969Y-88687091D01*
X154429400Y-88681500D01*
X153328600Y-88681500D01*
X153325354Y-88681837D01*
X153325350Y-88681837D01*
X153229693Y-88691762D01*
X153229689Y-88691763D01*
X153222835Y-88692474D01*
X153216299Y-88694655D01*
X153216297Y-88694655D01*
X153084195Y-88738728D01*
X153055055Y-88748450D01*
X152904652Y-88841522D01*
X152779695Y-88966697D01*
X152686885Y-89117262D01*
X152684581Y-89124209D01*
X152638596Y-89262851D01*
X152631203Y-89285139D01*
X152620500Y-89389600D01*
X152620500Y-90490400D01*
X152010394Y-90490400D01*
X152063326Y-90376887D01*
X152067072Y-90366595D01*
X152121196Y-90164599D01*
X152123099Y-90153804D01*
X152141326Y-89945475D01*
X152141326Y-89934525D01*
X152123099Y-89726196D01*
X152121196Y-89715401D01*
X152067072Y-89513405D01*
X152063326Y-89503113D01*
X151974946Y-89313583D01*
X151969466Y-89304093D01*
X151940589Y-89262851D01*
X151930113Y-89254477D01*
X151916666Y-89261545D01*
X151638000Y-89540211D01*
X151638000Y-86091970D01*
X152910565Y-84819405D01*
X152972877Y-84785379D01*
X152999660Y-84782500D01*
X154657088Y-84782500D01*
X154665658Y-84782792D01*
X154715776Y-84786209D01*
X154715780Y-84786209D01*
X154723352Y-84786725D01*
X154730829Y-84785420D01*
X154730830Y-84785420D01*
X154757308Y-84780799D01*
X154786303Y-84775738D01*
X154792821Y-84774777D01*
X154856242Y-84767102D01*
X154863343Y-84764419D01*
X154865952Y-84763778D01*
X154882262Y-84759315D01*
X154884798Y-84758550D01*
X154892284Y-84757243D01*
X154950800Y-84731556D01*
X154956904Y-84729065D01*
X155009548Y-84709173D01*
X155009549Y-84709172D01*
X155016656Y-84706487D01*
X155022919Y-84702183D01*
X155025285Y-84700946D01*
X155040097Y-84692701D01*
X155042351Y-84691368D01*
X155049305Y-84688315D01*
X155100002Y-84649413D01*
X155105332Y-84645541D01*
X155151720Y-84613661D01*
X155151725Y-84613656D01*
X155157981Y-84609357D01*
X155199436Y-84562829D01*
X155204416Y-84557554D01*
X156436528Y-83325443D01*
X156442793Y-83319589D01*
X156480664Y-83286552D01*
X156480665Y-83286551D01*
X156486385Y-83281561D01*
X156523136Y-83229271D01*
X156527028Y-83224029D01*
X156566476Y-83173718D01*
X156569600Y-83166799D01*
X156570988Y-83164507D01*
X156579357Y-83149835D01*
X156580622Y-83147475D01*
X156584990Y-83141261D01*
X156608203Y-83081723D01*
X156610759Y-83075642D01*
X156633918Y-83024352D01*
X156637045Y-83017427D01*
X156638430Y-83009954D01*
X156639234Y-83007388D01*
X156643855Y-82991165D01*
X156644520Y-82988573D01*
X156647282Y-82981491D01*
X156655622Y-82918139D01*
X156656654Y-82911623D01*
X156666911Y-82856281D01*
X156668295Y-82848814D01*
X156664709Y-82786620D01*
X156664500Y-82779367D01*
X156664500Y-81614521D01*
X156684502Y-81546400D01*
X156738158Y-81499907D01*
X156808432Y-81489803D01*
X156871491Y-81517999D01*
G37*
G04 #@! TD.AperFunction*
G04 #@! TA.AperFunction,Conductor*
G36*
X152240403Y-80873373D02*
G01*
X152595171Y-81228141D01*
X152629197Y-81290453D01*
X152631597Y-81328214D01*
X152615693Y-81510000D01*
X152634885Y-81729371D01*
X152691880Y-81942076D01*
X152720811Y-82004118D01*
X152782618Y-82136666D01*
X152782621Y-82136671D01*
X152784944Y-82141653D01*
X152911251Y-82322038D01*
X153066962Y-82477749D01*
X153071471Y-82480906D01*
X153071473Y-82480908D01*
X153146241Y-82533261D01*
X153247346Y-82604056D01*
X153446924Y-82697120D01*
X153659629Y-82754115D01*
X153879000Y-82773307D01*
X154098371Y-82754115D01*
X154311076Y-82697120D01*
X154510654Y-82604056D01*
X154611759Y-82533261D01*
X154686527Y-82480908D01*
X154686529Y-82480906D01*
X154691038Y-82477749D01*
X154846749Y-82322038D01*
X154973056Y-82141653D01*
X154975379Y-82136671D01*
X154975382Y-82136666D01*
X155007305Y-82068206D01*
X155054222Y-82014921D01*
X155122500Y-81995460D01*
X155190460Y-82016002D01*
X155236525Y-82070025D01*
X155247500Y-82121456D01*
X155247500Y-82458340D01*
X155227498Y-82526461D01*
X155210595Y-82547435D01*
X154429435Y-83328595D01*
X154367123Y-83362621D01*
X154340340Y-83365500D01*
X152682912Y-83365500D01*
X152674342Y-83365208D01*
X152624224Y-83361791D01*
X152624220Y-83361791D01*
X152616648Y-83361275D01*
X152609171Y-83362580D01*
X152609170Y-83362580D01*
X152582692Y-83367201D01*
X152553697Y-83372262D01*
X152547179Y-83373223D01*
X152483758Y-83380898D01*
X152476657Y-83383581D01*
X152474048Y-83384222D01*
X152457738Y-83388685D01*
X152455202Y-83389450D01*
X152447716Y-83390757D01*
X152440759Y-83393811D01*
X152389205Y-83416442D01*
X152383101Y-83418933D01*
X152323344Y-83441513D01*
X152317081Y-83445817D01*
X152314715Y-83447054D01*
X152299903Y-83455299D01*
X152297649Y-83456632D01*
X152290695Y-83459685D01*
X152239998Y-83498587D01*
X152234668Y-83502459D01*
X152188280Y-83534339D01*
X152188275Y-83534344D01*
X152182019Y-83538643D01*
X152176968Y-83544313D01*
X152176966Y-83544314D01*
X152140565Y-83585170D01*
X152135584Y-83590446D01*
X151638000Y-84088030D01*
X151638000Y-82514887D01*
X151686527Y-82480908D01*
X151686529Y-82480906D01*
X151691038Y-82477749D01*
X151846749Y-82322038D01*
X151973056Y-82141653D01*
X151975379Y-82136671D01*
X151975382Y-82136666D01*
X152037189Y-82004118D01*
X152066120Y-81942076D01*
X152123115Y-81729371D01*
X152142307Y-81510000D01*
X152123115Y-81290629D01*
X152066120Y-81077924D01*
X152037113Y-81015718D01*
X152026452Y-80945526D01*
X152055432Y-80880713D01*
X152114852Y-80841857D01*
X152185846Y-80841294D01*
X152240403Y-80873373D01*
G37*
G04 #@! TD.AperFunction*
G04 #@! TA.AperFunction,Conductor*
G36*
X155202208Y-79394363D02*
G01*
X155241707Y-79453357D01*
X155247500Y-79491122D01*
X155247500Y-80898544D01*
X155227498Y-80966665D01*
X155173842Y-81013158D01*
X155103568Y-81023262D01*
X155038988Y-80993768D01*
X155007305Y-80951794D01*
X154975382Y-80883334D01*
X154975379Y-80883329D01*
X154973056Y-80878347D01*
X154969573Y-80873373D01*
X154849908Y-80702473D01*
X154849906Y-80702470D01*
X154846749Y-80697962D01*
X154691038Y-80542251D01*
X154510654Y-80415944D01*
X154311076Y-80322880D01*
X154098371Y-80265885D01*
X153879000Y-80246693D01*
X153697216Y-80262597D01*
X153627613Y-80248608D01*
X153597141Y-80226171D01*
X153354565Y-79983595D01*
X153320539Y-79921283D01*
X153325604Y-79850468D01*
X153368151Y-79793632D01*
X153434671Y-79768821D01*
X153443660Y-79768500D01*
X154429400Y-79768500D01*
X154432646Y-79768163D01*
X154432650Y-79768163D01*
X154528307Y-79758238D01*
X154528311Y-79758237D01*
X154535165Y-79757526D01*
X154541701Y-79755345D01*
X154541703Y-79755345D01*
X154695997Y-79703868D01*
X154702945Y-79701550D01*
X154853348Y-79608478D01*
X154978305Y-79483303D01*
X155014240Y-79425006D01*
X155067013Y-79377513D01*
X155137084Y-79366089D01*
X155202208Y-79394363D01*
G37*
G04 #@! TD.AperFunction*
G04 #@! TA.AperFunction,Conductor*
G36*
X159004000Y-78169832D02*
G01*
X158887625Y-78118018D01*
X158686299Y-78060289D01*
X158621837Y-78041805D01*
X158621836Y-78041805D01*
X158617610Y-78040593D01*
X158613260Y-78039982D01*
X158613257Y-78039981D01*
X158510310Y-78025513D01*
X158339448Y-78001500D01*
X158128854Y-78001500D01*
X158126668Y-78001653D01*
X158126664Y-78001653D01*
X157923173Y-78015882D01*
X157923168Y-78015883D01*
X157918788Y-78016189D01*
X157711315Y-78060289D01*
X157640524Y-78054887D01*
X157583892Y-78012070D01*
X157559398Y-77945433D01*
X157574819Y-77876131D01*
X157596023Y-77847947D01*
X159004000Y-76439970D01*
X159004000Y-78169832D01*
G37*
G04 #@! TD.AperFunction*
G04 #@! TA.AperFunction,Conductor*
G36*
X155351676Y-68077467D02*
G01*
X155351678Y-68077468D01*
X155359800Y-68081281D01*
X155368667Y-68082662D01*
X155368668Y-68082662D01*
X155371353Y-68083080D01*
X155389017Y-68085830D01*
X155405732Y-68089613D01*
X155425466Y-68095515D01*
X155425472Y-68095516D01*
X155434066Y-68098086D01*
X155443037Y-68098141D01*
X155443038Y-68098141D01*
X155453097Y-68098202D01*
X155468506Y-68098296D01*
X155469289Y-68098329D01*
X155470386Y-68098500D01*
X155501377Y-68098500D01*
X155502147Y-68098502D01*
X155575785Y-68098952D01*
X155575786Y-68098952D01*
X155579721Y-68098976D01*
X155581065Y-68098592D01*
X155582410Y-68098500D01*
X159004000Y-68098500D01*
X159004000Y-70729500D01*
X158430866Y-70729500D01*
X158368684Y-70736255D01*
X158232295Y-70787385D01*
X158115739Y-70874739D01*
X158028385Y-70991295D01*
X157977255Y-71127684D01*
X157970500Y-71189866D01*
X157970500Y-72786134D01*
X157977255Y-72848316D01*
X157980029Y-72855716D01*
X157981856Y-72863400D01*
X157979297Y-72864008D01*
X157983542Y-72922092D01*
X157949613Y-72984457D01*
X157887354Y-73018579D01*
X157860380Y-73021500D01*
X156642993Y-73021500D01*
X156574872Y-73001498D01*
X156528379Y-72947842D01*
X156518275Y-72877568D01*
X156546470Y-72814510D01*
X156554923Y-72804436D01*
X156558881Y-72799719D01*
X156561845Y-72794327D01*
X156561848Y-72794323D01*
X156653556Y-72627506D01*
X156656523Y-72622109D01*
X156707767Y-72460566D01*
X156715944Y-72434789D01*
X156717807Y-72428916D01*
X156735500Y-72271183D01*
X156735500Y-71711996D01*
X156720723Y-71561287D01*
X156662142Y-71367258D01*
X156566990Y-71188302D01*
X156438890Y-71031237D01*
X156441220Y-71029337D01*
X156413379Y-70978351D01*
X156410500Y-70951568D01*
X156410500Y-70640912D01*
X156410792Y-70632342D01*
X156414209Y-70582224D01*
X156414209Y-70582220D01*
X156414725Y-70574648D01*
X156403739Y-70511703D01*
X156402777Y-70505182D01*
X156396015Y-70449304D01*
X156395102Y-70441758D01*
X156392416Y-70434650D01*
X156391779Y-70432056D01*
X156387318Y-70415750D01*
X156386548Y-70413199D01*
X156385242Y-70405716D01*
X156359561Y-70347212D01*
X156357069Y-70341105D01*
X156337173Y-70288452D01*
X156337173Y-70288451D01*
X156334487Y-70281344D01*
X156330184Y-70275083D01*
X156328947Y-70272717D01*
X156320720Y-70257937D01*
X156319369Y-70255652D01*
X156316315Y-70248695D01*
X156311695Y-70242675D01*
X156311692Y-70242669D01*
X156277421Y-70198009D01*
X156273541Y-70192668D01*
X156241661Y-70146280D01*
X156241656Y-70146275D01*
X156237357Y-70140019D01*
X156190829Y-70098564D01*
X156185554Y-70093584D01*
X155969450Y-69877480D01*
X155963596Y-69871215D01*
X155961812Y-69869170D01*
X155925561Y-69827615D01*
X155873280Y-69790871D01*
X155867986Y-69786939D01*
X155823693Y-69752209D01*
X155817718Y-69747524D01*
X155810802Y-69744401D01*
X155808516Y-69743017D01*
X155793835Y-69734643D01*
X155791475Y-69733378D01*
X155785261Y-69729010D01*
X155778182Y-69726250D01*
X155778180Y-69726249D01*
X155725725Y-69705798D01*
X155719656Y-69703247D01*
X155661427Y-69676955D01*
X155653960Y-69675571D01*
X155651405Y-69674770D01*
X155635152Y-69670141D01*
X155632572Y-69669478D01*
X155625491Y-69666718D01*
X155617960Y-69665727D01*
X155617958Y-69665726D01*
X155588339Y-69661827D01*
X155562139Y-69658378D01*
X155555641Y-69657348D01*
X155492814Y-69645704D01*
X155485234Y-69646141D01*
X155485233Y-69646141D01*
X155430608Y-69649291D01*
X155423354Y-69649500D01*
X152428927Y-69649500D01*
X152420358Y-69649208D01*
X152370225Y-69645790D01*
X152370221Y-69645790D01*
X152362648Y-69645274D01*
X152299681Y-69656264D01*
X152293169Y-69657224D01*
X152229758Y-69664898D01*
X152222657Y-69667581D01*
X152220048Y-69668222D01*
X152203715Y-69672691D01*
X152201195Y-69673452D01*
X152193717Y-69674757D01*
X152186765Y-69677809D01*
X152186764Y-69677809D01*
X152135204Y-69700441D01*
X152129099Y-69702932D01*
X152076456Y-69722825D01*
X152076452Y-69722827D01*
X152069344Y-69725513D01*
X152063083Y-69729816D01*
X152060717Y-69731053D01*
X152045937Y-69739280D01*
X152043652Y-69740631D01*
X152036695Y-69743685D01*
X152030675Y-69748305D01*
X152030669Y-69748308D01*
X151999542Y-69772194D01*
X151985998Y-69782587D01*
X151980668Y-69786459D01*
X151934280Y-69818339D01*
X151934275Y-69818344D01*
X151928019Y-69822643D01*
X151922968Y-69828313D01*
X151922966Y-69828314D01*
X151886565Y-69869170D01*
X151881584Y-69874446D01*
X151638000Y-70118030D01*
X151638000Y-68072000D01*
X155340032Y-68072000D01*
X155351676Y-68077467D01*
G37*
G04 #@! TD.AperFunction*
G04 #@! TA.AperFunction,Conductor*
G36*
X154943621Y-60118502D02*
G01*
X154990114Y-60172158D01*
X155001500Y-60224500D01*
X155001500Y-67581353D01*
X155001498Y-67582123D01*
X155001024Y-67659721D01*
X155003491Y-67668352D01*
X155009150Y-67688153D01*
X155012728Y-67704915D01*
X155016920Y-67734187D01*
X155020634Y-67742355D01*
X155020634Y-67742356D01*
X155027548Y-67757562D01*
X155033996Y-67775086D01*
X155041051Y-67799771D01*
X155045843Y-67807365D01*
X155045844Y-67807368D01*
X155056830Y-67824780D01*
X155064969Y-67839863D01*
X155077208Y-67866782D01*
X155083069Y-67873584D01*
X155093970Y-67886235D01*
X155105073Y-67901239D01*
X155118776Y-67922958D01*
X155125501Y-67928897D01*
X155125504Y-67928901D01*
X155140938Y-67942532D01*
X155152982Y-67954724D01*
X155166427Y-67970327D01*
X155166430Y-67970329D01*
X155172287Y-67977127D01*
X155179816Y-67982007D01*
X155179817Y-67982008D01*
X155193835Y-67991094D01*
X155208709Y-68002385D01*
X155221217Y-68013431D01*
X155227951Y-68019378D01*
X155254711Y-68031942D01*
X155269691Y-68040263D01*
X155286983Y-68051471D01*
X155286988Y-68051473D01*
X155294515Y-68056352D01*
X155303108Y-68058922D01*
X155303113Y-68058924D01*
X155319120Y-68063711D01*
X155336564Y-68070372D01*
X155340032Y-68072000D01*
X150413261Y-68072000D01*
X150425339Y-68032041D01*
X150477543Y-67986805D01*
X150511762Y-67970849D01*
X150511767Y-67970846D01*
X150516749Y-67968523D01*
X150673722Y-67858609D01*
X150699789Y-67840357D01*
X150699792Y-67840355D01*
X150704300Y-67837198D01*
X150866198Y-67675300D01*
X150871063Y-67668352D01*
X150923665Y-67593229D01*
X150979122Y-67548901D01*
X151026878Y-67539500D01*
X151580088Y-67539500D01*
X151588658Y-67539792D01*
X151638776Y-67543209D01*
X151638780Y-67543209D01*
X151646352Y-67543725D01*
X151653829Y-67542420D01*
X151653830Y-67542420D01*
X151680308Y-67537799D01*
X151709303Y-67532738D01*
X151715821Y-67531777D01*
X151779242Y-67524102D01*
X151786343Y-67521419D01*
X151788952Y-67520778D01*
X151805262Y-67516315D01*
X151807798Y-67515550D01*
X151815284Y-67514243D01*
X151873800Y-67488556D01*
X151879904Y-67486065D01*
X151932548Y-67466173D01*
X151932549Y-67466172D01*
X151939656Y-67463487D01*
X151945919Y-67459183D01*
X151948285Y-67457946D01*
X151963097Y-67449701D01*
X151965351Y-67448368D01*
X151972305Y-67445315D01*
X152023002Y-67406413D01*
X152028332Y-67402541D01*
X152074720Y-67370661D01*
X152074725Y-67370656D01*
X152080981Y-67366357D01*
X152122436Y-67319829D01*
X152127416Y-67314554D01*
X153642520Y-65799450D01*
X153648785Y-65793596D01*
X153663144Y-65781070D01*
X153692385Y-65755561D01*
X153729114Y-65703300D01*
X153733046Y-65698005D01*
X153735976Y-65694268D01*
X153772477Y-65647718D01*
X153775602Y-65640796D01*
X153776964Y-65638548D01*
X153785368Y-65623815D01*
X153786622Y-65621476D01*
X153790990Y-65615261D01*
X153793749Y-65608185D01*
X153793751Y-65608181D01*
X153814200Y-65555731D01*
X153816749Y-65549666D01*
X153843045Y-65491427D01*
X153844429Y-65483962D01*
X153845226Y-65481418D01*
X153849859Y-65465152D01*
X153850521Y-65462572D01*
X153853282Y-65455491D01*
X153861622Y-65392143D01*
X153862653Y-65385629D01*
X153867091Y-65361688D01*
X153874296Y-65322813D01*
X153870709Y-65260602D01*
X153870500Y-65253349D01*
X153870500Y-64278150D01*
X153890502Y-64210029D01*
X153923332Y-64175571D01*
X154065039Y-64074493D01*
X154065042Y-64074491D01*
X154069243Y-64071494D01*
X154233303Y-63908005D01*
X154368458Y-63719917D01*
X154374470Y-63707754D01*
X154468784Y-63516922D01*
X154468785Y-63516920D01*
X154471078Y-63512280D01*
X154538408Y-63290671D01*
X154568640Y-63061041D01*
X154570327Y-62992000D01*
X154562402Y-62895602D01*
X154551773Y-62766318D01*
X154551772Y-62766312D01*
X154551349Y-62761167D01*
X154498886Y-62552302D01*
X154496184Y-62541544D01*
X154496183Y-62541540D01*
X154494925Y-62536533D01*
X154472207Y-62484285D01*
X154404630Y-62328868D01*
X154404628Y-62328865D01*
X154402570Y-62324131D01*
X154276764Y-62129665D01*
X154258607Y-62109710D01*
X154195643Y-62040514D01*
X154120887Y-61958358D01*
X154116836Y-61955159D01*
X154116832Y-61955155D01*
X153943177Y-61818011D01*
X153943172Y-61818008D01*
X153939123Y-61814810D01*
X153934607Y-61812317D01*
X153934604Y-61812315D01*
X153740879Y-61705373D01*
X153740875Y-61705371D01*
X153736355Y-61702876D01*
X153731486Y-61701152D01*
X153731482Y-61701150D01*
X153522903Y-61627288D01*
X153522899Y-61627287D01*
X153518028Y-61625562D01*
X153512935Y-61624655D01*
X153512932Y-61624654D01*
X153295095Y-61585851D01*
X153295089Y-61585850D01*
X153290006Y-61584945D01*
X153212644Y-61584000D01*
X153063581Y-61582179D01*
X153063579Y-61582179D01*
X153058411Y-61582116D01*
X152829464Y-61617150D01*
X152609314Y-61689106D01*
X152604726Y-61691494D01*
X152604722Y-61691496D01*
X152408461Y-61793663D01*
X152403872Y-61796052D01*
X152399739Y-61799155D01*
X152399736Y-61799157D01*
X152222790Y-61932012D01*
X152218655Y-61935117D01*
X152215083Y-61938855D01*
X152200787Y-61953815D01*
X152139263Y-61989245D01*
X152068351Y-61985788D01*
X152010564Y-61944543D01*
X151991711Y-61910994D01*
X151970324Y-61853946D01*
X151961786Y-61838351D01*
X151885285Y-61736276D01*
X151872724Y-61723715D01*
X151770649Y-61647214D01*
X151755054Y-61638676D01*
X151634606Y-61593522D01*
X151619351Y-61589895D01*
X151568486Y-61584369D01*
X151561672Y-61584000D01*
X150889115Y-61584000D01*
X150873876Y-61588475D01*
X150872671Y-61589865D01*
X150871000Y-61597548D01*
X150871000Y-64381884D01*
X150875475Y-64397123D01*
X150876865Y-64398328D01*
X150884548Y-64399999D01*
X151561669Y-64399999D01*
X151568490Y-64399629D01*
X151619352Y-64394105D01*
X151634604Y-64390479D01*
X151755054Y-64345324D01*
X151770649Y-64336786D01*
X151872724Y-64260285D01*
X151885285Y-64247724D01*
X151961786Y-64145649D01*
X151970324Y-64130054D01*
X151991773Y-64072840D01*
X152034415Y-64016075D01*
X152100977Y-63991376D01*
X152170325Y-64006584D01*
X152190240Y-64020126D01*
X152255726Y-64074493D01*
X152346349Y-64149730D01*
X152391072Y-64175864D01*
X152439794Y-64227502D01*
X152453500Y-64284651D01*
X152453500Y-64932339D01*
X152433498Y-65000460D01*
X152416595Y-65021434D01*
X151352435Y-66085595D01*
X151290123Y-66119620D01*
X151263340Y-66122500D01*
X151026878Y-66122500D01*
X150958757Y-66102498D01*
X150923665Y-66068771D01*
X150869357Y-65991211D01*
X150869355Y-65991208D01*
X150866198Y-65986700D01*
X150704300Y-65824802D01*
X150699792Y-65821645D01*
X150699789Y-65821643D01*
X150621611Y-65766902D01*
X150516749Y-65693477D01*
X150511767Y-65691154D01*
X150511762Y-65691151D01*
X150314225Y-65599039D01*
X150314224Y-65599039D01*
X150309243Y-65596716D01*
X150303935Y-65595294D01*
X150303933Y-65595293D01*
X150093402Y-65538881D01*
X150093400Y-65538881D01*
X150088087Y-65537457D01*
X149860000Y-65517502D01*
X149631913Y-65537457D01*
X149626600Y-65538881D01*
X149626598Y-65538881D01*
X149416067Y-65595293D01*
X149416065Y-65595294D01*
X149410757Y-65596716D01*
X149405776Y-65599039D01*
X149405775Y-65599039D01*
X149208238Y-65691151D01*
X149208233Y-65691154D01*
X149203251Y-65693477D01*
X149178247Y-65710985D01*
X149167770Y-65718321D01*
X149100496Y-65741008D01*
X149031636Y-65723723D01*
X148983052Y-65671952D01*
X148969500Y-65615107D01*
X148969500Y-64086767D01*
X148970027Y-64075584D01*
X148971702Y-64068091D01*
X148971042Y-64047088D01*
X148988895Y-63978372D01*
X149011766Y-63957261D01*
X149000489Y-63952111D01*
X148994183Y-63942267D01*
X149169081Y-63942267D01*
X149176461Y-63945361D01*
X149215606Y-64002260D01*
X149215748Y-64002207D01*
X149215962Y-64002778D01*
X149216701Y-64003852D01*
X149217728Y-64007488D01*
X149263676Y-64130054D01*
X149272214Y-64145649D01*
X149348715Y-64247724D01*
X149361276Y-64260285D01*
X149463351Y-64336786D01*
X149478946Y-64345324D01*
X149599394Y-64390478D01*
X149614649Y-64394105D01*
X149665514Y-64399631D01*
X149672328Y-64400000D01*
X150344885Y-64400000D01*
X150360124Y-64395525D01*
X150361329Y-64394135D01*
X150363000Y-64386452D01*
X150363000Y-63264115D01*
X150358525Y-63248876D01*
X150357135Y-63247671D01*
X150349452Y-63246000D01*
X149227116Y-63246000D01*
X149211877Y-63250475D01*
X149210672Y-63251865D01*
X149209001Y-63259548D01*
X149209001Y-63856887D01*
X149188999Y-63925008D01*
X149169081Y-63942267D01*
X148994183Y-63942267D01*
X148962001Y-63892029D01*
X148961018Y-63888645D01*
X148957014Y-63869306D01*
X148955467Y-63857063D01*
X148954474Y-63849203D01*
X148951556Y-63841832D01*
X148938200Y-63808097D01*
X148934355Y-63796870D01*
X148931428Y-63786795D01*
X148922018Y-63754407D01*
X148911707Y-63736972D01*
X148903012Y-63719224D01*
X148895552Y-63700383D01*
X148869564Y-63664613D01*
X148863048Y-63654693D01*
X148844580Y-63623465D01*
X148844578Y-63623462D01*
X148840542Y-63616638D01*
X148826221Y-63602317D01*
X148813380Y-63587283D01*
X148806132Y-63577307D01*
X148801472Y-63570893D01*
X148767407Y-63542712D01*
X148758626Y-63534722D01*
X148183647Y-62959742D01*
X148176113Y-62951463D01*
X148172000Y-62944982D01*
X148122348Y-62898356D01*
X148119507Y-62895602D01*
X148099770Y-62875865D01*
X148096573Y-62873386D01*
X148087547Y-62865676D01*
X148083093Y-62861493D01*
X148048728Y-62806066D01*
X148033659Y-62756156D01*
X148026142Y-62731258D01*
X148020095Y-62719885D01*
X149209000Y-62719885D01*
X149213475Y-62735124D01*
X149214865Y-62736329D01*
X149222548Y-62738000D01*
X150344885Y-62738000D01*
X150360124Y-62733525D01*
X150361329Y-62732135D01*
X150363000Y-62724452D01*
X150363000Y-61602116D01*
X150358525Y-61586877D01*
X150357135Y-61585672D01*
X150349452Y-61584001D01*
X149672331Y-61584001D01*
X149665510Y-61584371D01*
X149614648Y-61589895D01*
X149599396Y-61593521D01*
X149478946Y-61638676D01*
X149463351Y-61647214D01*
X149361276Y-61723715D01*
X149348715Y-61736276D01*
X149272214Y-61838351D01*
X149263676Y-61853946D01*
X149218522Y-61974394D01*
X149214895Y-61989649D01*
X149209369Y-62040514D01*
X149209000Y-62047328D01*
X149209000Y-62719885D01*
X148020095Y-62719885D01*
X147930990Y-62552302D01*
X147914267Y-62531797D01*
X147806785Y-62400013D01*
X147802890Y-62395237D01*
X147764772Y-62363703D01*
X147651472Y-62269973D01*
X147651469Y-62269971D01*
X147646722Y-62266044D01*
X147468435Y-62169644D01*
X147339284Y-62129665D01*
X147280707Y-62111532D01*
X147280704Y-62111531D01*
X147274820Y-62109710D01*
X147268695Y-62109066D01*
X147268694Y-62109066D01*
X147079378Y-62089168D01*
X147079377Y-62089168D01*
X147073250Y-62088524D01*
X146989986Y-62096102D01*
X146877543Y-62106335D01*
X146877540Y-62106336D01*
X146871404Y-62106894D01*
X146865498Y-62108632D01*
X146865494Y-62108633D01*
X146730947Y-62148233D01*
X146676971Y-62164119D01*
X146671514Y-62166972D01*
X146671511Y-62166973D01*
X146587163Y-62211069D01*
X146497540Y-62257923D01*
X146497538Y-62257923D01*
X146497355Y-62258019D01*
X146497337Y-62257984D01*
X146431559Y-62277889D01*
X146370591Y-62262729D01*
X146361815Y-62257984D01*
X146198435Y-62169644D01*
X146069284Y-62129665D01*
X146010707Y-62111532D01*
X146010704Y-62111531D01*
X146004820Y-62109710D01*
X145998695Y-62109066D01*
X145998694Y-62109066D01*
X145809378Y-62089168D01*
X145809377Y-62089168D01*
X145803250Y-62088524D01*
X145719986Y-62096102D01*
X145607543Y-62106335D01*
X145607540Y-62106336D01*
X145601404Y-62106894D01*
X145595498Y-62108632D01*
X145595494Y-62108633D01*
X145412879Y-62162380D01*
X145412877Y-62162381D01*
X145411493Y-62162788D01*
X145406971Y-62164119D01*
X145406718Y-62163260D01*
X145341338Y-62169714D01*
X145304594Y-62156548D01*
X145297705Y-62151385D01*
X145289304Y-62148236D01*
X145289301Y-62148234D01*
X145177534Y-62106335D01*
X145161316Y-62100255D01*
X145099134Y-62093500D01*
X143952866Y-62093500D01*
X143890684Y-62100255D01*
X143754295Y-62151385D01*
X143637739Y-62238739D01*
X143550385Y-62355295D01*
X143499255Y-62491684D01*
X143492500Y-62553866D01*
X143492500Y-64150134D01*
X143499255Y-64212316D01*
X143550385Y-64348705D01*
X143637739Y-64465261D01*
X143754295Y-64552615D01*
X143890684Y-64603745D01*
X143952866Y-64610500D01*
X145036500Y-64610500D01*
X145104621Y-64630502D01*
X145151114Y-64684158D01*
X145162500Y-64736500D01*
X145162500Y-64960809D01*
X145142498Y-65028930D01*
X145128351Y-65047061D01*
X145088358Y-65089650D01*
X145085602Y-65092493D01*
X145065865Y-65112230D01*
X145063385Y-65115427D01*
X145055682Y-65124447D01*
X145025414Y-65156679D01*
X145021595Y-65163625D01*
X145021593Y-65163628D01*
X145015652Y-65174434D01*
X145004801Y-65190953D01*
X144992386Y-65206959D01*
X144989241Y-65214228D01*
X144989238Y-65214232D01*
X144974826Y-65247537D01*
X144969609Y-65258187D01*
X144948305Y-65296940D01*
X144946334Y-65304615D01*
X144946334Y-65304616D01*
X144943267Y-65316562D01*
X144936863Y-65335266D01*
X144928819Y-65353855D01*
X144927580Y-65361678D01*
X144927577Y-65361688D01*
X144921901Y-65397524D01*
X144919495Y-65409144D01*
X144908500Y-65451970D01*
X144908500Y-65472224D01*
X144906949Y-65491934D01*
X144903780Y-65511943D01*
X144904526Y-65519835D01*
X144907941Y-65555961D01*
X144908500Y-65567819D01*
X144908500Y-68072000D01*
X143135905Y-68072000D01*
X141981652Y-66917747D01*
X141974112Y-66909461D01*
X141970000Y-66902982D01*
X141920348Y-66856356D01*
X141917507Y-66853602D01*
X141897770Y-66833865D01*
X141894573Y-66831385D01*
X141885551Y-66823680D01*
X141859100Y-66798841D01*
X141853321Y-66793414D01*
X141846375Y-66789595D01*
X141846372Y-66789593D01*
X141835566Y-66783652D01*
X141819047Y-66772801D01*
X141818583Y-66772441D01*
X141803041Y-66760386D01*
X141795772Y-66757241D01*
X141795768Y-66757238D01*
X141762463Y-66742826D01*
X141751813Y-66737609D01*
X141713060Y-66716305D01*
X141693437Y-66711267D01*
X141674734Y-66704863D01*
X141663420Y-66699967D01*
X141663419Y-66699967D01*
X141656145Y-66696819D01*
X141648322Y-66695580D01*
X141648312Y-66695577D01*
X141612476Y-66689901D01*
X141600856Y-66687495D01*
X141565711Y-66678472D01*
X141565710Y-66678472D01*
X141558030Y-66676500D01*
X141537776Y-66676500D01*
X141518065Y-66674949D01*
X141505886Y-66673020D01*
X141498057Y-66671780D01*
X141490165Y-66672526D01*
X141454039Y-66675941D01*
X141442181Y-66676500D01*
X137871394Y-66676500D01*
X137803273Y-66656498D01*
X137768181Y-66622771D01*
X137661357Y-66470211D01*
X137661355Y-66470208D01*
X137658198Y-66465700D01*
X137496300Y-66303802D01*
X137491792Y-66300645D01*
X137491789Y-66300643D01*
X137413611Y-66245902D01*
X137308749Y-66172477D01*
X137303767Y-66170154D01*
X137303762Y-66170151D01*
X137106225Y-66078039D01*
X137106224Y-66078039D01*
X137101243Y-66075716D01*
X137095935Y-66074294D01*
X137095933Y-66074293D01*
X136885402Y-66017881D01*
X136885400Y-66017881D01*
X136880087Y-66016457D01*
X136652000Y-65996502D01*
X136423913Y-66016457D01*
X136418600Y-66017881D01*
X136418598Y-66017881D01*
X136208067Y-66074293D01*
X136208065Y-66074294D01*
X136202757Y-66075716D01*
X136197776Y-66078039D01*
X136197775Y-66078039D01*
X136000238Y-66170151D01*
X136000233Y-66170154D01*
X135995251Y-66172477D01*
X135890389Y-66245902D01*
X135812211Y-66300643D01*
X135812208Y-66300645D01*
X135807700Y-66303802D01*
X135645802Y-66465700D01*
X135514477Y-66653251D01*
X135512154Y-66658233D01*
X135512151Y-66658238D01*
X135431409Y-66831392D01*
X135417716Y-66860757D01*
X135358457Y-67081913D01*
X135338502Y-67310000D01*
X135358457Y-67538087D01*
X135359881Y-67543400D01*
X135359881Y-67543402D01*
X135396268Y-67679197D01*
X135417716Y-67759243D01*
X135420039Y-67764224D01*
X135420039Y-67764225D01*
X135512151Y-67961762D01*
X135512154Y-67961767D01*
X135514477Y-67966749D01*
X135588175Y-68072000D01*
X131764000Y-68072000D01*
X131764000Y-66033150D01*
X131786782Y-66022792D01*
X131806235Y-66006030D01*
X131821239Y-65994927D01*
X131842958Y-65981224D01*
X131848897Y-65974499D01*
X131848901Y-65974496D01*
X131862532Y-65959062D01*
X131874724Y-65947018D01*
X131890327Y-65933573D01*
X131890329Y-65933570D01*
X131897127Y-65927713D01*
X131911094Y-65906165D01*
X131922385Y-65891291D01*
X131933431Y-65878783D01*
X131933432Y-65878782D01*
X131939378Y-65872049D01*
X131951943Y-65845287D01*
X131960263Y-65830309D01*
X131971471Y-65813017D01*
X131971473Y-65813012D01*
X131976352Y-65805485D01*
X131978922Y-65796892D01*
X131978924Y-65796887D01*
X131983711Y-65780880D01*
X131990372Y-65763436D01*
X131997467Y-65748324D01*
X131997468Y-65748322D01*
X132001281Y-65740200D01*
X132005830Y-65710983D01*
X132009613Y-65694268D01*
X132015515Y-65674534D01*
X132015516Y-65674528D01*
X132018086Y-65665934D01*
X132018296Y-65631494D01*
X132018329Y-65630711D01*
X132018500Y-65629614D01*
X132018500Y-65598623D01*
X132018502Y-65597853D01*
X132018952Y-65524215D01*
X132018952Y-65524214D01*
X132018976Y-65520279D01*
X132018592Y-65518935D01*
X132018500Y-65517590D01*
X132018500Y-64454784D01*
X132038502Y-64386663D01*
X132092158Y-64340170D01*
X132162432Y-64330066D01*
X132205011Y-64344265D01*
X132206944Y-64345323D01*
X132327394Y-64390478D01*
X132342649Y-64394105D01*
X132393514Y-64399631D01*
X132400328Y-64400000D01*
X133072885Y-64400000D01*
X133088124Y-64395525D01*
X133089329Y-64394135D01*
X133091000Y-64386452D01*
X133091000Y-64381884D01*
X133599000Y-64381884D01*
X133603475Y-64397123D01*
X133604865Y-64398328D01*
X133612548Y-64399999D01*
X134289669Y-64399999D01*
X134296490Y-64399629D01*
X134347352Y-64394105D01*
X134362604Y-64390479D01*
X134483054Y-64345324D01*
X134498649Y-64336786D01*
X134600724Y-64260285D01*
X134613285Y-64247724D01*
X134689786Y-64145649D01*
X134698324Y-64130054D01*
X134719773Y-64072840D01*
X134762415Y-64016075D01*
X134828977Y-63991376D01*
X134898325Y-64006584D01*
X134918240Y-64020126D01*
X134983726Y-64074493D01*
X135074349Y-64149730D01*
X135274322Y-64266584D01*
X135490694Y-64349209D01*
X135495760Y-64350240D01*
X135495761Y-64350240D01*
X135523537Y-64355891D01*
X135717656Y-64395385D01*
X135848324Y-64400176D01*
X135943949Y-64403683D01*
X135943953Y-64403683D01*
X135949113Y-64403872D01*
X135954233Y-64403216D01*
X135954235Y-64403216D01*
X136035238Y-64392839D01*
X136178847Y-64374442D01*
X136183795Y-64372957D01*
X136183802Y-64372956D01*
X136395747Y-64309369D01*
X136400690Y-64307886D01*
X136481236Y-64268427D01*
X136604049Y-64208262D01*
X136604052Y-64208260D01*
X136608684Y-64205991D01*
X136686993Y-64150134D01*
X137904500Y-64150134D01*
X137911255Y-64212316D01*
X137962385Y-64348705D01*
X138049739Y-64465261D01*
X138166295Y-64552615D01*
X138302684Y-64603745D01*
X138364866Y-64610500D01*
X139511134Y-64610500D01*
X139573316Y-64603745D01*
X139614623Y-64588260D01*
X139701296Y-64555768D01*
X139701299Y-64555766D01*
X139709705Y-64552615D01*
X139716894Y-64547227D01*
X139717137Y-64547094D01*
X139786494Y-64531924D01*
X139814907Y-64537248D01*
X139999180Y-64594290D01*
X140005305Y-64594934D01*
X140005306Y-64594934D01*
X140194622Y-64614832D01*
X140194623Y-64614832D01*
X140200750Y-64615476D01*
X140284014Y-64607898D01*
X140396457Y-64597665D01*
X140396460Y-64597664D01*
X140402596Y-64597106D01*
X140408502Y-64595368D01*
X140408506Y-64595367D01*
X140553763Y-64552615D01*
X140597029Y-64539881D01*
X140602486Y-64537028D01*
X140602489Y-64537027D01*
X140739765Y-64465261D01*
X140776460Y-64446077D01*
X140776462Y-64446077D01*
X140776645Y-64445981D01*
X140776663Y-64446016D01*
X140842441Y-64426111D01*
X140903409Y-64441271D01*
X141075565Y-64534356D01*
X141144733Y-64555767D01*
X141263293Y-64592468D01*
X141263296Y-64592469D01*
X141269180Y-64594290D01*
X141275305Y-64594934D01*
X141275306Y-64594934D01*
X141464622Y-64614832D01*
X141464623Y-64614832D01*
X141470750Y-64615476D01*
X141554014Y-64607898D01*
X141666457Y-64597665D01*
X141666460Y-64597664D01*
X141672596Y-64597106D01*
X141678502Y-64595368D01*
X141678506Y-64595367D01*
X141823763Y-64552615D01*
X141867029Y-64539881D01*
X141872486Y-64537028D01*
X141872489Y-64537027D01*
X142009765Y-64465261D01*
X142046645Y-64445981D01*
X142204601Y-64318981D01*
X142334881Y-64163719D01*
X142337845Y-64158327D01*
X142337848Y-64158323D01*
X142429556Y-63991506D01*
X142432523Y-63986109D01*
X142493807Y-63792916D01*
X142511500Y-63635183D01*
X142511500Y-63075996D01*
X142496723Y-62925287D01*
X142438142Y-62731258D01*
X142342990Y-62552302D01*
X142326267Y-62531797D01*
X142218785Y-62400013D01*
X142214890Y-62395237D01*
X142176772Y-62363703D01*
X142063472Y-62269973D01*
X142063469Y-62269971D01*
X142058722Y-62266044D01*
X141880435Y-62169644D01*
X141751284Y-62129665D01*
X141692707Y-62111532D01*
X141692704Y-62111531D01*
X141686820Y-62109710D01*
X141680695Y-62109066D01*
X141680694Y-62109066D01*
X141491378Y-62089168D01*
X141491377Y-62089168D01*
X141485250Y-62088524D01*
X141401986Y-62096102D01*
X141289543Y-62106335D01*
X141289540Y-62106336D01*
X141283404Y-62106894D01*
X141277498Y-62108632D01*
X141277494Y-62108633D01*
X141142947Y-62148233D01*
X141088971Y-62164119D01*
X141083514Y-62166972D01*
X141083511Y-62166973D01*
X140999163Y-62211069D01*
X140909540Y-62257923D01*
X140909538Y-62257923D01*
X140909355Y-62258019D01*
X140909337Y-62257984D01*
X140843559Y-62277889D01*
X140782591Y-62262729D01*
X140773815Y-62257984D01*
X140610435Y-62169644D01*
X140481284Y-62129665D01*
X140422707Y-62111532D01*
X140422704Y-62111531D01*
X140416820Y-62109710D01*
X140410695Y-62109066D01*
X140410694Y-62109066D01*
X140221378Y-62089168D01*
X140221377Y-62089168D01*
X140215250Y-62088524D01*
X140131986Y-62096102D01*
X140019543Y-62106335D01*
X140019540Y-62106336D01*
X140013404Y-62106894D01*
X140007498Y-62108632D01*
X140007494Y-62108633D01*
X139824879Y-62162380D01*
X139824877Y-62162381D01*
X139823493Y-62162788D01*
X139818971Y-62164119D01*
X139818718Y-62163260D01*
X139753338Y-62169714D01*
X139716594Y-62156548D01*
X139709705Y-62151385D01*
X139701304Y-62148236D01*
X139701301Y-62148234D01*
X139589534Y-62106335D01*
X139573316Y-62100255D01*
X139511134Y-62093500D01*
X138364866Y-62093500D01*
X138302684Y-62100255D01*
X138166295Y-62151385D01*
X138049739Y-62238739D01*
X137962385Y-62355295D01*
X137911255Y-62491684D01*
X137904500Y-62553866D01*
X137904500Y-64150134D01*
X136686993Y-64150134D01*
X136797243Y-64071494D01*
X136961303Y-63908005D01*
X137096458Y-63719917D01*
X137102470Y-63707754D01*
X137196784Y-63516922D01*
X137196785Y-63516920D01*
X137199078Y-63512280D01*
X137266408Y-63290671D01*
X137296640Y-63061041D01*
X137298327Y-62992000D01*
X137290402Y-62895602D01*
X137279773Y-62766318D01*
X137279772Y-62766312D01*
X137279349Y-62761167D01*
X137226886Y-62552302D01*
X137224184Y-62541544D01*
X137224183Y-62541540D01*
X137222925Y-62536533D01*
X137200207Y-62484285D01*
X137132630Y-62328868D01*
X137132628Y-62328865D01*
X137130570Y-62324131D01*
X137004764Y-62129665D01*
X136986607Y-62109710D01*
X136923643Y-62040514D01*
X136848887Y-61958358D01*
X136844836Y-61955159D01*
X136844832Y-61955155D01*
X136671177Y-61818011D01*
X136671172Y-61818008D01*
X136667123Y-61814810D01*
X136662607Y-61812317D01*
X136662604Y-61812315D01*
X136468879Y-61705373D01*
X136468875Y-61705371D01*
X136464355Y-61702876D01*
X136459486Y-61701152D01*
X136459482Y-61701150D01*
X136250903Y-61627288D01*
X136250899Y-61627287D01*
X136246028Y-61625562D01*
X136240935Y-61624655D01*
X136240932Y-61624654D01*
X136023095Y-61585851D01*
X136023089Y-61585850D01*
X136018006Y-61584945D01*
X135940644Y-61584000D01*
X135791581Y-61582179D01*
X135791579Y-61582179D01*
X135786411Y-61582116D01*
X135557464Y-61617150D01*
X135337314Y-61689106D01*
X135332726Y-61691494D01*
X135332722Y-61691496D01*
X135136461Y-61793663D01*
X135131872Y-61796052D01*
X135127739Y-61799155D01*
X135127736Y-61799157D01*
X134950790Y-61932012D01*
X134946655Y-61935117D01*
X134943083Y-61938855D01*
X134928787Y-61953815D01*
X134867263Y-61989245D01*
X134796351Y-61985788D01*
X134738564Y-61944543D01*
X134719711Y-61910994D01*
X134698324Y-61853946D01*
X134689786Y-61838351D01*
X134613285Y-61736276D01*
X134600724Y-61723715D01*
X134498649Y-61647214D01*
X134483054Y-61638676D01*
X134362606Y-61593522D01*
X134347351Y-61589895D01*
X134296486Y-61584369D01*
X134289672Y-61584000D01*
X133617115Y-61584000D01*
X133601876Y-61588475D01*
X133600671Y-61589865D01*
X133599000Y-61597548D01*
X133599000Y-64381884D01*
X133091000Y-64381884D01*
X133091000Y-61602116D01*
X133086525Y-61586877D01*
X133085135Y-61585672D01*
X133077452Y-61584001D01*
X132400331Y-61584001D01*
X132393510Y-61584371D01*
X132342648Y-61589895D01*
X132327396Y-61593521D01*
X132206944Y-61638677D01*
X132205011Y-61639735D01*
X132202875Y-61640202D01*
X132198538Y-61641828D01*
X132198303Y-61641202D01*
X132135654Y-61654905D01*
X132069105Y-61630170D01*
X132026494Y-61573382D01*
X132018500Y-61529216D01*
X132018500Y-60224500D01*
X132038502Y-60156379D01*
X132092158Y-60109886D01*
X132144500Y-60098500D01*
X154875500Y-60098500D01*
X154943621Y-60118502D01*
G37*
G04 #@! TD.AperFunction*
G04 #@! TA.AperFunction,Conductor*
G36*
X141231527Y-67963502D02*
G01*
X141252501Y-67980405D01*
X141344096Y-68072000D01*
X137715825Y-68072000D01*
X137768181Y-67997229D01*
X137823639Y-67952901D01*
X137871394Y-67943500D01*
X141163406Y-67943500D01*
X141231527Y-67963502D01*
G37*
G04 #@! TD.AperFunction*
G04 #@! TA.AperFunction,Conductor*
G36*
X141739500Y-98336074D02*
G01*
X141719498Y-98404195D01*
X141702596Y-98425169D01*
X141059830Y-99067936D01*
X141050370Y-99076484D01*
X141022713Y-99099040D01*
X141022710Y-99099043D01*
X141017938Y-99102935D01*
X141014011Y-99107682D01*
X141014009Y-99107684D01*
X140988713Y-99138262D01*
X140980723Y-99147042D01*
X139665171Y-100462595D01*
X139602859Y-100496620D01*
X139576076Y-100499500D01*
X138297866Y-100499500D01*
X138235684Y-100506255D01*
X138099295Y-100557385D01*
X137982739Y-100644739D01*
X137895385Y-100761295D01*
X137844255Y-100897684D01*
X137837500Y-100959866D01*
X137837500Y-102955500D01*
X137817498Y-103023621D01*
X137763842Y-103070114D01*
X137711500Y-103081500D01*
X130639037Y-103081500D01*
X130570916Y-103061498D01*
X130524423Y-103007842D01*
X130514319Y-102937568D01*
X130543813Y-102872988D01*
X130566766Y-102852287D01*
X130633789Y-102805357D01*
X130633792Y-102805355D01*
X130638300Y-102802198D01*
X130800198Y-102640300D01*
X130811832Y-102623686D01*
X130928366Y-102457257D01*
X130931523Y-102452749D01*
X130933846Y-102447767D01*
X130933849Y-102447762D01*
X131025961Y-102250225D01*
X131025961Y-102250224D01*
X131028284Y-102245243D01*
X131087543Y-102024087D01*
X131107498Y-101796000D01*
X131087543Y-101567913D01*
X131082176Y-101547883D01*
X131029707Y-101352067D01*
X131029706Y-101352065D01*
X131028284Y-101346757D01*
X131016810Y-101322151D01*
X130933849Y-101144238D01*
X130933846Y-101144233D01*
X130931523Y-101139251D01*
X130830734Y-100995310D01*
X130803357Y-100956211D01*
X130803355Y-100956208D01*
X130800198Y-100951700D01*
X130638300Y-100789802D01*
X130633792Y-100786645D01*
X130633789Y-100786643D01*
X130470483Y-100672295D01*
X130450749Y-100658477D01*
X130445767Y-100656154D01*
X130445762Y-100656151D01*
X130411543Y-100640195D01*
X130358258Y-100593278D01*
X130338797Y-100525001D01*
X130359339Y-100457041D01*
X130411543Y-100411805D01*
X130445762Y-100395849D01*
X130445767Y-100395846D01*
X130450749Y-100393523D01*
X130555611Y-100320098D01*
X130633789Y-100265357D01*
X130633792Y-100265355D01*
X130638300Y-100262198D01*
X130800198Y-100100300D01*
X130813107Y-100081865D01*
X130928366Y-99917257D01*
X130931523Y-99912749D01*
X130933846Y-99907767D01*
X130933849Y-99907762D01*
X130989942Y-99787469D01*
X131659095Y-99787469D01*
X131672427Y-100018697D01*
X131673564Y-100023743D01*
X131673565Y-100023749D01*
X131688394Y-100089548D01*
X131723346Y-100244642D01*
X131725288Y-100249424D01*
X131725289Y-100249428D01*
X131782518Y-100390366D01*
X131810484Y-100459237D01*
X131852009Y-100526999D01*
X131928560Y-100651919D01*
X131931501Y-100656719D01*
X132083147Y-100831784D01*
X132207097Y-100934689D01*
X132254968Y-100974432D01*
X132261349Y-100979730D01*
X132461322Y-101096584D01*
X132677694Y-101179209D01*
X132682760Y-101180240D01*
X132682761Y-101180240D01*
X132735846Y-101191040D01*
X132904656Y-101225385D01*
X133035324Y-101230176D01*
X133130949Y-101233683D01*
X133130953Y-101233683D01*
X133136113Y-101233872D01*
X133141233Y-101233216D01*
X133141235Y-101233216D01*
X133240668Y-101220478D01*
X133365847Y-101204442D01*
X133370795Y-101202957D01*
X133370802Y-101202956D01*
X133582747Y-101139369D01*
X133587690Y-101137886D01*
X133603708Y-101130039D01*
X133791049Y-101038262D01*
X133791052Y-101038260D01*
X133795684Y-101035991D01*
X133984243Y-100901494D01*
X133987898Y-100897852D01*
X133987906Y-100897845D01*
X134029697Y-100856199D01*
X134092068Y-100822282D01*
X134162875Y-100827470D01*
X134219637Y-100870116D01*
X134236619Y-100901218D01*
X134258677Y-100960056D01*
X134267214Y-100975649D01*
X134343715Y-101077724D01*
X134356276Y-101090285D01*
X134458351Y-101166786D01*
X134473946Y-101175324D01*
X134594394Y-101220478D01*
X134609649Y-101224105D01*
X134660514Y-101229631D01*
X134667328Y-101230000D01*
X135339885Y-101230000D01*
X135355124Y-101225525D01*
X135356329Y-101224135D01*
X135358000Y-101216452D01*
X135358000Y-101211884D01*
X135866000Y-101211884D01*
X135870475Y-101227123D01*
X135871865Y-101228328D01*
X135879548Y-101229999D01*
X136556669Y-101229999D01*
X136563490Y-101229629D01*
X136614352Y-101224105D01*
X136629604Y-101220479D01*
X136750054Y-101175324D01*
X136765649Y-101166786D01*
X136867724Y-101090285D01*
X136880285Y-101077724D01*
X136956786Y-100975649D01*
X136965324Y-100960054D01*
X137010478Y-100839606D01*
X137014105Y-100824351D01*
X137019631Y-100773486D01*
X137020000Y-100766672D01*
X137020000Y-100094115D01*
X137015525Y-100078876D01*
X137014135Y-100077671D01*
X137006452Y-100076000D01*
X135884115Y-100076000D01*
X135868876Y-100080475D01*
X135867671Y-100081865D01*
X135866000Y-100089548D01*
X135866000Y-101211884D01*
X135358000Y-101211884D01*
X135358000Y-99549885D01*
X135866000Y-99549885D01*
X135870475Y-99565124D01*
X135871865Y-99566329D01*
X135879548Y-99568000D01*
X137001884Y-99568000D01*
X137017123Y-99563525D01*
X137018328Y-99562135D01*
X137019999Y-99554452D01*
X137019999Y-98877331D01*
X137019629Y-98870510D01*
X137014105Y-98819648D01*
X137010479Y-98804396D01*
X136965324Y-98683946D01*
X136956786Y-98668351D01*
X136880285Y-98566276D01*
X136867724Y-98553715D01*
X136765649Y-98477214D01*
X136750054Y-98468676D01*
X136629606Y-98423522D01*
X136614351Y-98419895D01*
X136563486Y-98414369D01*
X136556672Y-98414000D01*
X135884115Y-98414000D01*
X135868876Y-98418475D01*
X135867671Y-98419865D01*
X135866000Y-98427548D01*
X135866000Y-99549885D01*
X135358000Y-99549885D01*
X135358000Y-98432116D01*
X135353525Y-98416877D01*
X135352135Y-98415672D01*
X135344452Y-98414001D01*
X134667331Y-98414001D01*
X134660510Y-98414371D01*
X134609648Y-98419895D01*
X134594396Y-98423521D01*
X134473946Y-98468676D01*
X134458351Y-98477214D01*
X134356276Y-98553715D01*
X134343715Y-98566276D01*
X134267214Y-98668351D01*
X134258675Y-98683948D01*
X134237934Y-98739275D01*
X134195293Y-98796040D01*
X134128731Y-98820740D01*
X134059383Y-98805533D01*
X134036388Y-98788909D01*
X134035887Y-98788358D01*
X133973737Y-98739275D01*
X133858177Y-98648011D01*
X133858172Y-98648008D01*
X133854123Y-98644810D01*
X133849607Y-98642317D01*
X133849604Y-98642315D01*
X133655879Y-98535373D01*
X133655875Y-98535371D01*
X133651355Y-98532876D01*
X133646486Y-98531152D01*
X133646482Y-98531150D01*
X133437903Y-98457288D01*
X133437899Y-98457287D01*
X133433028Y-98455562D01*
X133427935Y-98454655D01*
X133427932Y-98454654D01*
X133210095Y-98415851D01*
X133210089Y-98415850D01*
X133205006Y-98414945D01*
X133127644Y-98414000D01*
X132978581Y-98412179D01*
X132978579Y-98412179D01*
X132973411Y-98412116D01*
X132744464Y-98447150D01*
X132524314Y-98519106D01*
X132519726Y-98521494D01*
X132519722Y-98521496D01*
X132379016Y-98594743D01*
X132318872Y-98626052D01*
X132314739Y-98629155D01*
X132314736Y-98629157D01*
X132168073Y-98739275D01*
X132133655Y-98765117D01*
X131973639Y-98932564D01*
X131843119Y-99123899D01*
X131745602Y-99333981D01*
X131683707Y-99557169D01*
X131659095Y-99787469D01*
X130989942Y-99787469D01*
X131025961Y-99710225D01*
X131025961Y-99710224D01*
X131028284Y-99705243D01*
X131065059Y-99568000D01*
X131086119Y-99489402D01*
X131086119Y-99489400D01*
X131087543Y-99484087D01*
X131107498Y-99256000D01*
X131087543Y-99027913D01*
X131049174Y-98884720D01*
X131029707Y-98812067D01*
X131029706Y-98812065D01*
X131028284Y-98806757D01*
X131022101Y-98793498D01*
X130933849Y-98604238D01*
X130933846Y-98604233D01*
X130931523Y-98599251D01*
X130826146Y-98448757D01*
X130803357Y-98416211D01*
X130803355Y-98416208D01*
X130800198Y-98411700D01*
X130638300Y-98249802D01*
X130633792Y-98246645D01*
X130633789Y-98246643D01*
X130555611Y-98191902D01*
X130450749Y-98118477D01*
X130445767Y-98116154D01*
X130445762Y-98116151D01*
X130248225Y-98024039D01*
X130248224Y-98024039D01*
X130243243Y-98021716D01*
X130237935Y-98020294D01*
X130237933Y-98020293D01*
X130027402Y-97963881D01*
X130027400Y-97963881D01*
X130022087Y-97962457D01*
X129794000Y-97942502D01*
X129565913Y-97962457D01*
X129560600Y-97963881D01*
X129560598Y-97963881D01*
X129350067Y-98020293D01*
X129350065Y-98020294D01*
X129344757Y-98021716D01*
X129339776Y-98024039D01*
X129339775Y-98024039D01*
X129142238Y-98116151D01*
X129142233Y-98116154D01*
X129137251Y-98118477D01*
X129032389Y-98191902D01*
X128954211Y-98246643D01*
X128954208Y-98246645D01*
X128949700Y-98249802D01*
X128787802Y-98411700D01*
X128784645Y-98416208D01*
X128784643Y-98416211D01*
X128761854Y-98448757D01*
X128656477Y-98599251D01*
X128654154Y-98604233D01*
X128654151Y-98604238D01*
X128565899Y-98793498D01*
X128559716Y-98806757D01*
X128558294Y-98812065D01*
X128558293Y-98812067D01*
X128538826Y-98884720D01*
X128500457Y-99027913D01*
X128480502Y-99256000D01*
X128500457Y-99484087D01*
X128501881Y-99489400D01*
X128501881Y-99489402D01*
X128522942Y-99568000D01*
X128559716Y-99705243D01*
X128562039Y-99710224D01*
X128562039Y-99710225D01*
X128654151Y-99907762D01*
X128654154Y-99907767D01*
X128656477Y-99912749D01*
X128659634Y-99917257D01*
X128774894Y-100081865D01*
X128787802Y-100100300D01*
X128949700Y-100262198D01*
X128954208Y-100265355D01*
X128954211Y-100265357D01*
X129032389Y-100320098D01*
X129137251Y-100393523D01*
X129142233Y-100395846D01*
X129142238Y-100395849D01*
X129176457Y-100411805D01*
X129229742Y-100458722D01*
X129249203Y-100526999D01*
X129228661Y-100594959D01*
X129176457Y-100640195D01*
X129142238Y-100656151D01*
X129142233Y-100656154D01*
X129137251Y-100658477D01*
X129117517Y-100672295D01*
X128954211Y-100786643D01*
X128954208Y-100786645D01*
X128949700Y-100789802D01*
X128787802Y-100951700D01*
X128784645Y-100956208D01*
X128784643Y-100956211D01*
X128757266Y-100995310D01*
X128656477Y-101139251D01*
X128654154Y-101144233D01*
X128654151Y-101144238D01*
X128571190Y-101322151D01*
X128559716Y-101346757D01*
X128558294Y-101352065D01*
X128558293Y-101352067D01*
X128505824Y-101547883D01*
X128500457Y-101567913D01*
X128480502Y-101796000D01*
X128500457Y-102024087D01*
X128559716Y-102245243D01*
X128562039Y-102250224D01*
X128562039Y-102250225D01*
X128654151Y-102447762D01*
X128654154Y-102447767D01*
X128656477Y-102452749D01*
X128659634Y-102457257D01*
X128776169Y-102623686D01*
X128787802Y-102640300D01*
X128949700Y-102802198D01*
X128954208Y-102805355D01*
X128954211Y-102805357D01*
X129021234Y-102852287D01*
X129065562Y-102907744D01*
X129072871Y-102978364D01*
X129040840Y-103041724D01*
X128979639Y-103077709D01*
X128948963Y-103081500D01*
X128144500Y-103081500D01*
X128076379Y-103061498D01*
X128029886Y-103007842D01*
X128018500Y-102955500D01*
X128018500Y-96098623D01*
X128018502Y-96097853D01*
X128018921Y-96029254D01*
X128018976Y-96020279D01*
X128010850Y-95991847D01*
X128007272Y-95975085D01*
X128004352Y-95954698D01*
X128003080Y-95945813D01*
X127992451Y-95922436D01*
X127986004Y-95904913D01*
X127981416Y-95888862D01*
X127978949Y-95880229D01*
X127974156Y-95872632D01*
X127963170Y-95855220D01*
X127955030Y-95840135D01*
X127942792Y-95813218D01*
X127926030Y-95793765D01*
X127914927Y-95778761D01*
X127901224Y-95757042D01*
X127894499Y-95751103D01*
X127894496Y-95751099D01*
X127879062Y-95737468D01*
X127867018Y-95725276D01*
X127853573Y-95709673D01*
X127853570Y-95709671D01*
X127847713Y-95702873D01*
X127826165Y-95688906D01*
X127811291Y-95677615D01*
X127798783Y-95666569D01*
X127798782Y-95666568D01*
X127792049Y-95660622D01*
X127765287Y-95648057D01*
X127762000Y-95646231D01*
X127762000Y-95085838D01*
X127807251Y-95117523D01*
X127812233Y-95119846D01*
X127812238Y-95119849D01*
X128009775Y-95211961D01*
X128014757Y-95214284D01*
X128020065Y-95215706D01*
X128020067Y-95215707D01*
X128230598Y-95272119D01*
X128230600Y-95272119D01*
X128235913Y-95273543D01*
X128464000Y-95293498D01*
X128692087Y-95273543D01*
X128697400Y-95272119D01*
X128697402Y-95272119D01*
X128907933Y-95215707D01*
X128907935Y-95215706D01*
X128913243Y-95214284D01*
X128918225Y-95211961D01*
X129115762Y-95119849D01*
X129115767Y-95119846D01*
X129120749Y-95117523D01*
X129224662Y-95044762D01*
X129294302Y-94996000D01*
X141739500Y-94996000D01*
X141739500Y-98336074D01*
G37*
G04 #@! TD.AperFunction*
G04 #@! TA.AperFunction,Conductor*
G36*
X151384000Y-95003500D02*
G01*
X151191840Y-95003500D01*
X151178232Y-95002763D01*
X151146736Y-94999341D01*
X151146732Y-94999341D01*
X151140611Y-94998676D01*
X151122611Y-95000251D01*
X151090609Y-95003050D01*
X151085784Y-95003379D01*
X151083313Y-95003500D01*
X151080231Y-95003500D01*
X151057763Y-95005703D01*
X151037489Y-95007691D01*
X151036174Y-95007813D01*
X151003913Y-95010636D01*
X150943587Y-95015913D01*
X150938468Y-95017400D01*
X150933167Y-95017920D01*
X150844133Y-95044801D01*
X150843000Y-95045136D01*
X150759578Y-95069373D01*
X150759574Y-95069375D01*
X150753663Y-95071092D01*
X150748934Y-95073543D01*
X150743831Y-95075084D01*
X150661669Y-95118770D01*
X150660627Y-95119317D01*
X150578074Y-95162108D01*
X150573911Y-95165431D01*
X150569204Y-95167934D01*
X150564430Y-95171828D01*
X150564428Y-95171829D01*
X150497105Y-95226737D01*
X150496160Y-95227500D01*
X150457027Y-95258739D01*
X150454536Y-95261230D01*
X150453809Y-95261880D01*
X150449463Y-95265592D01*
X150430588Y-95280987D01*
X150415938Y-95292935D01*
X150412015Y-95297677D01*
X150412013Y-95297679D01*
X150386703Y-95328273D01*
X150378713Y-95337053D01*
X149582421Y-96133345D01*
X149520109Y-96167371D01*
X149493326Y-96170250D01*
X148657866Y-96170250D01*
X148595684Y-96177005D01*
X148459295Y-96228135D01*
X148342739Y-96315489D01*
X148255385Y-96432045D01*
X148204255Y-96568434D01*
X148197500Y-96630616D01*
X148197500Y-98441384D01*
X148204255Y-98503566D01*
X148207029Y-98510965D01*
X148255385Y-98639955D01*
X148252786Y-98640929D01*
X148264907Y-98696347D01*
X148240172Y-98762895D01*
X148183384Y-98805506D01*
X148139218Y-98813500D01*
X143882500Y-98813500D01*
X143814379Y-98793498D01*
X143767886Y-98739842D01*
X143756500Y-98687500D01*
X143756500Y-94996000D01*
X151384000Y-94996000D01*
X151384000Y-95003500D01*
G37*
G04 #@! TD.AperFunction*
G04 #@! TA.AperFunction,Conductor*
G36*
X162943621Y-68118502D02*
G01*
X162990114Y-68172158D01*
X163001500Y-68224500D01*
X163001500Y-99184039D01*
X162981498Y-99252160D01*
X162927842Y-99298653D01*
X162857568Y-99308757D01*
X162803229Y-99287252D01*
X162673006Y-99196069D01*
X162663511Y-99190586D01*
X162466053Y-99098510D01*
X162455761Y-99094764D01*
X162245312Y-99038375D01*
X162234519Y-99036472D01*
X162017475Y-99017483D01*
X162006525Y-99017483D01*
X161789481Y-99036472D01*
X161778688Y-99038375D01*
X161568239Y-99094764D01*
X161557947Y-99098510D01*
X161360489Y-99190586D01*
X161350994Y-99196069D01*
X161298952Y-99232509D01*
X161290576Y-99242988D01*
X161297644Y-99256434D01*
X162282115Y-100240905D01*
X162316141Y-100303217D01*
X162311076Y-100374032D01*
X162282115Y-100419095D01*
X161296923Y-101404287D01*
X161290493Y-101416062D01*
X161299789Y-101428077D01*
X161350994Y-101463931D01*
X161360489Y-101469414D01*
X161557947Y-101561490D01*
X161568239Y-101565236D01*
X161778688Y-101621625D01*
X161789481Y-101623528D01*
X162006525Y-101642517D01*
X162017475Y-101642517D01*
X162234519Y-101623528D01*
X162245312Y-101621625D01*
X162455761Y-101565236D01*
X162466053Y-101561490D01*
X162663511Y-101469414D01*
X162673006Y-101463931D01*
X162803229Y-101372748D01*
X162870503Y-101350060D01*
X162939364Y-101367345D01*
X162987948Y-101419115D01*
X163001500Y-101475961D01*
X163001500Y-102955500D01*
X162981498Y-103023621D01*
X162927842Y-103070114D01*
X162875500Y-103081500D01*
X156144500Y-103081500D01*
X156076379Y-103061498D01*
X156029886Y-103007842D01*
X156018500Y-102955500D01*
X156018500Y-101473771D01*
X156038502Y-101405650D01*
X156092158Y-101359157D01*
X156162432Y-101349053D01*
X156216771Y-101370558D01*
X156355251Y-101467523D01*
X156360233Y-101469846D01*
X156360238Y-101469849D01*
X156556765Y-101561490D01*
X156562757Y-101564284D01*
X156568065Y-101565706D01*
X156568067Y-101565707D01*
X156778598Y-101622119D01*
X156778600Y-101622119D01*
X156783913Y-101623543D01*
X157012000Y-101643498D01*
X157240087Y-101623543D01*
X157245400Y-101622119D01*
X157245402Y-101622119D01*
X157455933Y-101565707D01*
X157455935Y-101565706D01*
X157461243Y-101564284D01*
X157467235Y-101561490D01*
X157663762Y-101469849D01*
X157663767Y-101469846D01*
X157668749Y-101467523D01*
X157773611Y-101394098D01*
X157851789Y-101339357D01*
X157851792Y-101339355D01*
X157856300Y-101336198D01*
X158018198Y-101174300D01*
X158149523Y-100986749D01*
X158151846Y-100981767D01*
X158151849Y-100981762D01*
X158243961Y-100784225D01*
X158243961Y-100784224D01*
X158246284Y-100779243D01*
X158305543Y-100558087D01*
X158325019Y-100335475D01*
X160699483Y-100335475D01*
X160718472Y-100552519D01*
X160720375Y-100563312D01*
X160776764Y-100773761D01*
X160780510Y-100784053D01*
X160872586Y-100981511D01*
X160878069Y-100991006D01*
X160914509Y-101043048D01*
X160924988Y-101051424D01*
X160938434Y-101044356D01*
X161639978Y-100342812D01*
X161647592Y-100328868D01*
X161647461Y-100327035D01*
X161643210Y-100320420D01*
X160937713Y-99614923D01*
X160925938Y-99608493D01*
X160913923Y-99617789D01*
X160878069Y-99668994D01*
X160872586Y-99678489D01*
X160780510Y-99875947D01*
X160776764Y-99886239D01*
X160720375Y-100096688D01*
X160718472Y-100107481D01*
X160699483Y-100324525D01*
X160699483Y-100335475D01*
X158325019Y-100335475D01*
X158325498Y-100330000D01*
X158305543Y-100101913D01*
X158246284Y-99880757D01*
X158151966Y-99678489D01*
X158151849Y-99678238D01*
X158151846Y-99678233D01*
X158149523Y-99673251D01*
X158043287Y-99521531D01*
X158020500Y-99449260D01*
X158020500Y-97891842D01*
X158021237Y-97878235D01*
X158024659Y-97846737D01*
X158024659Y-97846732D01*
X158025324Y-97840611D01*
X158020950Y-97790609D01*
X158020621Y-97785784D01*
X158020500Y-97783313D01*
X158020500Y-97780231D01*
X158016309Y-97737489D01*
X158016187Y-97736174D01*
X158008623Y-97649719D01*
X158008087Y-97643587D01*
X158006600Y-97638468D01*
X158006080Y-97633167D01*
X157979218Y-97544194D01*
X157978862Y-97542994D01*
X157952909Y-97453663D01*
X157950455Y-97448929D01*
X157948916Y-97443831D01*
X157905316Y-97361831D01*
X157904702Y-97360663D01*
X157864726Y-97283541D01*
X157864725Y-97283540D01*
X157861892Y-97278074D01*
X157858569Y-97273911D01*
X157856066Y-97269204D01*
X157797245Y-97197082D01*
X157796554Y-97196226D01*
X157765262Y-97157027D01*
X157762758Y-97154523D01*
X157762116Y-97153805D01*
X157758415Y-97149472D01*
X157731065Y-97115938D01*
X157695737Y-97086712D01*
X157686958Y-97078723D01*
X155950855Y-95342621D01*
X155941753Y-95332478D01*
X155921897Y-95307782D01*
X155918032Y-95302975D01*
X155879578Y-95270708D01*
X155875931Y-95267528D01*
X155874119Y-95265885D01*
X155871925Y-95263691D01*
X155838654Y-95236361D01*
X155837799Y-95235651D01*
X155809008Y-95211492D01*
X155769682Y-95152382D01*
X155764000Y-95114971D01*
X155764000Y-91369733D01*
X156186822Y-91369733D01*
X156196625Y-91650458D01*
X156197387Y-91654781D01*
X156197388Y-91654788D01*
X156221164Y-91789624D01*
X156245402Y-91927087D01*
X156332203Y-92194235D01*
X156455340Y-92446702D01*
X156457795Y-92450341D01*
X156457798Y-92450347D01*
X156530890Y-92558710D01*
X156612415Y-92679576D01*
X156800371Y-92888322D01*
X157015550Y-93068879D01*
X157253764Y-93217731D01*
X157510375Y-93331982D01*
X157780390Y-93409407D01*
X157784740Y-93410018D01*
X157784743Y-93410019D01*
X157887690Y-93424487D01*
X158058552Y-93448500D01*
X158269146Y-93448500D01*
X158271332Y-93448347D01*
X158271336Y-93448347D01*
X158474827Y-93434118D01*
X158474832Y-93434117D01*
X158479212Y-93433811D01*
X158753970Y-93375409D01*
X158758099Y-93373906D01*
X158758103Y-93373905D01*
X159013781Y-93280846D01*
X159013785Y-93280844D01*
X159017926Y-93279337D01*
X159265942Y-93147464D01*
X159370896Y-93071211D01*
X159489629Y-92984947D01*
X159489632Y-92984944D01*
X159493192Y-92982358D01*
X159695252Y-92787231D01*
X159868188Y-92565882D01*
X159870384Y-92562078D01*
X159870389Y-92562071D01*
X160006435Y-92326431D01*
X160008636Y-92322619D01*
X160113862Y-92062176D01*
X160147544Y-91927087D01*
X160180753Y-91793893D01*
X160180754Y-91793888D01*
X160181817Y-91789624D01*
X160211178Y-91510267D01*
X160201375Y-91229542D01*
X160177608Y-91094749D01*
X160153360Y-90957236D01*
X160152598Y-90952913D01*
X160065797Y-90685765D01*
X159942660Y-90433298D01*
X159940205Y-90429659D01*
X159940202Y-90429653D01*
X159859935Y-90310653D01*
X159785585Y-90200424D01*
X159597629Y-89991678D01*
X159382450Y-89811121D01*
X159144236Y-89662269D01*
X158887625Y-89548018D01*
X158617610Y-89470593D01*
X158613260Y-89469982D01*
X158613257Y-89469981D01*
X158510310Y-89455513D01*
X158339448Y-89431500D01*
X158128854Y-89431500D01*
X158126668Y-89431653D01*
X158126664Y-89431653D01*
X157923173Y-89445882D01*
X157923168Y-89445883D01*
X157918788Y-89446189D01*
X157644030Y-89504591D01*
X157639901Y-89506094D01*
X157639897Y-89506095D01*
X157384219Y-89599154D01*
X157384215Y-89599156D01*
X157380074Y-89600663D01*
X157132058Y-89732536D01*
X157128499Y-89735122D01*
X157128497Y-89735123D01*
X157023895Y-89811121D01*
X156904808Y-89897642D01*
X156702748Y-90092769D01*
X156529812Y-90314118D01*
X156527616Y-90317922D01*
X156527611Y-90317929D01*
X156413794Y-90515067D01*
X156389364Y-90557381D01*
X156284138Y-90817824D01*
X156283073Y-90822097D01*
X156283072Y-90822099D01*
X156249379Y-90957236D01*
X156216183Y-91090376D01*
X156186822Y-91369733D01*
X155764000Y-91369733D01*
X155764000Y-84050161D01*
X155784002Y-83982040D01*
X155800903Y-83961068D01*
X156436536Y-83325435D01*
X156442801Y-83319582D01*
X156480664Y-83286552D01*
X156480665Y-83286551D01*
X156486385Y-83281561D01*
X156523136Y-83229271D01*
X156527028Y-83224029D01*
X156566476Y-83173718D01*
X156569600Y-83166799D01*
X156570988Y-83164507D01*
X156579357Y-83149835D01*
X156580622Y-83147475D01*
X156584990Y-83141261D01*
X156608203Y-83081723D01*
X156610759Y-83075642D01*
X156633918Y-83024352D01*
X156637045Y-83017427D01*
X156638430Y-83009954D01*
X156639234Y-83007388D01*
X156643855Y-82991165D01*
X156644520Y-82988573D01*
X156647282Y-82981491D01*
X156655622Y-82918139D01*
X156656654Y-82911623D01*
X156666911Y-82856281D01*
X156668295Y-82848814D01*
X156664709Y-82786620D01*
X156664500Y-82779367D01*
X156664500Y-81614521D01*
X156684502Y-81546400D01*
X156738158Y-81499907D01*
X156808432Y-81489803D01*
X156871491Y-81517999D01*
X156915524Y-81554947D01*
X157015550Y-81638879D01*
X157253764Y-81787731D01*
X157510375Y-81901982D01*
X157780390Y-81979407D01*
X157784740Y-81980018D01*
X157784743Y-81980019D01*
X157887690Y-81994487D01*
X158058552Y-82018500D01*
X158269146Y-82018500D01*
X158271332Y-82018347D01*
X158271336Y-82018347D01*
X158474827Y-82004118D01*
X158474832Y-82004117D01*
X158479212Y-82003811D01*
X158753970Y-81945409D01*
X158758099Y-81943906D01*
X158758103Y-81943905D01*
X159013781Y-81850846D01*
X159013785Y-81850844D01*
X159017926Y-81849337D01*
X159265942Y-81717464D01*
X159370896Y-81641211D01*
X159489629Y-81554947D01*
X159489632Y-81554944D01*
X159493192Y-81552358D01*
X159695252Y-81357231D01*
X159868188Y-81135882D01*
X159870384Y-81132078D01*
X159870389Y-81132071D01*
X160006435Y-80896431D01*
X160008636Y-80892619D01*
X160113862Y-80632176D01*
X160181817Y-80359624D01*
X160211178Y-80080267D01*
X160201375Y-79799542D01*
X160152598Y-79522913D01*
X160065797Y-79255765D01*
X159942660Y-79003298D01*
X159940205Y-78999659D01*
X159940202Y-78999653D01*
X159867110Y-78891290D01*
X159785585Y-78770424D01*
X159597629Y-78561678D01*
X159382450Y-78381121D01*
X159144236Y-78232269D01*
X158887625Y-78118018D01*
X158686299Y-78060289D01*
X158621837Y-78041805D01*
X158621836Y-78041805D01*
X158617610Y-78040593D01*
X158613260Y-78039982D01*
X158613257Y-78039981D01*
X158510310Y-78025513D01*
X158339448Y-78001500D01*
X158128854Y-78001500D01*
X158126668Y-78001653D01*
X158126664Y-78001653D01*
X157923173Y-78015882D01*
X157923168Y-78015883D01*
X157918788Y-78016189D01*
X157711315Y-78060289D01*
X157640524Y-78054887D01*
X157583892Y-78012070D01*
X157559398Y-77945433D01*
X157574819Y-77876131D01*
X157596023Y-77847947D01*
X162024528Y-73419443D01*
X162030793Y-73413589D01*
X162068664Y-73380552D01*
X162068665Y-73380551D01*
X162074385Y-73375561D01*
X162111136Y-73323271D01*
X162115028Y-73318029D01*
X162154476Y-73267718D01*
X162157600Y-73260799D01*
X162158988Y-73258507D01*
X162167357Y-73243835D01*
X162168622Y-73241475D01*
X162172990Y-73235261D01*
X162196203Y-73175723D01*
X162198759Y-73169642D01*
X162221918Y-73118352D01*
X162225045Y-73111427D01*
X162226430Y-73103954D01*
X162227234Y-73101388D01*
X162231855Y-73085165D01*
X162232520Y-73082573D01*
X162235282Y-73075491D01*
X162242733Y-73018892D01*
X162271133Y-72954347D01*
X162396922Y-72804437D01*
X162396923Y-72804436D01*
X162400881Y-72799719D01*
X162403845Y-72794327D01*
X162403848Y-72794323D01*
X162495556Y-72627506D01*
X162498523Y-72622109D01*
X162559807Y-72428916D01*
X162561401Y-72414713D01*
X162577107Y-72274683D01*
X162577500Y-72271183D01*
X162577500Y-71711996D01*
X162562723Y-71561287D01*
X162504142Y-71367258D01*
X162408990Y-71188302D01*
X162280890Y-71031237D01*
X162276141Y-71027308D01*
X162129472Y-70905973D01*
X162129469Y-70905971D01*
X162124722Y-70902044D01*
X161946435Y-70805644D01*
X161849627Y-70775677D01*
X161758707Y-70747532D01*
X161758704Y-70747531D01*
X161752820Y-70745710D01*
X161746695Y-70745066D01*
X161746694Y-70745066D01*
X161557378Y-70725168D01*
X161557377Y-70725168D01*
X161551250Y-70724524D01*
X161467986Y-70732102D01*
X161355543Y-70742335D01*
X161355540Y-70742336D01*
X161349404Y-70742894D01*
X161343498Y-70744632D01*
X161343494Y-70744633D01*
X161208947Y-70784233D01*
X161154971Y-70800119D01*
X161149514Y-70802972D01*
X161149511Y-70802973D01*
X161065163Y-70847069D01*
X160975540Y-70893923D01*
X160975538Y-70893923D01*
X160975355Y-70894019D01*
X160975337Y-70893984D01*
X160909559Y-70913889D01*
X160848591Y-70898729D01*
X160839815Y-70893984D01*
X160676435Y-70805644D01*
X160579627Y-70775677D01*
X160488707Y-70747532D01*
X160488704Y-70747531D01*
X160482820Y-70745710D01*
X160476695Y-70745066D01*
X160476694Y-70745066D01*
X160287378Y-70725168D01*
X160287377Y-70725168D01*
X160281250Y-70724524D01*
X160197986Y-70732102D01*
X160085543Y-70742335D01*
X160085540Y-70742336D01*
X160079404Y-70742894D01*
X160073498Y-70744632D01*
X160073494Y-70744633D01*
X159890879Y-70798380D01*
X159890877Y-70798381D01*
X159889493Y-70798788D01*
X159884971Y-70800119D01*
X159884718Y-70799260D01*
X159819338Y-70805714D01*
X159782594Y-70792548D01*
X159775705Y-70787385D01*
X159767304Y-70784236D01*
X159767301Y-70784234D01*
X159655534Y-70742335D01*
X159639316Y-70736255D01*
X159577134Y-70729500D01*
X158430866Y-70729500D01*
X158368684Y-70736255D01*
X158232295Y-70787385D01*
X158115739Y-70874739D01*
X158028385Y-70991295D01*
X157977255Y-71127684D01*
X157970500Y-71189866D01*
X157970500Y-72786134D01*
X157977255Y-72848316D01*
X157980029Y-72855716D01*
X157981856Y-72863400D01*
X157979297Y-72864008D01*
X157983542Y-72922092D01*
X157949613Y-72984457D01*
X157887354Y-73018579D01*
X157860380Y-73021500D01*
X156642993Y-73021500D01*
X156574872Y-73001498D01*
X156528379Y-72947842D01*
X156518275Y-72877568D01*
X156546470Y-72814510D01*
X156554923Y-72804436D01*
X156558881Y-72799719D01*
X156561845Y-72794327D01*
X156561848Y-72794323D01*
X156653556Y-72627506D01*
X156656523Y-72622109D01*
X156717807Y-72428916D01*
X156719401Y-72414713D01*
X156735107Y-72274683D01*
X156735500Y-72271183D01*
X156735500Y-71711996D01*
X156720723Y-71561287D01*
X156662142Y-71367258D01*
X156566990Y-71188302D01*
X156438890Y-71031237D01*
X156441220Y-71029337D01*
X156413379Y-70978351D01*
X156410500Y-70951568D01*
X156410500Y-70640912D01*
X156410792Y-70632342D01*
X156414209Y-70582224D01*
X156414209Y-70582220D01*
X156414725Y-70574648D01*
X156403739Y-70511703D01*
X156402777Y-70505182D01*
X156396015Y-70449304D01*
X156395102Y-70441758D01*
X156392416Y-70434650D01*
X156391779Y-70432056D01*
X156387318Y-70415750D01*
X156386548Y-70413199D01*
X156385242Y-70405716D01*
X156359561Y-70347212D01*
X156357069Y-70341105D01*
X156337173Y-70288452D01*
X156337173Y-70288451D01*
X156334487Y-70281344D01*
X156330184Y-70275083D01*
X156328947Y-70272717D01*
X156320720Y-70257937D01*
X156319369Y-70255652D01*
X156316315Y-70248695D01*
X156311695Y-70242675D01*
X156311692Y-70242669D01*
X156277421Y-70198009D01*
X156273541Y-70192668D01*
X156241661Y-70146280D01*
X156241656Y-70146275D01*
X156237357Y-70140019D01*
X156190829Y-70098564D01*
X156185554Y-70093584D01*
X155969450Y-69877480D01*
X155963596Y-69871215D01*
X155963201Y-69870762D01*
X155925561Y-69827615D01*
X155873280Y-69790871D01*
X155867986Y-69786939D01*
X155817718Y-69747524D01*
X155818712Y-69746256D01*
X155776823Y-69700441D01*
X155764000Y-69645061D01*
X155764000Y-68224500D01*
X155784002Y-68156379D01*
X155837658Y-68109886D01*
X155890000Y-68098500D01*
X162875500Y-68098500D01*
X162943621Y-68118502D01*
G37*
G04 #@! TD.AperFunction*
G04 #@! TA.AperFunction,Conductor*
G36*
X123705527Y-75075502D02*
G01*
X123726501Y-75092405D01*
X125313595Y-76679500D01*
X125347621Y-76741812D01*
X125350500Y-76768595D01*
X125350500Y-77137233D01*
X125349973Y-77148416D01*
X125348298Y-77155909D01*
X125348547Y-77163835D01*
X125348547Y-77163836D01*
X125350438Y-77223986D01*
X125350500Y-77227945D01*
X125350500Y-77255856D01*
X125350997Y-77259790D01*
X125350997Y-77259791D01*
X125351005Y-77259856D01*
X125351938Y-77271693D01*
X125353327Y-77315889D01*
X125358978Y-77335339D01*
X125362987Y-77354700D01*
X125365526Y-77374797D01*
X125368445Y-77382168D01*
X125368445Y-77382170D01*
X125381804Y-77415912D01*
X125385649Y-77427142D01*
X125397982Y-77469593D01*
X125402015Y-77476412D01*
X125402017Y-77476417D01*
X125408293Y-77487028D01*
X125416988Y-77504776D01*
X125424448Y-77523617D01*
X125429110Y-77530033D01*
X125429110Y-77530034D01*
X125450436Y-77559387D01*
X125456952Y-77569307D01*
X125479458Y-77607362D01*
X125493779Y-77621683D01*
X125506619Y-77636716D01*
X125518528Y-77653107D01*
X125524634Y-77658158D01*
X125552605Y-77681298D01*
X125561384Y-77689288D01*
X125734343Y-77862247D01*
X125741887Y-77870537D01*
X125746000Y-77877018D01*
X125751777Y-77882443D01*
X125795667Y-77923658D01*
X125798509Y-77926413D01*
X125818230Y-77946134D01*
X125821425Y-77948612D01*
X125830447Y-77956318D01*
X125862679Y-77986586D01*
X125869628Y-77990406D01*
X125880432Y-77996346D01*
X125896956Y-78007199D01*
X125912959Y-78019613D01*
X125953543Y-78037176D01*
X125964173Y-78042383D01*
X126002940Y-78063695D01*
X126010617Y-78065666D01*
X126010622Y-78065668D01*
X126022558Y-78068732D01*
X126041266Y-78075137D01*
X126059855Y-78083181D01*
X126067683Y-78084421D01*
X126067690Y-78084423D01*
X126103524Y-78090099D01*
X126115144Y-78092505D01*
X126150289Y-78101528D01*
X126157970Y-78103500D01*
X126178224Y-78103500D01*
X126197934Y-78105051D01*
X126217943Y-78108220D01*
X126225835Y-78107474D01*
X126261961Y-78104059D01*
X126273819Y-78103500D01*
X127254000Y-78103500D01*
X127254000Y-88693187D01*
X126875981Y-88315168D01*
X126863140Y-88300135D01*
X126858746Y-88294087D01*
X126858745Y-88294086D01*
X126854866Y-88288747D01*
X126804041Y-88242984D01*
X126799256Y-88238443D01*
X126784741Y-88223928D01*
X126782179Y-88221853D01*
X126782173Y-88221848D01*
X126781199Y-88221059D01*
X126781038Y-88220826D01*
X126779719Y-88219638D01*
X126780001Y-88219325D01*
X126740851Y-88162642D01*
X126734500Y-88123144D01*
X126734500Y-87056866D01*
X126727745Y-86994684D01*
X126676615Y-86858295D01*
X126589261Y-86741739D01*
X126472705Y-86654385D01*
X126336316Y-86603255D01*
X126274134Y-86596500D01*
X124677866Y-86596500D01*
X124615684Y-86603255D01*
X124479295Y-86654385D01*
X124362739Y-86741739D01*
X124275385Y-86858295D01*
X124224255Y-86994684D01*
X124217500Y-87056866D01*
X124217500Y-88203134D01*
X124224255Y-88265316D01*
X124227029Y-88272715D01*
X124272232Y-88393296D01*
X124272234Y-88393299D01*
X124275385Y-88401705D01*
X124280773Y-88408894D01*
X124280906Y-88409137D01*
X124296076Y-88478494D01*
X124290752Y-88506907D01*
X124233710Y-88691180D01*
X124212524Y-88892750D01*
X124230894Y-89094596D01*
X124288119Y-89289029D01*
X124290972Y-89294486D01*
X124290973Y-89294489D01*
X124379162Y-89463181D01*
X124379165Y-89463185D01*
X124382019Y-89468645D01*
X124382221Y-89468897D01*
X124402201Y-89534912D01*
X124387041Y-89595885D01*
X124297038Y-89762342D01*
X124292286Y-89773647D01*
X124253578Y-89898692D01*
X124253372Y-89912795D01*
X124260127Y-89916000D01*
X125029758Y-89916000D01*
X125043803Y-89916785D01*
X125192817Y-89933500D01*
X125604000Y-89933500D01*
X125672121Y-89953502D01*
X125718614Y-90007158D01*
X125730000Y-90059500D01*
X125730000Y-91184885D01*
X125734475Y-91200124D01*
X125735865Y-91201329D01*
X125743548Y-91203000D01*
X125748890Y-91203000D01*
X125755035Y-91202700D01*
X125896481Y-91188830D01*
X125908519Y-91186447D01*
X126090651Y-91131458D01*
X126101993Y-91126783D01*
X126269977Y-91037465D01*
X126280193Y-91030678D01*
X126427634Y-90910428D01*
X126436338Y-90901784D01*
X126554806Y-90758579D01*
X126613639Y-90718841D01*
X126684617Y-90717218D01*
X126740986Y-90749799D01*
X127254000Y-91262813D01*
X127254000Y-93478679D01*
X127229716Y-93530757D01*
X127170457Y-93751913D01*
X127150502Y-93980000D01*
X127170457Y-94208087D01*
X127171881Y-94213400D01*
X127171881Y-94213402D01*
X127181031Y-94247548D01*
X127229716Y-94429243D01*
X127232039Y-94434224D01*
X127232039Y-94434225D01*
X127254000Y-94481321D01*
X127254000Y-95581500D01*
X120144500Y-95581500D01*
X120076379Y-95561498D01*
X120029886Y-95507842D01*
X120018500Y-95455500D01*
X120018500Y-95156770D01*
X120038502Y-95088649D01*
X120092158Y-95042156D01*
X120162432Y-95032052D01*
X120216771Y-95053557D01*
X120302994Y-95113931D01*
X120312489Y-95119414D01*
X120509947Y-95211490D01*
X120520239Y-95215236D01*
X120692503Y-95261394D01*
X120706599Y-95261058D01*
X120710000Y-95253116D01*
X120710000Y-95247967D01*
X121218000Y-95247967D01*
X121221973Y-95261498D01*
X121230522Y-95262727D01*
X121407761Y-95215236D01*
X121418053Y-95211490D01*
X121615511Y-95119414D01*
X121625007Y-95113931D01*
X121803467Y-94988972D01*
X121811875Y-94981916D01*
X121965916Y-94827875D01*
X121972972Y-94819467D01*
X122097931Y-94641007D01*
X122103414Y-94631511D01*
X122195490Y-94434053D01*
X122199236Y-94423761D01*
X122245394Y-94251497D01*
X122245058Y-94237401D01*
X122237116Y-94234000D01*
X121236115Y-94234000D01*
X121220876Y-94238475D01*
X121219671Y-94239865D01*
X121218000Y-94247548D01*
X121218000Y-95247967D01*
X120710000Y-95247967D01*
X120710000Y-93707885D01*
X121218000Y-93707885D01*
X121222475Y-93723124D01*
X121223865Y-93724329D01*
X121231548Y-93726000D01*
X122231967Y-93726000D01*
X122245498Y-93722027D01*
X122246727Y-93713478D01*
X122199236Y-93536239D01*
X122195490Y-93525947D01*
X122103414Y-93328489D01*
X122097931Y-93318993D01*
X121972972Y-93140533D01*
X121965916Y-93132125D01*
X121811875Y-92978084D01*
X121803467Y-92971028D01*
X121625007Y-92846069D01*
X121615511Y-92840586D01*
X121418053Y-92748510D01*
X121407761Y-92744764D01*
X121235497Y-92698606D01*
X121221401Y-92698942D01*
X121218000Y-92706884D01*
X121218000Y-93707885D01*
X120710000Y-93707885D01*
X120710000Y-92712033D01*
X120706027Y-92698502D01*
X120697478Y-92697273D01*
X120520239Y-92744764D01*
X120509947Y-92748510D01*
X120312489Y-92840586D01*
X120302994Y-92846069D01*
X120216771Y-92906443D01*
X120149497Y-92929131D01*
X120080637Y-92911846D01*
X120032052Y-92860077D01*
X120018500Y-92803230D01*
X120018500Y-90435768D01*
X124252363Y-90435768D01*
X124286846Y-90552932D01*
X124291439Y-90564300D01*
X124379586Y-90732911D01*
X124386302Y-90743173D01*
X124505515Y-90891443D01*
X124514103Y-90900213D01*
X124659838Y-91022499D01*
X124669969Y-91029437D01*
X124836692Y-91121094D01*
X124847962Y-91125924D01*
X125029315Y-91183452D01*
X125041309Y-91186002D01*
X125189350Y-91202607D01*
X125196374Y-91203000D01*
X125203885Y-91203000D01*
X125219124Y-91198525D01*
X125220329Y-91197135D01*
X125222000Y-91189452D01*
X125222000Y-90442115D01*
X125217525Y-90426876D01*
X125216135Y-90425671D01*
X125208452Y-90424000D01*
X124267014Y-90424000D01*
X124253483Y-90427973D01*
X124252363Y-90435768D01*
X120018500Y-90435768D01*
X120018500Y-84714153D01*
X120038502Y-84646032D01*
X120092158Y-84599539D01*
X120162432Y-84589435D01*
X120227012Y-84618929D01*
X120247713Y-84641882D01*
X120267028Y-84669467D01*
X120274084Y-84677875D01*
X120428125Y-84831916D01*
X120436533Y-84838972D01*
X120614993Y-84963931D01*
X120624489Y-84969414D01*
X120821947Y-85061490D01*
X120832239Y-85065236D01*
X121042688Y-85121625D01*
X121053481Y-85123528D01*
X121216170Y-85137762D01*
X121221635Y-85138000D01*
X121403885Y-85138000D01*
X121419124Y-85133525D01*
X121420329Y-85132135D01*
X121422000Y-85124452D01*
X121422000Y-85119885D01*
X121930000Y-85119885D01*
X121934475Y-85135124D01*
X121935865Y-85136329D01*
X121943548Y-85138000D01*
X122130365Y-85138000D01*
X122135830Y-85137762D01*
X122298519Y-85123528D01*
X122309312Y-85121625D01*
X122519761Y-85065236D01*
X122530053Y-85061490D01*
X122727511Y-84969414D01*
X122737007Y-84963931D01*
X122915467Y-84838972D01*
X122923875Y-84831916D01*
X123077916Y-84677875D01*
X123084972Y-84669467D01*
X123209931Y-84491007D01*
X123215414Y-84481511D01*
X123307490Y-84284053D01*
X123311236Y-84273761D01*
X123357394Y-84101497D01*
X123357058Y-84087401D01*
X123349116Y-84084000D01*
X121948115Y-84084000D01*
X121932876Y-84088475D01*
X121931671Y-84089865D01*
X121930000Y-84097548D01*
X121930000Y-85119885D01*
X121422000Y-85119885D01*
X121422000Y-83702000D01*
X121442002Y-83633879D01*
X121495658Y-83587386D01*
X121548000Y-83576000D01*
X123343967Y-83576000D01*
X123357498Y-83572027D01*
X123358727Y-83563478D01*
X123311236Y-83386239D01*
X123307490Y-83375947D01*
X123215414Y-83178489D01*
X123209931Y-83168993D01*
X123084972Y-82990533D01*
X123077916Y-82982125D01*
X122923875Y-82828084D01*
X122915467Y-82821028D01*
X122737007Y-82696069D01*
X122727511Y-82690586D01*
X122692951Y-82674471D01*
X122639666Y-82627554D01*
X122620205Y-82559277D01*
X122640747Y-82491317D01*
X122692951Y-82446081D01*
X122727762Y-82429849D01*
X122727767Y-82429846D01*
X122732749Y-82427523D01*
X122837611Y-82354098D01*
X122915789Y-82299357D01*
X122915792Y-82299355D01*
X122920300Y-82296198D01*
X123082198Y-82134300D01*
X123213523Y-81946749D01*
X123215846Y-81941767D01*
X123215849Y-81941762D01*
X123307961Y-81744225D01*
X123307961Y-81744224D01*
X123310284Y-81739243D01*
X123369543Y-81518087D01*
X123389498Y-81290000D01*
X123369543Y-81061913D01*
X123310284Y-80840757D01*
X123307961Y-80835775D01*
X123215849Y-80638238D01*
X123215846Y-80638233D01*
X123213523Y-80633251D01*
X123082198Y-80445700D01*
X122920300Y-80283802D01*
X122915792Y-80280645D01*
X122915789Y-80280643D01*
X122837611Y-80225902D01*
X122732749Y-80152477D01*
X122727767Y-80150154D01*
X122727762Y-80150151D01*
X122693543Y-80134195D01*
X122640258Y-80087278D01*
X122620797Y-80019001D01*
X122641339Y-79951041D01*
X122693543Y-79905805D01*
X122727762Y-79889849D01*
X122727767Y-79889846D01*
X122732749Y-79887523D01*
X122837611Y-79814098D01*
X122915789Y-79759357D01*
X122915792Y-79759355D01*
X122920300Y-79756198D01*
X123082198Y-79594300D01*
X123213523Y-79406749D01*
X123215846Y-79401767D01*
X123215849Y-79401762D01*
X123307961Y-79204225D01*
X123307961Y-79204224D01*
X123310284Y-79199243D01*
X123369543Y-78978087D01*
X123389498Y-78750000D01*
X123369543Y-78521913D01*
X123310284Y-78300757D01*
X123307961Y-78295775D01*
X123215849Y-78098238D01*
X123215846Y-78098233D01*
X123213523Y-78093251D01*
X123103045Y-77935472D01*
X123085357Y-77910211D01*
X123085355Y-77910208D01*
X123082198Y-77905700D01*
X122920300Y-77743802D01*
X122915789Y-77740643D01*
X122911576Y-77737108D01*
X122912527Y-77735974D01*
X122872529Y-77685929D01*
X122865224Y-77615310D01*
X122897258Y-77551951D01*
X122958462Y-77515970D01*
X122975517Y-77512918D01*
X122986316Y-77511745D01*
X123122705Y-77460615D01*
X123239261Y-77373261D01*
X123326615Y-77256705D01*
X123377745Y-77120316D01*
X123384500Y-77058134D01*
X123384500Y-75361866D01*
X123377745Y-75299684D01*
X123374973Y-75292288D01*
X123374971Y-75292282D01*
X123350021Y-75225729D01*
X123344838Y-75154922D01*
X123378759Y-75092553D01*
X123441014Y-75058424D01*
X123468003Y-75055500D01*
X123637406Y-75055500D01*
X123705527Y-75075502D01*
G37*
G04 #@! TD.AperFunction*
G04 #@! TA.AperFunction,Conductor*
G36*
X125381725Y-68629715D02*
G01*
X125398712Y-68649319D01*
X125404641Y-68657786D01*
X125407802Y-68662300D01*
X125569700Y-68824198D01*
X125574208Y-68827355D01*
X125574211Y-68827357D01*
X125632500Y-68868171D01*
X125757251Y-68955523D01*
X125762233Y-68957846D01*
X125762238Y-68957849D01*
X125922499Y-69032579D01*
X125964757Y-69052284D01*
X125970065Y-69053706D01*
X125970067Y-69053707D01*
X126180598Y-69110119D01*
X126180600Y-69110119D01*
X126185913Y-69111543D01*
X126414000Y-69131498D01*
X126642087Y-69111543D01*
X126647400Y-69110119D01*
X126647402Y-69110119D01*
X126857933Y-69053707D01*
X126857935Y-69053706D01*
X126863243Y-69052284D01*
X126905501Y-69032579D01*
X127065762Y-68957849D01*
X127065767Y-68957846D01*
X127070749Y-68955523D01*
X127195500Y-68868171D01*
X127253789Y-68827357D01*
X127253792Y-68827355D01*
X127254000Y-68827209D01*
X127254000Y-70931747D01*
X127244295Y-70935385D01*
X127127739Y-71022739D01*
X127040385Y-71139295D01*
X126989255Y-71275684D01*
X126982500Y-71337866D01*
X126982500Y-72934134D01*
X126989255Y-72996316D01*
X127040385Y-73132705D01*
X127127739Y-73249261D01*
X127244295Y-73336615D01*
X127254000Y-73340253D01*
X127254000Y-76836500D01*
X126743500Y-76836500D01*
X126675379Y-76816498D01*
X126628886Y-76762842D01*
X126617500Y-76710500D01*
X126617500Y-76532767D01*
X126618027Y-76521584D01*
X126619702Y-76514091D01*
X126617562Y-76446000D01*
X126617500Y-76442043D01*
X126617500Y-76414144D01*
X126616996Y-76410153D01*
X126616063Y-76398311D01*
X126614923Y-76362036D01*
X126614674Y-76354111D01*
X126612462Y-76346497D01*
X126612461Y-76346492D01*
X126609023Y-76334659D01*
X126605012Y-76315295D01*
X126603467Y-76303064D01*
X126602474Y-76295203D01*
X126599557Y-76287836D01*
X126599556Y-76287831D01*
X126586198Y-76254092D01*
X126582354Y-76242865D01*
X126572230Y-76208022D01*
X126570018Y-76200407D01*
X126559707Y-76182972D01*
X126551012Y-76165224D01*
X126543552Y-76146383D01*
X126517564Y-76110613D01*
X126511048Y-76100693D01*
X126492580Y-76069465D01*
X126492578Y-76069462D01*
X126488542Y-76062638D01*
X126474221Y-76048317D01*
X126461380Y-76033283D01*
X126454131Y-76023306D01*
X126449472Y-76016893D01*
X126415395Y-75988702D01*
X126406616Y-75980712D01*
X124455652Y-74029747D01*
X124448112Y-74021461D01*
X124444000Y-74014982D01*
X124394348Y-73968356D01*
X124391507Y-73965602D01*
X124371770Y-73945865D01*
X124368573Y-73943385D01*
X124359551Y-73935680D01*
X124333100Y-73910841D01*
X124327321Y-73905414D01*
X124320375Y-73901595D01*
X124320372Y-73901593D01*
X124309566Y-73895652D01*
X124293047Y-73884801D01*
X124292583Y-73884441D01*
X124277041Y-73872386D01*
X124269772Y-73869241D01*
X124269768Y-73869238D01*
X124236463Y-73854826D01*
X124225813Y-73849609D01*
X124187060Y-73828305D01*
X124167437Y-73823267D01*
X124148734Y-73816863D01*
X124137420Y-73811967D01*
X124137419Y-73811967D01*
X124130145Y-73808819D01*
X124122322Y-73807580D01*
X124122312Y-73807577D01*
X124086476Y-73801901D01*
X124074856Y-73799495D01*
X124039711Y-73790472D01*
X124039710Y-73790472D01*
X124032030Y-73788500D01*
X124011776Y-73788500D01*
X123992065Y-73786949D01*
X123979886Y-73785020D01*
X123972057Y-73783780D01*
X123964165Y-73784526D01*
X123928039Y-73787941D01*
X123916181Y-73788500D01*
X121726595Y-73788500D01*
X121658474Y-73768498D01*
X121637500Y-73751595D01*
X121574405Y-73688500D01*
X121540379Y-73626188D01*
X121537500Y-73599405D01*
X121537500Y-73413981D01*
X121557502Y-73345860D01*
X121611158Y-73299367D01*
X121677106Y-73288718D01*
X121685509Y-73289631D01*
X121692328Y-73290000D01*
X122364885Y-73290000D01*
X122380124Y-73285525D01*
X122381329Y-73284135D01*
X122383000Y-73276452D01*
X122383000Y-70492116D01*
X122378525Y-70476877D01*
X122377135Y-70475672D01*
X122369452Y-70474001D01*
X121692331Y-70474001D01*
X121685518Y-70474370D01*
X121677101Y-70475284D01*
X121607219Y-70462752D01*
X121555206Y-70414428D01*
X121537500Y-70350020D01*
X121537500Y-69255661D01*
X121557502Y-69187540D01*
X121611158Y-69141047D01*
X121652517Y-69130140D01*
X121736499Y-69122793D01*
X121859606Y-69112023D01*
X121859611Y-69112022D01*
X121865087Y-69111543D01*
X121870400Y-69110119D01*
X121870402Y-69110119D01*
X122080933Y-69053707D01*
X122080935Y-69053706D01*
X122086243Y-69052284D01*
X122239250Y-68980936D01*
X122309442Y-68970275D01*
X122374255Y-68999255D01*
X122413111Y-69058675D01*
X122418500Y-69095131D01*
X122418500Y-69678233D01*
X122417973Y-69689416D01*
X122416298Y-69696909D01*
X122416547Y-69704835D01*
X122416547Y-69704836D01*
X122418438Y-69764986D01*
X122418500Y-69768945D01*
X122418500Y-69796856D01*
X122418997Y-69800790D01*
X122418997Y-69800791D01*
X122419005Y-69800856D01*
X122419938Y-69812693D01*
X122421327Y-69856889D01*
X122426978Y-69876339D01*
X122430987Y-69895700D01*
X122433526Y-69915797D01*
X122436445Y-69923168D01*
X122436445Y-69923170D01*
X122449804Y-69956912D01*
X122453649Y-69968142D01*
X122465982Y-70010593D01*
X122470015Y-70017412D01*
X122470017Y-70017417D01*
X122476293Y-70028028D01*
X122484988Y-70045776D01*
X122492448Y-70064617D01*
X122497110Y-70071033D01*
X122497110Y-70071034D01*
X122518436Y-70100387D01*
X122524952Y-70110307D01*
X122547458Y-70148362D01*
X122561779Y-70162683D01*
X122574619Y-70177716D01*
X122586528Y-70194107D01*
X122592634Y-70199158D01*
X122620605Y-70222298D01*
X122629384Y-70230288D01*
X122854095Y-70454999D01*
X122888121Y-70517311D01*
X122891000Y-70544094D01*
X122891000Y-73271884D01*
X122895475Y-73287123D01*
X122896865Y-73288328D01*
X122904548Y-73289999D01*
X123581669Y-73289999D01*
X123588490Y-73289629D01*
X123639352Y-73284105D01*
X123654604Y-73280479D01*
X123775054Y-73235324D01*
X123790649Y-73226786D01*
X123892724Y-73150285D01*
X123905285Y-73137724D01*
X123981786Y-73035649D01*
X123990324Y-73020054D01*
X124011773Y-72962840D01*
X124054415Y-72906075D01*
X124120977Y-72881376D01*
X124190325Y-72896584D01*
X124210240Y-72910126D01*
X124314057Y-72996316D01*
X124366349Y-73039730D01*
X124566322Y-73156584D01*
X124782694Y-73239209D01*
X124787760Y-73240240D01*
X124787761Y-73240240D01*
X124796810Y-73242081D01*
X125009656Y-73285385D01*
X125140324Y-73290176D01*
X125235949Y-73293683D01*
X125235953Y-73293683D01*
X125241113Y-73293872D01*
X125246233Y-73293216D01*
X125246235Y-73293216D01*
X125345660Y-73280479D01*
X125470847Y-73264442D01*
X125475795Y-73262957D01*
X125475802Y-73262956D01*
X125687747Y-73199369D01*
X125692690Y-73197886D01*
X125773236Y-73158427D01*
X125896049Y-73098262D01*
X125896052Y-73098260D01*
X125900684Y-73095991D01*
X126089243Y-72961494D01*
X126253303Y-72798005D01*
X126388458Y-72609917D01*
X126491078Y-72402280D01*
X126558408Y-72180671D01*
X126588640Y-71951041D01*
X126590327Y-71882000D01*
X126584032Y-71805434D01*
X126571773Y-71656318D01*
X126571772Y-71656312D01*
X126571349Y-71651167D01*
X126514925Y-71426533D01*
X126512866Y-71421797D01*
X126424630Y-71218868D01*
X126424628Y-71218865D01*
X126422570Y-71214131D01*
X126296764Y-71019665D01*
X126140887Y-70848358D01*
X126136836Y-70845159D01*
X126136832Y-70845155D01*
X125963177Y-70708011D01*
X125963172Y-70708008D01*
X125959123Y-70704810D01*
X125954607Y-70702317D01*
X125954604Y-70702315D01*
X125760879Y-70595373D01*
X125760875Y-70595371D01*
X125756355Y-70592876D01*
X125751486Y-70591152D01*
X125751482Y-70591150D01*
X125542903Y-70517288D01*
X125542899Y-70517287D01*
X125538028Y-70515562D01*
X125532935Y-70514655D01*
X125532932Y-70514654D01*
X125315095Y-70475851D01*
X125315089Y-70475850D01*
X125310006Y-70474945D01*
X125232726Y-70474001D01*
X125083581Y-70472179D01*
X125083579Y-70472179D01*
X125078411Y-70472116D01*
X124924589Y-70495654D01*
X124854573Y-70506368D01*
X124854571Y-70506369D01*
X124849464Y-70507150D01*
X124844549Y-70508757D01*
X124844547Y-70508757D01*
X124808889Y-70520412D01*
X124737925Y-70522565D01*
X124680648Y-70489744D01*
X123722403Y-69531498D01*
X123688379Y-69469188D01*
X123685500Y-69442405D01*
X123685500Y-69205168D01*
X123705502Y-69137047D01*
X123759158Y-69090554D01*
X123829432Y-69080450D01*
X123844105Y-69083460D01*
X123948913Y-69111543D01*
X124177000Y-69131498D01*
X124405087Y-69111543D01*
X124410400Y-69110119D01*
X124410402Y-69110119D01*
X124620933Y-69053707D01*
X124620935Y-69053706D01*
X124626243Y-69052284D01*
X124668501Y-69032579D01*
X124828762Y-68957849D01*
X124828767Y-68957846D01*
X124833749Y-68955523D01*
X124958500Y-68868171D01*
X125016789Y-68827357D01*
X125016792Y-68827355D01*
X125021300Y-68824198D01*
X125183198Y-68662300D01*
X125186359Y-68657786D01*
X125192288Y-68649319D01*
X125247746Y-68604991D01*
X125318365Y-68597683D01*
X125381725Y-68629715D01*
G37*
G04 #@! TD.AperFunction*
G04 #@! TA.AperFunction,Conductor*
G36*
X155194000Y-82564030D02*
G01*
X154429435Y-83328595D01*
X154367123Y-83362621D01*
X154340340Y-83365500D01*
X152682912Y-83365500D01*
X152674342Y-83365208D01*
X152624224Y-83361791D01*
X152624220Y-83361791D01*
X152616648Y-83361275D01*
X152609171Y-83362580D01*
X152609170Y-83362580D01*
X152582692Y-83367201D01*
X152553697Y-83372262D01*
X152547179Y-83373223D01*
X152483758Y-83380898D01*
X152476657Y-83383581D01*
X152474048Y-83384222D01*
X152457738Y-83388685D01*
X152455202Y-83389450D01*
X152447716Y-83390757D01*
X152400928Y-83411296D01*
X152389205Y-83416442D01*
X152383101Y-83418933D01*
X152323344Y-83441513D01*
X152317081Y-83445817D01*
X152314715Y-83447054D01*
X152299903Y-83455299D01*
X152297649Y-83456632D01*
X152290695Y-83459685D01*
X152239998Y-83498587D01*
X152234668Y-83502459D01*
X152188280Y-83534339D01*
X152188275Y-83534344D01*
X152182019Y-83538643D01*
X152176968Y-83544313D01*
X152176966Y-83544314D01*
X152140565Y-83585170D01*
X152135584Y-83590446D01*
X149125480Y-86600550D01*
X149119215Y-86606404D01*
X149075615Y-86644439D01*
X149038872Y-86696719D01*
X149034939Y-86702014D01*
X148995524Y-86752282D01*
X148992401Y-86759198D01*
X148991017Y-86761484D01*
X148982643Y-86776165D01*
X148981378Y-86778525D01*
X148977010Y-86784739D01*
X148974250Y-86791818D01*
X148974249Y-86791820D01*
X148953798Y-86844275D01*
X148951247Y-86850344D01*
X148924955Y-86908573D01*
X148923571Y-86916040D01*
X148922770Y-86918595D01*
X148918141Y-86934848D01*
X148917478Y-86937428D01*
X148914718Y-86944509D01*
X148913727Y-86952040D01*
X148913726Y-86952042D01*
X148909827Y-86981661D01*
X148909087Y-86987285D01*
X148906379Y-87007852D01*
X148905348Y-87014359D01*
X148893704Y-87077186D01*
X148894141Y-87084766D01*
X148894141Y-87084767D01*
X148897291Y-87139392D01*
X148897500Y-87146646D01*
X148897500Y-92173088D01*
X148897208Y-92181658D01*
X148894898Y-92215548D01*
X148893275Y-92239352D01*
X148894580Y-92246829D01*
X148894580Y-92246830D01*
X148904261Y-92302299D01*
X148905223Y-92308821D01*
X148912898Y-92372242D01*
X148915581Y-92379343D01*
X148916222Y-92381952D01*
X148920685Y-92398262D01*
X148921450Y-92400798D01*
X148922757Y-92408284D01*
X148937461Y-92441779D01*
X148948442Y-92466795D01*
X148950933Y-92472899D01*
X148973513Y-92532656D01*
X148977817Y-92538919D01*
X148979054Y-92541285D01*
X148987299Y-92556097D01*
X148988632Y-92558351D01*
X148991685Y-92565305D01*
X148996307Y-92571328D01*
X149030579Y-92615991D01*
X149034459Y-92621332D01*
X149066339Y-92667720D01*
X149066344Y-92667725D01*
X149070643Y-92673981D01*
X149076313Y-92679032D01*
X149076314Y-92679034D01*
X149117170Y-92715435D01*
X149122446Y-92720416D01*
X149637909Y-93235879D01*
X149670521Y-93292363D01*
X149691880Y-93372076D01*
X149694203Y-93377057D01*
X149694203Y-93377058D01*
X149782618Y-93566666D01*
X149782621Y-93566671D01*
X149784944Y-93571653D01*
X149911251Y-93752038D01*
X150066962Y-93907749D01*
X150247346Y-94034056D01*
X150446924Y-94127120D01*
X150659629Y-94184115D01*
X150879000Y-94203307D01*
X151098371Y-94184115D01*
X151311076Y-94127120D01*
X151510654Y-94034056D01*
X151691038Y-93907749D01*
X151846749Y-93752038D01*
X151973056Y-93571653D01*
X151975379Y-93566671D01*
X151975382Y-93566666D01*
X152022585Y-93465438D01*
X152066120Y-93372076D01*
X152123115Y-93159371D01*
X152142307Y-92940000D01*
X152615693Y-92940000D01*
X152634885Y-93159371D01*
X152691880Y-93372076D01*
X152735415Y-93465438D01*
X152782618Y-93566666D01*
X152782621Y-93566671D01*
X152784944Y-93571653D01*
X152911251Y-93752038D01*
X153066962Y-93907749D01*
X153247346Y-94034056D01*
X153446924Y-94127120D01*
X153659629Y-94184115D01*
X153879000Y-94203307D01*
X154098371Y-94184115D01*
X154311076Y-94127120D01*
X154510654Y-94034056D01*
X154691038Y-93907749D01*
X154846749Y-93752038D01*
X154973056Y-93571653D01*
X154975379Y-93566671D01*
X154975382Y-93566666D01*
X155022585Y-93465438D01*
X155066120Y-93372076D01*
X155123115Y-93159371D01*
X155142307Y-92940000D01*
X155123115Y-92720629D01*
X155066120Y-92507924D01*
X155011035Y-92389793D01*
X154975382Y-92313334D01*
X154975379Y-92313329D01*
X154973056Y-92308347D01*
X154968821Y-92302299D01*
X154849908Y-92132473D01*
X154849906Y-92132470D01*
X154846749Y-92127962D01*
X154691038Y-91972251D01*
X154649364Y-91943070D01*
X154611759Y-91916739D01*
X154510654Y-91845944D01*
X154311076Y-91752880D01*
X154098371Y-91695885D01*
X153879000Y-91676693D01*
X153659629Y-91695885D01*
X153446924Y-91752880D01*
X153353562Y-91796415D01*
X153252334Y-91843618D01*
X153252329Y-91843621D01*
X153247347Y-91845944D01*
X153242840Y-91849100D01*
X153242838Y-91849101D01*
X153071473Y-91969092D01*
X153071470Y-91969094D01*
X153066962Y-91972251D01*
X152911251Y-92127962D01*
X152908094Y-92132470D01*
X152908092Y-92132473D01*
X152789179Y-92302299D01*
X152784944Y-92308347D01*
X152782621Y-92313329D01*
X152782618Y-92313334D01*
X152746965Y-92389793D01*
X152691880Y-92507924D01*
X152634885Y-92720629D01*
X152615693Y-92940000D01*
X152142307Y-92940000D01*
X152123115Y-92720629D01*
X152066120Y-92507924D01*
X152011035Y-92389793D01*
X151975382Y-92313334D01*
X151975379Y-92313329D01*
X151973056Y-92308347D01*
X151968821Y-92302299D01*
X151849908Y-92132473D01*
X151849906Y-92132470D01*
X151846749Y-92127962D01*
X151691038Y-91972251D01*
X151649364Y-91943070D01*
X151611759Y-91916739D01*
X151510654Y-91845944D01*
X151311076Y-91752880D01*
X151098371Y-91695885D01*
X150879000Y-91676693D01*
X150659629Y-91695885D01*
X150473111Y-91745863D01*
X150402135Y-91744173D01*
X150343339Y-91704379D01*
X150315391Y-91639115D01*
X150314500Y-91624156D01*
X150314500Y-91255327D01*
X150334502Y-91187206D01*
X150388158Y-91140713D01*
X150458432Y-91130609D01*
X150473111Y-91133620D01*
X150654401Y-91182196D01*
X150665196Y-91184099D01*
X150873525Y-91202326D01*
X150884475Y-91202326D01*
X151092804Y-91184099D01*
X151103599Y-91182196D01*
X151305595Y-91128072D01*
X151315887Y-91124326D01*
X151505416Y-91035947D01*
X151514912Y-91030464D01*
X151556148Y-91001590D01*
X151564523Y-90991113D01*
X151557455Y-90977667D01*
X150608884Y-90029095D01*
X150574859Y-89966783D01*
X150576694Y-89941132D01*
X151243408Y-89941132D01*
X151243539Y-89942966D01*
X151247790Y-89949580D01*
X151917391Y-90619180D01*
X151929161Y-90625607D01*
X151941176Y-90616311D01*
X151969466Y-90575907D01*
X151974946Y-90566417D01*
X152010394Y-90490400D01*
X152620500Y-90490400D01*
X152620837Y-90493646D01*
X152620837Y-90493650D01*
X152622574Y-90510384D01*
X152631474Y-90596165D01*
X152633655Y-90602701D01*
X152633655Y-90602703D01*
X152646264Y-90640496D01*
X152687450Y-90763945D01*
X152780522Y-90914348D01*
X152905697Y-91039305D01*
X152911927Y-91043145D01*
X152911928Y-91043146D01*
X153049090Y-91127694D01*
X153056262Y-91132115D01*
X153136005Y-91158564D01*
X153217611Y-91185632D01*
X153217613Y-91185632D01*
X153224139Y-91187797D01*
X153230975Y-91188497D01*
X153230978Y-91188498D01*
X153271436Y-91192643D01*
X153328600Y-91198500D01*
X154429400Y-91198500D01*
X154432646Y-91198163D01*
X154432650Y-91198163D01*
X154528307Y-91188238D01*
X154528311Y-91188237D01*
X154535165Y-91187526D01*
X154541701Y-91185345D01*
X154541703Y-91185345D01*
X154675480Y-91140713D01*
X154702945Y-91131550D01*
X154853348Y-91038478D01*
X154978305Y-90913303D01*
X154982146Y-90907072D01*
X155067275Y-90768968D01*
X155067276Y-90768966D01*
X155071115Y-90762738D01*
X155118731Y-90619180D01*
X155124632Y-90601389D01*
X155124632Y-90601387D01*
X155126797Y-90594861D01*
X155137500Y-90490400D01*
X155137500Y-89389600D01*
X155126526Y-89283835D01*
X155119090Y-89261545D01*
X155072868Y-89123003D01*
X155070550Y-89116055D01*
X154977478Y-88965652D01*
X154852303Y-88840695D01*
X154846072Y-88836854D01*
X154707968Y-88751725D01*
X154707966Y-88751724D01*
X154701738Y-88747885D01*
X154607024Y-88716470D01*
X154540389Y-88694368D01*
X154540387Y-88694368D01*
X154533861Y-88692203D01*
X154527025Y-88691503D01*
X154527022Y-88691502D01*
X154483969Y-88687091D01*
X154429400Y-88681500D01*
X153328600Y-88681500D01*
X153325354Y-88681837D01*
X153325350Y-88681837D01*
X153229693Y-88691762D01*
X153229689Y-88691763D01*
X153222835Y-88692474D01*
X153216299Y-88694655D01*
X153216297Y-88694655D01*
X153123080Y-88725755D01*
X153055055Y-88748450D01*
X152904652Y-88841522D01*
X152779695Y-88966697D01*
X152775855Y-88972927D01*
X152775854Y-88972928D01*
X152700857Y-89094596D01*
X152686885Y-89117262D01*
X152684581Y-89124209D01*
X152638596Y-89262851D01*
X152631203Y-89285139D01*
X152620500Y-89389600D01*
X152620500Y-90490400D01*
X152010394Y-90490400D01*
X152063326Y-90376887D01*
X152067072Y-90366595D01*
X152121196Y-90164599D01*
X152123099Y-90153804D01*
X152141326Y-89945475D01*
X152141326Y-89934525D01*
X152123099Y-89726196D01*
X152121196Y-89715401D01*
X152067072Y-89513405D01*
X152063326Y-89503113D01*
X151974946Y-89313583D01*
X151969466Y-89304093D01*
X151940589Y-89262851D01*
X151930113Y-89254477D01*
X151916666Y-89261545D01*
X151251021Y-89927189D01*
X151243408Y-89941132D01*
X150576694Y-89941132D01*
X150579924Y-89895967D01*
X150608885Y-89850905D01*
X150879000Y-89580790D01*
X151558176Y-88901613D01*
X151564606Y-88889838D01*
X151555310Y-88877824D01*
X151514912Y-88849536D01*
X151505416Y-88844053D01*
X151315887Y-88755674D01*
X151305595Y-88751928D01*
X151103599Y-88697804D01*
X151092804Y-88695901D01*
X150884475Y-88677674D01*
X150873525Y-88677674D01*
X150665196Y-88695901D01*
X150654401Y-88697804D01*
X150473111Y-88746380D01*
X150402134Y-88744690D01*
X150343339Y-88704896D01*
X150315391Y-88639631D01*
X150314500Y-88624673D01*
X150314500Y-87467660D01*
X150334502Y-87399539D01*
X150351405Y-87378565D01*
X152910565Y-84819405D01*
X152972877Y-84785379D01*
X152999660Y-84782500D01*
X154657088Y-84782500D01*
X154665658Y-84782792D01*
X154715776Y-84786209D01*
X154715780Y-84786209D01*
X154723352Y-84786725D01*
X154730829Y-84785420D01*
X154730830Y-84785420D01*
X154757308Y-84780799D01*
X154786303Y-84775738D01*
X154792821Y-84774777D01*
X154856242Y-84767102D01*
X154863343Y-84764419D01*
X154865952Y-84763778D01*
X154882262Y-84759315D01*
X154884798Y-84758550D01*
X154892284Y-84757243D01*
X154950800Y-84731556D01*
X154956904Y-84729065D01*
X155009548Y-84709173D01*
X155009549Y-84709172D01*
X155016656Y-84706487D01*
X155022919Y-84702183D01*
X155025285Y-84700946D01*
X155040097Y-84692701D01*
X155042351Y-84691368D01*
X155049305Y-84688315D01*
X155100002Y-84649413D01*
X155105332Y-84645541D01*
X155151720Y-84613661D01*
X155151725Y-84613656D01*
X155157981Y-84609357D01*
X155172556Y-84592999D01*
X155194000Y-84568930D01*
X155194000Y-94998960D01*
X155155259Y-95002623D01*
X155151891Y-95002941D01*
X155140033Y-95003500D01*
X151191840Y-95003500D01*
X151178232Y-95002763D01*
X151146736Y-94999341D01*
X151146732Y-94999341D01*
X151140611Y-94998676D01*
X151122611Y-95000251D01*
X151090609Y-95003050D01*
X151085784Y-95003379D01*
X151083313Y-95003500D01*
X151080231Y-95003500D01*
X151057763Y-95005703D01*
X151037489Y-95007691D01*
X151036174Y-95007813D01*
X151003913Y-95010636D01*
X150943587Y-95015913D01*
X150938468Y-95017400D01*
X150933167Y-95017920D01*
X150844133Y-95044801D01*
X150843000Y-95045136D01*
X150759578Y-95069373D01*
X150759574Y-95069375D01*
X150753663Y-95071092D01*
X150748934Y-95073543D01*
X150743831Y-95075084D01*
X150661669Y-95118770D01*
X150660627Y-95119317D01*
X150583545Y-95159272D01*
X150578074Y-95162108D01*
X150573911Y-95165431D01*
X150569204Y-95167934D01*
X150564430Y-95171828D01*
X150564428Y-95171829D01*
X150497105Y-95226737D01*
X150496160Y-95227500D01*
X150457027Y-95258739D01*
X150454536Y-95261230D01*
X150453809Y-95261880D01*
X150449463Y-95265592D01*
X150430588Y-95280987D01*
X150415938Y-95292935D01*
X150412015Y-95297677D01*
X150412013Y-95297679D01*
X150386703Y-95328273D01*
X150378713Y-95337053D01*
X149994671Y-95721095D01*
X149932359Y-95755121D01*
X149905576Y-95758000D01*
X143882500Y-95758000D01*
X143814379Y-95737998D01*
X143767886Y-95684342D01*
X143756500Y-95632000D01*
X143756500Y-93082740D01*
X143779287Y-93010469D01*
X143856544Y-92900135D01*
X143885523Y-92858749D01*
X143887846Y-92853767D01*
X143887849Y-92853762D01*
X143979961Y-92656225D01*
X143979961Y-92656224D01*
X143982284Y-92651243D01*
X144007779Y-92556097D01*
X144040119Y-92435402D01*
X144040119Y-92435400D01*
X144041543Y-92430087D01*
X144060323Y-92215431D01*
X144968512Y-92215431D01*
X145022817Y-92441624D01*
X145025866Y-92451009D01*
X145118936Y-92675700D01*
X145123417Y-92684494D01*
X145250496Y-92891867D01*
X145256289Y-92899840D01*
X145414249Y-93084787D01*
X145421213Y-93091751D01*
X145606160Y-93249711D01*
X145614133Y-93255504D01*
X145821506Y-93382583D01*
X145830300Y-93387064D01*
X146054991Y-93480134D01*
X146064376Y-93483183D01*
X146286385Y-93536483D01*
X146300470Y-93535778D01*
X146304000Y-93526899D01*
X146304000Y-93522597D01*
X146812000Y-93522597D01*
X146815973Y-93536128D01*
X146825431Y-93537488D01*
X147051624Y-93483183D01*
X147061009Y-93480134D01*
X147285700Y-93387064D01*
X147294494Y-93382583D01*
X147501867Y-93255504D01*
X147509840Y-93249711D01*
X147694787Y-93091751D01*
X147701751Y-93084787D01*
X147859711Y-92899840D01*
X147865504Y-92891867D01*
X147992583Y-92684494D01*
X147997064Y-92675700D01*
X148090134Y-92451009D01*
X148093183Y-92441624D01*
X148146483Y-92219615D01*
X148145778Y-92205530D01*
X148136899Y-92202000D01*
X146830115Y-92202000D01*
X146814876Y-92206475D01*
X146813671Y-92207865D01*
X146812000Y-92215548D01*
X146812000Y-93522597D01*
X146304000Y-93522597D01*
X146304000Y-92220115D01*
X146299525Y-92204876D01*
X146298135Y-92203671D01*
X146290452Y-92202000D01*
X144983403Y-92202000D01*
X144969872Y-92205973D01*
X144968512Y-92215431D01*
X144060323Y-92215431D01*
X144061498Y-92202000D01*
X144041543Y-91973913D01*
X144033279Y-91943070D01*
X143983707Y-91758067D01*
X143983706Y-91758065D01*
X143982284Y-91752757D01*
X143956428Y-91697308D01*
X143946672Y-91676385D01*
X144969517Y-91676385D01*
X144970222Y-91690470D01*
X144979101Y-91694000D01*
X146285885Y-91694000D01*
X146301124Y-91689525D01*
X146302329Y-91688135D01*
X146304000Y-91680452D01*
X146304000Y-91675885D01*
X146812000Y-91675885D01*
X146816475Y-91691124D01*
X146817865Y-91692329D01*
X146825548Y-91694000D01*
X148132597Y-91694000D01*
X148146128Y-91690027D01*
X148147488Y-91680569D01*
X148093183Y-91454376D01*
X148090134Y-91444991D01*
X147997064Y-91220300D01*
X147992583Y-91211506D01*
X147865504Y-91004133D01*
X147859711Y-90996160D01*
X147701751Y-90811213D01*
X147694787Y-90804249D01*
X147509840Y-90646289D01*
X147501867Y-90640496D01*
X147294494Y-90513417D01*
X147285700Y-90508936D01*
X147061009Y-90415866D01*
X147051624Y-90412817D01*
X146829615Y-90359517D01*
X146815530Y-90360222D01*
X146812000Y-90369101D01*
X146812000Y-91675885D01*
X146304000Y-91675885D01*
X146304000Y-90373403D01*
X146300027Y-90359872D01*
X146290569Y-90358512D01*
X146064376Y-90412817D01*
X146054991Y-90415866D01*
X145830300Y-90508936D01*
X145821506Y-90513417D01*
X145614133Y-90640496D01*
X145606160Y-90646289D01*
X145421213Y-90804249D01*
X145414249Y-90811213D01*
X145256289Y-90996160D01*
X145250496Y-91004133D01*
X145123417Y-91211506D01*
X145118936Y-91220300D01*
X145025866Y-91444991D01*
X145022817Y-91454376D01*
X144969517Y-91676385D01*
X143946672Y-91676385D01*
X143887849Y-91550238D01*
X143887846Y-91550233D01*
X143885523Y-91545251D01*
X143754198Y-91357700D01*
X143592300Y-91195802D01*
X143587792Y-91192645D01*
X143587789Y-91192643D01*
X143500539Y-91131550D01*
X143404749Y-91064477D01*
X143399767Y-91062154D01*
X143399762Y-91062151D01*
X143202225Y-90970039D01*
X143202224Y-90970039D01*
X143197243Y-90967716D01*
X143191935Y-90966294D01*
X143191933Y-90966293D01*
X142981402Y-90909881D01*
X142981400Y-90909881D01*
X142976087Y-90908457D01*
X142748000Y-90888502D01*
X142519913Y-90908457D01*
X142514600Y-90909881D01*
X142514598Y-90909881D01*
X142304067Y-90966293D01*
X142304065Y-90966294D01*
X142298757Y-90967716D01*
X142293776Y-90970039D01*
X142293775Y-90970039D01*
X142096238Y-91062151D01*
X142096233Y-91062154D01*
X142091251Y-91064477D01*
X141995461Y-91131550D01*
X141908211Y-91192643D01*
X141908208Y-91192645D01*
X141903700Y-91195802D01*
X141741802Y-91357700D01*
X141610477Y-91545251D01*
X141608154Y-91550233D01*
X141608151Y-91550238D01*
X141539572Y-91697308D01*
X141513716Y-91752757D01*
X141512294Y-91758065D01*
X141512293Y-91758067D01*
X141462721Y-91943070D01*
X141454457Y-91973913D01*
X141434502Y-92202000D01*
X141454457Y-92430087D01*
X141455881Y-92435400D01*
X141455881Y-92435402D01*
X141488222Y-92556097D01*
X141513716Y-92651243D01*
X141516039Y-92656224D01*
X141516039Y-92656225D01*
X141608151Y-92853762D01*
X141608154Y-92853767D01*
X141610477Y-92858749D01*
X141639456Y-92900135D01*
X141716713Y-93010469D01*
X141739500Y-93082740D01*
X141739500Y-95632000D01*
X141719498Y-95700121D01*
X141665842Y-95746614D01*
X141613500Y-95758000D01*
X127952968Y-95758000D01*
X127884847Y-95737998D01*
X127857514Y-95714247D01*
X127853571Y-95709671D01*
X127853570Y-95709670D01*
X127847713Y-95702873D01*
X127826165Y-95688906D01*
X127811291Y-95677615D01*
X127798783Y-95666569D01*
X127798782Y-95666568D01*
X127792049Y-95660622D01*
X127765287Y-95648057D01*
X127750309Y-95639737D01*
X127733017Y-95628529D01*
X127733012Y-95628527D01*
X127725485Y-95623648D01*
X127716892Y-95621078D01*
X127716887Y-95621076D01*
X127700880Y-95616289D01*
X127683436Y-95609628D01*
X127668324Y-95602533D01*
X127668322Y-95602532D01*
X127660200Y-95598719D01*
X127651333Y-95597338D01*
X127651332Y-95597338D01*
X127641690Y-95595837D01*
X127630983Y-95594170D01*
X127614268Y-95590387D01*
X127594534Y-95584485D01*
X127594528Y-95584484D01*
X127585934Y-95581914D01*
X127576963Y-95581859D01*
X127576962Y-95581859D01*
X127566903Y-95581798D01*
X127551494Y-95581704D01*
X127550711Y-95581671D01*
X127549614Y-95581500D01*
X127518623Y-95581500D01*
X127517853Y-95581498D01*
X127444215Y-95581048D01*
X127444214Y-95581048D01*
X127440279Y-95581024D01*
X127438935Y-95581408D01*
X127437590Y-95581500D01*
X125984000Y-95581500D01*
X125984000Y-91163658D01*
X126090651Y-91131458D01*
X126101993Y-91126783D01*
X126269977Y-91037465D01*
X126280193Y-91030678D01*
X126427634Y-90910428D01*
X126436338Y-90901784D01*
X126554806Y-90758579D01*
X126613639Y-90718841D01*
X126684617Y-90717218D01*
X126740986Y-90749799D01*
X127518595Y-91527408D01*
X127552621Y-91589720D01*
X127555500Y-91616503D01*
X127555500Y-92985812D01*
X127535498Y-93053933D01*
X127518595Y-93074907D01*
X127457802Y-93135700D01*
X127326477Y-93323251D01*
X127324154Y-93328233D01*
X127324151Y-93328238D01*
X127233521Y-93522597D01*
X127229716Y-93530757D01*
X127228294Y-93536065D01*
X127228293Y-93536067D01*
X127226808Y-93541609D01*
X127170457Y-93751913D01*
X127150502Y-93980000D01*
X127170457Y-94208087D01*
X127229716Y-94429243D01*
X127232039Y-94434224D01*
X127232039Y-94434225D01*
X127324151Y-94631762D01*
X127324154Y-94631767D01*
X127326477Y-94636749D01*
X127457802Y-94824300D01*
X127619700Y-94986198D01*
X127624208Y-94989355D01*
X127624211Y-94989357D01*
X127702389Y-95044098D01*
X127807251Y-95117523D01*
X127812233Y-95119846D01*
X127812238Y-95119849D01*
X128009775Y-95211961D01*
X128014757Y-95214284D01*
X128020065Y-95215706D01*
X128020067Y-95215707D01*
X128230598Y-95272119D01*
X128230600Y-95272119D01*
X128235913Y-95273543D01*
X128464000Y-95293498D01*
X128692087Y-95273543D01*
X128697400Y-95272119D01*
X128697402Y-95272119D01*
X128907933Y-95215707D01*
X128907935Y-95215706D01*
X128913243Y-95214284D01*
X128918225Y-95211961D01*
X129115762Y-95119849D01*
X129115767Y-95119846D01*
X129120749Y-95117523D01*
X129225611Y-95044098D01*
X129303789Y-94989357D01*
X129303792Y-94989355D01*
X129308300Y-94986198D01*
X129470198Y-94824300D01*
X129601523Y-94636749D01*
X129603846Y-94631767D01*
X129603849Y-94631762D01*
X129695961Y-94434225D01*
X129695961Y-94434224D01*
X129698284Y-94429243D01*
X129757543Y-94208087D01*
X129777498Y-93980000D01*
X129757543Y-93751913D01*
X129701192Y-93541609D01*
X129699707Y-93536067D01*
X129699706Y-93536065D01*
X129698284Y-93530757D01*
X129694479Y-93522597D01*
X129603849Y-93328238D01*
X129603846Y-93328233D01*
X129601523Y-93323251D01*
X129470198Y-93135700D01*
X129409405Y-93074907D01*
X129375379Y-93012595D01*
X129372500Y-92985812D01*
X129372500Y-91948000D01*
X137832526Y-91948000D01*
X137852391Y-92200403D01*
X137853545Y-92205210D01*
X137853546Y-92205216D01*
X137879503Y-92313334D01*
X137911495Y-92446591D01*
X137913388Y-92451162D01*
X137913389Y-92451164D01*
X138003090Y-92667720D01*
X138008384Y-92680502D01*
X138140672Y-92896376D01*
X138275239Y-93053933D01*
X138299843Y-93082740D01*
X138305102Y-93088898D01*
X138497624Y-93253328D01*
X138713498Y-93385616D01*
X138718068Y-93387509D01*
X138718072Y-93387511D01*
X138942836Y-93480611D01*
X138947409Y-93482505D01*
X139032032Y-93502821D01*
X139188784Y-93540454D01*
X139188790Y-93540455D01*
X139193597Y-93541609D01*
X139446000Y-93561474D01*
X139698403Y-93541609D01*
X139703210Y-93540455D01*
X139703216Y-93540454D01*
X139859968Y-93502821D01*
X139944591Y-93482505D01*
X139949164Y-93480611D01*
X140173928Y-93387511D01*
X140173932Y-93387509D01*
X140178502Y-93385616D01*
X140394376Y-93253328D01*
X140586898Y-93088898D01*
X140592158Y-93082740D01*
X140616761Y-93053933D01*
X140751328Y-92896376D01*
X140883616Y-92680502D01*
X140888911Y-92667720D01*
X140978611Y-92451164D01*
X140978612Y-92451162D01*
X140980505Y-92446591D01*
X141012497Y-92313334D01*
X141038454Y-92205216D01*
X141038455Y-92205210D01*
X141039609Y-92200403D01*
X141059474Y-91948000D01*
X141039609Y-91695597D01*
X141038379Y-91690470D01*
X140981660Y-91454221D01*
X140980505Y-91449409D01*
X140978611Y-91444836D01*
X140885511Y-91220072D01*
X140885509Y-91220068D01*
X140883616Y-91215498D01*
X140751328Y-90999624D01*
X140586898Y-90807102D01*
X140394376Y-90642672D01*
X140178502Y-90510384D01*
X140173932Y-90508491D01*
X140173928Y-90508489D01*
X139949164Y-90415389D01*
X139949162Y-90415388D01*
X139944591Y-90413495D01*
X139859968Y-90393179D01*
X139703216Y-90355546D01*
X139703210Y-90355545D01*
X139698403Y-90354391D01*
X139446000Y-90334526D01*
X139193597Y-90354391D01*
X139188790Y-90355545D01*
X139188784Y-90355546D01*
X139032032Y-90393179D01*
X138947409Y-90413495D01*
X138942838Y-90415388D01*
X138942836Y-90415389D01*
X138718072Y-90508489D01*
X138718068Y-90508491D01*
X138713498Y-90510384D01*
X138497624Y-90642672D01*
X138305102Y-90807102D01*
X138140672Y-90999624D01*
X138008384Y-91215498D01*
X138006491Y-91220068D01*
X138006489Y-91220072D01*
X137913389Y-91444836D01*
X137911495Y-91449409D01*
X137910340Y-91454221D01*
X137853622Y-91690470D01*
X137852391Y-91695597D01*
X137832526Y-91948000D01*
X129372500Y-91948000D01*
X129372500Y-91269417D01*
X129374051Y-91249707D01*
X129375220Y-91242327D01*
X129375220Y-91242326D01*
X129376252Y-91235810D01*
X129375440Y-91220300D01*
X129372673Y-91167520D01*
X129372500Y-91160926D01*
X129372500Y-89642503D01*
X129392502Y-89574382D01*
X129409405Y-89553408D01*
X132356948Y-86605865D01*
X132419260Y-86571839D01*
X132490075Y-86576904D01*
X132549256Y-86622689D01*
X132601093Y-86696719D01*
X132607802Y-86706300D01*
X132769700Y-86868198D01*
X132774208Y-86871355D01*
X132774211Y-86871357D01*
X132794621Y-86885648D01*
X132957251Y-86999523D01*
X132962233Y-87001846D01*
X132962238Y-87001849D01*
X132996457Y-87017805D01*
X133049742Y-87064722D01*
X133069203Y-87132999D01*
X133048661Y-87200959D01*
X132996457Y-87246195D01*
X132962238Y-87262151D01*
X132962233Y-87262154D01*
X132957251Y-87264477D01*
X132943284Y-87274257D01*
X132774211Y-87392643D01*
X132774208Y-87392645D01*
X132769700Y-87395802D01*
X132607802Y-87557700D01*
X132476477Y-87745251D01*
X132474154Y-87750233D01*
X132474151Y-87750238D01*
X132434955Y-87834295D01*
X132379716Y-87952757D01*
X132378294Y-87958065D01*
X132378293Y-87958067D01*
X132333087Y-88126778D01*
X132320457Y-88173913D01*
X132300502Y-88402000D01*
X132320457Y-88630087D01*
X132321881Y-88635400D01*
X132321881Y-88635402D01*
X132376890Y-88840695D01*
X132379716Y-88851243D01*
X132382039Y-88856224D01*
X132382039Y-88856225D01*
X132474151Y-89053762D01*
X132474154Y-89053767D01*
X132476477Y-89058749D01*
X132607802Y-89246300D01*
X132769700Y-89408198D01*
X132774208Y-89411355D01*
X132774211Y-89411357D01*
X132852389Y-89466098D01*
X132957251Y-89539523D01*
X132962233Y-89541846D01*
X132962238Y-89541849D01*
X133159775Y-89633961D01*
X133164757Y-89636284D01*
X133170065Y-89637706D01*
X133170067Y-89637707D01*
X133380598Y-89694119D01*
X133380600Y-89694119D01*
X133385913Y-89695543D01*
X133614000Y-89715498D01*
X133842087Y-89695543D01*
X133847400Y-89694119D01*
X133847402Y-89694119D01*
X134057933Y-89637707D01*
X134057935Y-89637706D01*
X134063243Y-89636284D01*
X134068225Y-89633961D01*
X134265762Y-89541849D01*
X134265767Y-89541846D01*
X134270749Y-89539523D01*
X134375611Y-89466098D01*
X134453789Y-89411357D01*
X134453792Y-89411355D01*
X134458300Y-89408198D01*
X134620198Y-89246300D01*
X134751523Y-89058749D01*
X134753846Y-89053767D01*
X134753849Y-89053762D01*
X134845961Y-88856225D01*
X134845961Y-88856224D01*
X134848284Y-88851243D01*
X134851111Y-88840695D01*
X134906119Y-88635402D01*
X134906119Y-88635400D01*
X134907543Y-88630087D01*
X134927498Y-88402000D01*
X134907543Y-88173913D01*
X134858025Y-87989111D01*
X134859715Y-87918135D01*
X134899509Y-87859339D01*
X134964773Y-87831391D01*
X134979732Y-87830500D01*
X139868268Y-87830500D01*
X139936389Y-87850502D01*
X139982882Y-87904158D01*
X139992986Y-87974432D01*
X139989975Y-87989109D01*
X139940457Y-88173913D01*
X139920502Y-88402000D01*
X139940457Y-88630087D01*
X139941881Y-88635400D01*
X139941881Y-88635402D01*
X139996890Y-88840695D01*
X139999716Y-88851243D01*
X140002039Y-88856224D01*
X140002039Y-88856225D01*
X140094151Y-89053762D01*
X140094154Y-89053767D01*
X140096477Y-89058749D01*
X140227802Y-89246300D01*
X140389700Y-89408198D01*
X140394208Y-89411355D01*
X140394211Y-89411357D01*
X140472389Y-89466098D01*
X140577251Y-89539523D01*
X140582233Y-89541846D01*
X140582238Y-89541849D01*
X140779775Y-89633961D01*
X140784757Y-89636284D01*
X140790065Y-89637706D01*
X140790067Y-89637707D01*
X141000598Y-89694119D01*
X141000600Y-89694119D01*
X141005913Y-89695543D01*
X141234000Y-89715498D01*
X141462087Y-89695543D01*
X141467400Y-89694119D01*
X141467402Y-89694119D01*
X141677933Y-89637707D01*
X141677935Y-89637706D01*
X141683243Y-89636284D01*
X141688225Y-89633961D01*
X141885762Y-89541849D01*
X141885767Y-89541846D01*
X141890749Y-89539523D01*
X141995611Y-89466098D01*
X142073789Y-89411357D01*
X142073792Y-89411355D01*
X142078300Y-89408198D01*
X142240198Y-89246300D01*
X142371523Y-89058749D01*
X142373846Y-89053767D01*
X142373849Y-89053762D01*
X142465961Y-88856225D01*
X142465961Y-88856224D01*
X142468284Y-88851243D01*
X142471111Y-88840695D01*
X142526119Y-88635402D01*
X142526119Y-88635400D01*
X142527543Y-88630087D01*
X142539407Y-88494477D01*
X142541755Y-88467646D01*
X142567619Y-88401528D01*
X142625122Y-88359889D01*
X142696009Y-88355948D01*
X142762226Y-88395800D01*
X142773442Y-88408658D01*
X142773447Y-88408662D01*
X142778439Y-88414385D01*
X142784657Y-88418755D01*
X142830697Y-88451112D01*
X142835993Y-88455045D01*
X142886282Y-88494477D01*
X142893204Y-88497602D01*
X142895452Y-88498964D01*
X142910185Y-88507368D01*
X142912524Y-88508622D01*
X142918739Y-88512990D01*
X142925815Y-88515749D01*
X142925819Y-88515751D01*
X142978269Y-88536200D01*
X142984334Y-88538749D01*
X143042573Y-88565045D01*
X143050038Y-88566429D01*
X143052582Y-88567226D01*
X143068848Y-88571859D01*
X143071428Y-88572521D01*
X143078509Y-88575282D01*
X143086042Y-88576274D01*
X143086043Y-88576274D01*
X143118699Y-88580573D01*
X143141857Y-88583622D01*
X143148355Y-88584650D01*
X143211187Y-88596296D01*
X143218767Y-88595859D01*
X143218768Y-88595859D01*
X143273398Y-88592709D01*
X143280651Y-88592500D01*
X144149160Y-88592500D01*
X144219618Y-88614041D01*
X144273817Y-88650599D01*
X144273822Y-88650602D01*
X144277536Y-88653107D01*
X144281573Y-88655063D01*
X144281575Y-88655064D01*
X144302531Y-88665217D01*
X144406428Y-88715554D01*
X144545188Y-88759838D01*
X144686426Y-88783600D01*
X144765373Y-88790682D01*
X144767795Y-88790712D01*
X144767802Y-88790712D01*
X144771116Y-88790752D01*
X144777715Y-88790833D01*
X144852035Y-88785995D01*
X144860221Y-88785729D01*
X145204519Y-88785729D01*
X145215778Y-88786233D01*
X145265373Y-88790682D01*
X145267795Y-88790712D01*
X145267802Y-88790712D01*
X145271116Y-88790752D01*
X145277715Y-88790833D01*
X145314007Y-88788471D01*
X145354408Y-88785841D01*
X145354418Y-88785840D01*
X145356829Y-88785683D01*
X145371374Y-88783600D01*
X145494161Y-88766016D01*
X145494167Y-88766015D01*
X145498606Y-88765379D01*
X145502911Y-88764120D01*
X145502916Y-88764119D01*
X145634108Y-88725755D01*
X145638410Y-88724497D01*
X145768789Y-88665217D01*
X145772560Y-88662805D01*
X145772568Y-88662801D01*
X145887721Y-88589157D01*
X145887722Y-88589156D01*
X145891497Y-88586742D01*
X145999998Y-88493252D01*
X146095750Y-88383489D01*
X146106072Y-88367565D01*
X146157159Y-88288747D01*
X146173650Y-88263304D01*
X146183039Y-88242984D01*
X146232868Y-88135145D01*
X146232869Y-88135143D01*
X146234748Y-88131076D01*
X146275784Y-87993858D01*
X146276494Y-87989111D01*
X146296650Y-87854235D01*
X146296650Y-87854232D01*
X146297312Y-87849804D01*
X146298187Y-87706583D01*
X146297852Y-87704139D01*
X146297729Y-87700344D01*
X146297729Y-87272000D01*
X146292500Y-87198889D01*
X146287632Y-87182310D01*
X146287632Y-87111313D01*
X146326016Y-87051587D01*
X146337161Y-87042972D01*
X146382721Y-87011660D01*
X146382725Y-87011657D01*
X146388981Y-87007357D01*
X146406865Y-86987285D01*
X146430435Y-86960830D01*
X146435416Y-86955554D01*
X150597141Y-82793829D01*
X150659453Y-82759803D01*
X150697214Y-82757403D01*
X150879000Y-82773307D01*
X151098371Y-82754115D01*
X151311076Y-82697120D01*
X151510654Y-82604056D01*
X151639679Y-82513711D01*
X151686527Y-82480908D01*
X151686529Y-82480906D01*
X151691038Y-82477749D01*
X151846749Y-82322038D01*
X151851116Y-82315802D01*
X151969899Y-82146162D01*
X151969900Y-82146160D01*
X151973056Y-82141653D01*
X151975379Y-82136671D01*
X151975382Y-82136666D01*
X152046234Y-81984722D01*
X152066120Y-81942076D01*
X152123115Y-81729371D01*
X152142307Y-81510000D01*
X152123115Y-81290629D01*
X152066120Y-81077924D01*
X152037113Y-81015718D01*
X152026452Y-80945526D01*
X152055432Y-80880713D01*
X152114852Y-80841857D01*
X152185846Y-80841294D01*
X152240403Y-80873373D01*
X152595171Y-81228141D01*
X152629197Y-81290453D01*
X152631597Y-81328214D01*
X152615693Y-81510000D01*
X152634885Y-81729371D01*
X152691880Y-81942076D01*
X152711766Y-81984722D01*
X152782618Y-82136666D01*
X152782621Y-82136671D01*
X152784944Y-82141653D01*
X152788100Y-82146160D01*
X152788101Y-82146162D01*
X152906885Y-82315802D01*
X152911251Y-82322038D01*
X153066962Y-82477749D01*
X153071471Y-82480906D01*
X153071473Y-82480908D01*
X153118321Y-82513711D01*
X153247346Y-82604056D01*
X153446924Y-82697120D01*
X153659629Y-82754115D01*
X153879000Y-82773307D01*
X154098371Y-82754115D01*
X154311076Y-82697120D01*
X154510654Y-82604056D01*
X154639679Y-82513711D01*
X154686527Y-82480908D01*
X154686529Y-82480906D01*
X154691038Y-82477749D01*
X154846749Y-82322038D01*
X154851116Y-82315802D01*
X154969899Y-82146162D01*
X154969900Y-82146160D01*
X154973056Y-82141653D01*
X154975379Y-82136671D01*
X154975382Y-82136666D01*
X155046234Y-81984722D01*
X155066120Y-81942076D01*
X155123115Y-81729371D01*
X155142307Y-81510000D01*
X155123115Y-81290629D01*
X155066120Y-81077924D01*
X155004382Y-80945526D01*
X154975382Y-80883334D01*
X154975379Y-80883329D01*
X154973056Y-80878347D01*
X154969573Y-80873373D01*
X154849908Y-80702473D01*
X154849906Y-80702470D01*
X154846749Y-80697962D01*
X154691038Y-80542251D01*
X154510654Y-80415944D01*
X154311076Y-80322880D01*
X154098371Y-80265885D01*
X153879000Y-80246693D01*
X153697216Y-80262597D01*
X153627613Y-80248608D01*
X153597141Y-80226171D01*
X153354565Y-79983595D01*
X153320539Y-79921283D01*
X153325604Y-79850468D01*
X153368151Y-79793632D01*
X153434671Y-79768821D01*
X153443660Y-79768500D01*
X154429400Y-79768500D01*
X154432646Y-79768163D01*
X154432650Y-79768163D01*
X154528307Y-79758238D01*
X154528311Y-79758237D01*
X154535165Y-79757526D01*
X154541701Y-79755345D01*
X154541703Y-79755345D01*
X154695997Y-79703868D01*
X154702945Y-79701550D01*
X154853348Y-79608478D01*
X154978305Y-79483303D01*
X154987429Y-79468502D01*
X155067275Y-79338968D01*
X155067276Y-79338966D01*
X155071115Y-79332738D01*
X155126797Y-79164861D01*
X155127545Y-79157568D01*
X155137172Y-79063598D01*
X155137500Y-79060400D01*
X155137500Y-77959600D01*
X155138630Y-77959600D01*
X155154010Y-77895016D01*
X155194000Y-77856563D01*
X155194000Y-82564030D01*
G37*
G04 #@! TD.AperFunction*
G04 #@! TA.AperFunction,Conductor*
G36*
X126002940Y-78063695D02*
G01*
X126010617Y-78065666D01*
X126010622Y-78065668D01*
X126022558Y-78068732D01*
X126041266Y-78075137D01*
X126059855Y-78083181D01*
X126067683Y-78084421D01*
X126067690Y-78084423D01*
X126103524Y-78090099D01*
X126115144Y-78092505D01*
X126150289Y-78101528D01*
X126157970Y-78103500D01*
X126178224Y-78103500D01*
X126197934Y-78105051D01*
X126217943Y-78108220D01*
X126225835Y-78107474D01*
X126261961Y-78104059D01*
X126273819Y-78103500D01*
X127555918Y-78103500D01*
X127624039Y-78123502D01*
X127670532Y-78177158D01*
X127680636Y-78247432D01*
X127670112Y-78282751D01*
X127665414Y-78292827D01*
X127661716Y-78300757D01*
X127660294Y-78306065D01*
X127660293Y-78306067D01*
X127604182Y-78515475D01*
X127602457Y-78521913D01*
X127582502Y-78750000D01*
X127602457Y-78978087D01*
X127603881Y-78983400D01*
X127603881Y-78983402D01*
X127641086Y-79122250D01*
X127661716Y-79199243D01*
X127664039Y-79204224D01*
X127664039Y-79204225D01*
X127756151Y-79401762D01*
X127756154Y-79401767D01*
X127758477Y-79406749D01*
X127889802Y-79594300D01*
X128051700Y-79756198D01*
X128056208Y-79759355D01*
X128056211Y-79759357D01*
X128105161Y-79793632D01*
X128239251Y-79887523D01*
X128244233Y-79889846D01*
X128244238Y-79889849D01*
X128278457Y-79905805D01*
X128331742Y-79952722D01*
X128351203Y-80020999D01*
X128330661Y-80088959D01*
X128278457Y-80134195D01*
X128244238Y-80150151D01*
X128244233Y-80150154D01*
X128239251Y-80152477D01*
X128134389Y-80225902D01*
X128056211Y-80280643D01*
X128056208Y-80280645D01*
X128051700Y-80283802D01*
X127889802Y-80445700D01*
X127886645Y-80450208D01*
X127886643Y-80450211D01*
X127862662Y-80484460D01*
X127758477Y-80633251D01*
X127756154Y-80638233D01*
X127756151Y-80638238D01*
X127664039Y-80835775D01*
X127661716Y-80840757D01*
X127660294Y-80846065D01*
X127660293Y-80846067D01*
X127611443Y-81028376D01*
X127602457Y-81061913D01*
X127582502Y-81290000D01*
X127602457Y-81518087D01*
X127603881Y-81523400D01*
X127603881Y-81523402D01*
X127654709Y-81713091D01*
X127661716Y-81739243D01*
X127664039Y-81744224D01*
X127664039Y-81744225D01*
X127756151Y-81941762D01*
X127756154Y-81941767D01*
X127758477Y-81946749D01*
X127761634Y-81951257D01*
X127882616Y-82124037D01*
X127889802Y-82134300D01*
X128051700Y-82296198D01*
X128056208Y-82299355D01*
X128056211Y-82299357D01*
X128134389Y-82354098D01*
X128239251Y-82427523D01*
X128244233Y-82429846D01*
X128244238Y-82429849D01*
X128278457Y-82445805D01*
X128331742Y-82492722D01*
X128351203Y-82560999D01*
X128330661Y-82628959D01*
X128278457Y-82674195D01*
X128244238Y-82690151D01*
X128244233Y-82690154D01*
X128239251Y-82692477D01*
X128158097Y-82749302D01*
X128056211Y-82820643D01*
X128056208Y-82820645D01*
X128051700Y-82823802D01*
X127889802Y-82985700D01*
X127886645Y-82990208D01*
X127886643Y-82990211D01*
X127840943Y-83055478D01*
X127758477Y-83173251D01*
X127756154Y-83178233D01*
X127756151Y-83178238D01*
X127668830Y-83365500D01*
X127661716Y-83380757D01*
X127660294Y-83386065D01*
X127660293Y-83386067D01*
X127604712Y-83593497D01*
X127602457Y-83601913D01*
X127582502Y-83830000D01*
X127602457Y-84058087D01*
X127661716Y-84279243D01*
X127664039Y-84284224D01*
X127664039Y-84284225D01*
X127756151Y-84481762D01*
X127756154Y-84481767D01*
X127758477Y-84486749D01*
X127761634Y-84491257D01*
X127880461Y-84660959D01*
X127889802Y-84674300D01*
X128051700Y-84836198D01*
X128056208Y-84839355D01*
X128056211Y-84839357D01*
X128129968Y-84891002D01*
X128239251Y-84967523D01*
X128244233Y-84969846D01*
X128244238Y-84969849D01*
X128441775Y-85061961D01*
X128446757Y-85064284D01*
X128452065Y-85065706D01*
X128452067Y-85065707D01*
X128662598Y-85122119D01*
X128662600Y-85122119D01*
X128667913Y-85123543D01*
X128767480Y-85132254D01*
X128836149Y-85138262D01*
X128836156Y-85138262D01*
X128838873Y-85138500D01*
X129753127Y-85138500D01*
X129755844Y-85138262D01*
X129755851Y-85138262D01*
X129824520Y-85132254D01*
X129924087Y-85123543D01*
X129929400Y-85122119D01*
X129929402Y-85122119D01*
X130139933Y-85065707D01*
X130139935Y-85065706D01*
X130145243Y-85064284D01*
X130150225Y-85061961D01*
X130347762Y-84969849D01*
X130347767Y-84969846D01*
X130352749Y-84967523D01*
X130462032Y-84891002D01*
X130535789Y-84839357D01*
X130535792Y-84839355D01*
X130540300Y-84836198D01*
X130702198Y-84674300D01*
X130704042Y-84676144D01*
X130754014Y-84642853D01*
X130825001Y-84641683D01*
X130885352Y-84679078D01*
X130915905Y-84743164D01*
X130917500Y-84763148D01*
X130917500Y-85423497D01*
X130897498Y-85491618D01*
X130880595Y-85512592D01*
X127879168Y-88514019D01*
X127864135Y-88526860D01*
X127852747Y-88535134D01*
X127848327Y-88540043D01*
X127806984Y-88585959D01*
X127802443Y-88590744D01*
X127787928Y-88605259D01*
X127785852Y-88607823D01*
X127775006Y-88621216D01*
X127770722Y-88626231D01*
X127729381Y-88672145D01*
X127729377Y-88672150D01*
X127724960Y-88677056D01*
X127721660Y-88682772D01*
X127721657Y-88682776D01*
X127717927Y-88689237D01*
X127706727Y-88705533D01*
X127697871Y-88716470D01*
X127673593Y-88764119D01*
X127666815Y-88777421D01*
X127663669Y-88783215D01*
X127629473Y-88842444D01*
X127627139Y-88841096D01*
X127588940Y-88886078D01*
X127521022Y-88906758D01*
X127452706Y-88887435D01*
X127430672Y-88869859D01*
X126875981Y-88315168D01*
X126863140Y-88300135D01*
X126858746Y-88294087D01*
X126858745Y-88294086D01*
X126854866Y-88288747D01*
X126804041Y-88242984D01*
X126799256Y-88238443D01*
X126784741Y-88223928D01*
X126782179Y-88221853D01*
X126782173Y-88221848D01*
X126781199Y-88221059D01*
X126781038Y-88220826D01*
X126779719Y-88219638D01*
X126780001Y-88219325D01*
X126740851Y-88162642D01*
X126734500Y-88123144D01*
X126734500Y-87056866D01*
X126727745Y-86994684D01*
X126676615Y-86858295D01*
X126589261Y-86741739D01*
X126472705Y-86654385D01*
X126336316Y-86603255D01*
X126274134Y-86596500D01*
X125984000Y-86596500D01*
X125984000Y-78053283D01*
X126002940Y-78063695D01*
G37*
G04 #@! TD.AperFunction*
G04 #@! TA.AperFunction,Conductor*
G36*
X144908500Y-71549233D02*
G01*
X144907973Y-71560416D01*
X144906298Y-71567909D01*
X144906547Y-71575835D01*
X144906547Y-71575836D01*
X144908438Y-71635986D01*
X144908500Y-71639945D01*
X144908500Y-71667856D01*
X144908997Y-71671790D01*
X144908997Y-71671791D01*
X144909005Y-71671856D01*
X144909938Y-71683693D01*
X144911327Y-71727889D01*
X144914322Y-71738197D01*
X144916978Y-71747339D01*
X144920987Y-71766700D01*
X144923526Y-71786797D01*
X144926445Y-71794168D01*
X144926445Y-71794170D01*
X144939804Y-71827912D01*
X144943649Y-71839142D01*
X144950603Y-71863079D01*
X144955982Y-71881593D01*
X144960015Y-71888412D01*
X144960017Y-71888417D01*
X144966293Y-71899028D01*
X144974988Y-71916776D01*
X144982448Y-71935617D01*
X144987110Y-71942033D01*
X144987110Y-71942034D01*
X145008436Y-71971387D01*
X145014952Y-71981307D01*
X145018385Y-71987111D01*
X145037458Y-72019362D01*
X145051779Y-72033683D01*
X145064619Y-72048716D01*
X145076528Y-72065107D01*
X145092956Y-72078697D01*
X145110593Y-72093288D01*
X145119374Y-72101278D01*
X145800353Y-72782258D01*
X145807887Y-72790537D01*
X145812000Y-72797018D01*
X145817780Y-72802446D01*
X145817781Y-72802447D01*
X145854648Y-72837067D01*
X145890613Y-72898279D01*
X145887776Y-72969219D01*
X145857490Y-73018012D01*
X145805802Y-73069700D01*
X145802645Y-73074208D01*
X145802643Y-73074211D01*
X145783878Y-73101010D01*
X145674477Y-73257251D01*
X145672154Y-73262233D01*
X145672151Y-73262238D01*
X145594914Y-73427876D01*
X145577716Y-73464757D01*
X145518457Y-73685913D01*
X145498502Y-73914000D01*
X145518457Y-74142087D01*
X145519880Y-74147398D01*
X145519882Y-74147409D01*
X145534546Y-74202133D01*
X145532857Y-74273109D01*
X145493064Y-74331906D01*
X145427799Y-74359854D01*
X145357786Y-74348081D01*
X145323745Y-74323840D01*
X143672405Y-72672500D01*
X143638379Y-72610188D01*
X143635500Y-72583405D01*
X143635500Y-68912763D01*
X143636027Y-68901579D01*
X143637701Y-68894091D01*
X143635562Y-68826032D01*
X143635500Y-68822075D01*
X143635500Y-68794144D01*
X143634994Y-68790138D01*
X143634061Y-68778292D01*
X143632922Y-68742037D01*
X143632673Y-68734110D01*
X143627022Y-68714658D01*
X143623014Y-68695306D01*
X143621468Y-68683068D01*
X143621467Y-68683066D01*
X143620474Y-68675203D01*
X143604194Y-68634086D01*
X143600359Y-68622885D01*
X143588018Y-68580406D01*
X143583985Y-68573587D01*
X143583983Y-68573582D01*
X143577707Y-68562971D01*
X143569010Y-68545221D01*
X143561552Y-68526383D01*
X143535571Y-68490623D01*
X143529053Y-68480701D01*
X143510578Y-68449460D01*
X143510574Y-68449455D01*
X143506542Y-68442637D01*
X143492218Y-68428313D01*
X143479376Y-68413278D01*
X143467472Y-68396893D01*
X143433406Y-68368711D01*
X143424627Y-68360722D01*
X141981652Y-66917747D01*
X141974112Y-66909461D01*
X141970000Y-66902982D01*
X141920348Y-66856356D01*
X141917507Y-66853602D01*
X141897770Y-66833865D01*
X141894573Y-66831385D01*
X141885551Y-66823680D01*
X141859100Y-66798841D01*
X141853321Y-66793414D01*
X141846375Y-66789595D01*
X141846372Y-66789593D01*
X141835566Y-66783652D01*
X141819047Y-66772801D01*
X141818583Y-66772441D01*
X141803041Y-66760386D01*
X141795772Y-66757241D01*
X141795768Y-66757238D01*
X141762463Y-66742826D01*
X141751813Y-66737609D01*
X141713060Y-66716305D01*
X141693437Y-66711267D01*
X141674734Y-66704863D01*
X141663420Y-66699967D01*
X141663419Y-66699967D01*
X141656145Y-66696819D01*
X141648322Y-66695580D01*
X141648312Y-66695577D01*
X141612476Y-66689901D01*
X141600856Y-66687495D01*
X141565711Y-66678472D01*
X141565710Y-66678472D01*
X141558030Y-66676500D01*
X141537776Y-66676500D01*
X141518065Y-66674949D01*
X141505886Y-66673020D01*
X141498057Y-66671780D01*
X141490165Y-66672526D01*
X141454039Y-66675941D01*
X141442181Y-66676500D01*
X137871394Y-66676500D01*
X137803273Y-66656498D01*
X137768181Y-66622771D01*
X137661357Y-66470211D01*
X137661355Y-66470208D01*
X137658198Y-66465700D01*
X137496300Y-66303802D01*
X137491792Y-66300645D01*
X137491789Y-66300643D01*
X137413611Y-66245902D01*
X137308749Y-66172477D01*
X137303767Y-66170154D01*
X137303762Y-66170151D01*
X137106225Y-66078039D01*
X137106224Y-66078039D01*
X137101243Y-66075716D01*
X137095935Y-66074294D01*
X137095933Y-66074293D01*
X136885402Y-66017881D01*
X136885400Y-66017881D01*
X136880087Y-66016457D01*
X136652000Y-65996502D01*
X136423913Y-66016457D01*
X136418600Y-66017881D01*
X136418598Y-66017881D01*
X136208067Y-66074293D01*
X136208065Y-66074294D01*
X136202757Y-66075716D01*
X136197776Y-66078039D01*
X136197775Y-66078039D01*
X136000238Y-66170151D01*
X136000233Y-66170154D01*
X135995251Y-66172477D01*
X135890389Y-66245902D01*
X135812211Y-66300643D01*
X135812208Y-66300645D01*
X135807700Y-66303802D01*
X135645802Y-66465700D01*
X135642645Y-66470208D01*
X135642643Y-66470211D01*
X135612533Y-66513213D01*
X135514477Y-66653251D01*
X135512154Y-66658233D01*
X135512151Y-66658238D01*
X135431409Y-66831392D01*
X135417716Y-66860757D01*
X135358457Y-67081913D01*
X135338502Y-67310000D01*
X135358457Y-67538087D01*
X135359881Y-67543400D01*
X135359881Y-67543402D01*
X135396268Y-67679197D01*
X135417716Y-67759243D01*
X135420039Y-67764224D01*
X135420039Y-67764225D01*
X135512151Y-67961762D01*
X135512154Y-67961767D01*
X135514477Y-67966749D01*
X135553719Y-68022792D01*
X135633490Y-68136716D01*
X135645802Y-68154300D01*
X135807700Y-68316198D01*
X135812208Y-68319355D01*
X135812211Y-68319357D01*
X135890389Y-68374098D01*
X135995251Y-68447523D01*
X136000233Y-68449846D01*
X136000238Y-68449849D01*
X136197771Y-68541959D01*
X136202757Y-68544284D01*
X136208065Y-68545706D01*
X136208067Y-68545707D01*
X136418598Y-68602119D01*
X136418600Y-68602119D01*
X136423913Y-68603543D01*
X136652000Y-68623498D01*
X136880087Y-68603543D01*
X136885400Y-68602119D01*
X136885402Y-68602119D01*
X137095933Y-68545707D01*
X137095935Y-68545706D01*
X137101243Y-68544284D01*
X137106229Y-68541959D01*
X137303762Y-68449849D01*
X137303767Y-68449846D01*
X137308749Y-68447523D01*
X137413611Y-68374098D01*
X137491789Y-68319357D01*
X137491792Y-68319355D01*
X137496300Y-68316198D01*
X137658198Y-68154300D01*
X137661357Y-68149789D01*
X137768181Y-67997229D01*
X137823638Y-67952901D01*
X137871394Y-67943500D01*
X141163406Y-67943500D01*
X141231527Y-67963502D01*
X141252501Y-67980405D01*
X142331595Y-69059499D01*
X142365621Y-69121811D01*
X142368500Y-69148594D01*
X142368500Y-72819233D01*
X142367973Y-72830416D01*
X142366298Y-72837909D01*
X142366547Y-72845835D01*
X142366547Y-72845836D01*
X142368438Y-72905986D01*
X142368500Y-72909945D01*
X142368500Y-72937856D01*
X142368997Y-72941790D01*
X142368997Y-72941791D01*
X142369005Y-72941856D01*
X142369938Y-72953693D01*
X142371327Y-72997889D01*
X142376978Y-73017339D01*
X142380987Y-73036700D01*
X142383526Y-73056797D01*
X142386445Y-73064168D01*
X142386445Y-73064170D01*
X142399804Y-73097912D01*
X142403649Y-73109142D01*
X142415982Y-73151593D01*
X142420015Y-73158412D01*
X142420017Y-73158417D01*
X142426293Y-73169028D01*
X142434988Y-73186776D01*
X142442448Y-73205617D01*
X142447110Y-73212033D01*
X142447110Y-73212034D01*
X142468436Y-73241387D01*
X142474952Y-73251307D01*
X142491228Y-73278827D01*
X142497458Y-73289362D01*
X142511779Y-73303683D01*
X142524619Y-73318716D01*
X142536528Y-73335107D01*
X142542634Y-73340158D01*
X142570605Y-73363298D01*
X142579384Y-73371288D01*
X145038343Y-75830247D01*
X145045887Y-75838537D01*
X145050000Y-75845018D01*
X145055777Y-75850443D01*
X145099667Y-75891658D01*
X145102509Y-75894413D01*
X145122230Y-75914134D01*
X145125425Y-75916612D01*
X145134447Y-75924318D01*
X145166679Y-75954586D01*
X145173628Y-75958406D01*
X145184432Y-75964346D01*
X145200956Y-75975199D01*
X145216959Y-75987613D01*
X145257543Y-76005176D01*
X145268173Y-76010383D01*
X145306940Y-76031695D01*
X145314617Y-76033666D01*
X145314622Y-76033668D01*
X145326558Y-76036732D01*
X145345266Y-76043137D01*
X145363855Y-76051181D01*
X145371680Y-76052420D01*
X145371682Y-76052421D01*
X145407519Y-76058097D01*
X145419140Y-76060504D01*
X145450959Y-76068673D01*
X145461970Y-76071500D01*
X145482231Y-76071500D01*
X145501940Y-76073051D01*
X145521943Y-76076219D01*
X145529835Y-76075473D01*
X145535062Y-76074979D01*
X145565954Y-76072059D01*
X145577811Y-76071500D01*
X145801812Y-76071500D01*
X145869933Y-76091502D01*
X145916426Y-76145158D01*
X145926530Y-76215432D01*
X145897036Y-76280012D01*
X145890907Y-76286595D01*
X145805802Y-76371700D01*
X145802645Y-76376208D01*
X145802643Y-76376211D01*
X145783012Y-76404247D01*
X145674477Y-76559251D01*
X145672154Y-76564233D01*
X145672151Y-76564238D01*
X145580039Y-76761775D01*
X145577716Y-76766757D01*
X145576294Y-76772065D01*
X145576293Y-76772067D01*
X145528756Y-76949478D01*
X145518457Y-76987913D01*
X145498502Y-77216000D01*
X145518457Y-77444087D01*
X145519881Y-77449400D01*
X145519881Y-77449402D01*
X145529031Y-77483548D01*
X145577716Y-77665243D01*
X145580039Y-77670224D01*
X145580039Y-77670225D01*
X145672151Y-77867762D01*
X145672154Y-77867767D01*
X145674477Y-77872749D01*
X145747902Y-77977611D01*
X145791259Y-78039530D01*
X145805802Y-78060300D01*
X145815907Y-78070405D01*
X145849933Y-78132717D01*
X145844868Y-78203532D01*
X145802321Y-78260368D01*
X145735801Y-78285179D01*
X145726812Y-78285500D01*
X143050927Y-78285500D01*
X143042358Y-78285208D01*
X142992225Y-78281790D01*
X142992221Y-78281790D01*
X142984648Y-78281274D01*
X142921681Y-78292264D01*
X142915169Y-78293224D01*
X142851758Y-78300898D01*
X142844657Y-78303581D01*
X142842048Y-78304222D01*
X142825715Y-78308691D01*
X142823195Y-78309452D01*
X142815717Y-78310757D01*
X142808765Y-78313809D01*
X142808764Y-78313809D01*
X142757204Y-78336441D01*
X142751099Y-78338932D01*
X142698456Y-78358825D01*
X142698452Y-78358827D01*
X142691344Y-78361513D01*
X142685083Y-78365816D01*
X142682717Y-78367053D01*
X142667937Y-78375280D01*
X142665652Y-78376631D01*
X142658695Y-78379685D01*
X142652675Y-78384305D01*
X142652669Y-78384308D01*
X142621542Y-78408194D01*
X142607998Y-78418587D01*
X142602668Y-78422459D01*
X142556280Y-78454339D01*
X142556275Y-78454344D01*
X142550019Y-78458643D01*
X142544968Y-78464313D01*
X142544966Y-78464314D01*
X142508565Y-78505170D01*
X142503584Y-78510446D01*
X141562012Y-79452018D01*
X141499700Y-79486044D01*
X141461937Y-79488444D01*
X141234000Y-79468502D01*
X141005913Y-79488457D01*
X141000600Y-79489881D01*
X141000598Y-79489881D01*
X140790067Y-79546293D01*
X140790065Y-79546294D01*
X140784757Y-79547716D01*
X140779776Y-79550039D01*
X140779775Y-79550039D01*
X140582238Y-79642151D01*
X140582233Y-79642154D01*
X140577251Y-79644477D01*
X140495743Y-79701550D01*
X140394211Y-79772643D01*
X140394208Y-79772645D01*
X140389700Y-79775802D01*
X140227802Y-79937700D01*
X140096477Y-80125251D01*
X140094154Y-80130233D01*
X140094151Y-80130238D01*
X140002039Y-80327775D01*
X139999716Y-80332757D01*
X139998294Y-80338065D01*
X139998293Y-80338067D01*
X139941881Y-80548598D01*
X139940457Y-80553913D01*
X139920502Y-80782000D01*
X139940457Y-81010087D01*
X139941881Y-81015400D01*
X139941881Y-81015402D01*
X139975304Y-81140135D01*
X139999716Y-81231243D01*
X140002039Y-81236224D01*
X140002039Y-81236225D01*
X140094151Y-81433762D01*
X140094154Y-81433767D01*
X140096477Y-81438749D01*
X140099634Y-81443257D01*
X140175354Y-81551396D01*
X140227802Y-81626300D01*
X140389700Y-81788198D01*
X140394208Y-81791355D01*
X140394211Y-81791357D01*
X140394928Y-81791859D01*
X140577251Y-81919523D01*
X140582233Y-81921846D01*
X140582238Y-81921849D01*
X140616457Y-81937805D01*
X140669742Y-81984722D01*
X140689203Y-82052999D01*
X140668661Y-82120959D01*
X140616457Y-82166195D01*
X140582238Y-82182151D01*
X140582233Y-82182154D01*
X140577251Y-82184477D01*
X140472389Y-82257902D01*
X140394211Y-82312643D01*
X140394208Y-82312645D01*
X140389700Y-82315802D01*
X140227802Y-82477700D01*
X140096477Y-82665251D01*
X140094154Y-82670233D01*
X140094151Y-82670238D01*
X140055039Y-82754115D01*
X139999716Y-82872757D01*
X139998294Y-82878065D01*
X139998293Y-82878067D01*
X139941881Y-83088598D01*
X139940457Y-83093913D01*
X139920502Y-83322000D01*
X139940457Y-83550087D01*
X139941881Y-83555400D01*
X139941881Y-83555402D01*
X139967106Y-83649540D01*
X139999716Y-83771243D01*
X140002039Y-83776224D01*
X140002039Y-83776225D01*
X140094151Y-83973762D01*
X140094154Y-83973767D01*
X140096477Y-83978749D01*
X140227802Y-84166300D01*
X140389700Y-84328198D01*
X140394208Y-84331355D01*
X140394211Y-84331357D01*
X140472389Y-84386098D01*
X140577251Y-84459523D01*
X140582233Y-84461846D01*
X140582238Y-84461849D01*
X140616457Y-84477805D01*
X140669742Y-84524722D01*
X140689203Y-84592999D01*
X140668661Y-84660959D01*
X140616457Y-84706195D01*
X140582238Y-84722151D01*
X140582233Y-84722154D01*
X140577251Y-84724477D01*
X140494386Y-84782500D01*
X140394211Y-84852643D01*
X140394208Y-84852645D01*
X140389700Y-84855802D01*
X140227802Y-85017700D01*
X140096477Y-85205251D01*
X140094154Y-85210233D01*
X140094151Y-85210238D01*
X140002039Y-85407775D01*
X139999716Y-85412757D01*
X139998294Y-85418065D01*
X139998293Y-85418067D01*
X139982906Y-85475492D01*
X139940457Y-85633913D01*
X139920502Y-85862000D01*
X139940457Y-86090087D01*
X139984616Y-86254888D01*
X139982926Y-86325865D01*
X139943132Y-86384661D01*
X139877868Y-86412609D01*
X139862909Y-86413500D01*
X135219660Y-86413500D01*
X135151539Y-86393498D01*
X135130565Y-86376595D01*
X134943982Y-86190012D01*
X134909956Y-86127700D01*
X134907556Y-86089935D01*
X134922012Y-85924711D01*
X134927498Y-85862000D01*
X134907543Y-85633913D01*
X134865094Y-85475492D01*
X134849707Y-85418067D01*
X134849706Y-85418065D01*
X134848284Y-85412757D01*
X134845961Y-85407775D01*
X134753849Y-85210238D01*
X134753846Y-85210233D01*
X134751523Y-85205251D01*
X134620198Y-85017700D01*
X134458300Y-84855802D01*
X134453792Y-84852645D01*
X134453789Y-84852643D01*
X134353614Y-84782500D01*
X134270749Y-84724477D01*
X134265767Y-84722154D01*
X134265762Y-84722151D01*
X134230951Y-84705919D01*
X134177666Y-84659002D01*
X134158205Y-84590725D01*
X134178747Y-84522765D01*
X134230951Y-84477529D01*
X134265511Y-84461414D01*
X134275007Y-84455931D01*
X134453467Y-84330972D01*
X134461875Y-84323916D01*
X134615916Y-84169875D01*
X134622972Y-84161467D01*
X134747931Y-83983007D01*
X134753414Y-83973511D01*
X134845490Y-83776053D01*
X134849236Y-83765761D01*
X134895394Y-83593497D01*
X134895058Y-83579401D01*
X134887116Y-83576000D01*
X133486000Y-83576000D01*
X133417879Y-83555998D01*
X133371386Y-83502342D01*
X133360000Y-83450000D01*
X133360000Y-83194000D01*
X133380002Y-83125879D01*
X133433658Y-83079386D01*
X133486000Y-83068000D01*
X134881967Y-83068000D01*
X134895498Y-83064027D01*
X134896727Y-83055478D01*
X134849236Y-82878239D01*
X134845490Y-82867947D01*
X134753414Y-82670489D01*
X134747931Y-82660993D01*
X134622972Y-82482533D01*
X134615916Y-82474125D01*
X134461875Y-82320084D01*
X134449254Y-82309493D01*
X134450108Y-82308475D01*
X134409776Y-82258016D01*
X134402468Y-82187397D01*
X134434500Y-82124037D01*
X134495702Y-82088053D01*
X134512762Y-82085000D01*
X134524316Y-82083745D01*
X134660705Y-82032615D01*
X134777261Y-81945261D01*
X134864615Y-81828705D01*
X134915745Y-81692316D01*
X134922500Y-81630134D01*
X134922500Y-79933866D01*
X134915745Y-79871684D01*
X134864615Y-79735295D01*
X134777261Y-79618739D01*
X134660705Y-79531385D01*
X134524316Y-79480255D01*
X134462134Y-79473500D01*
X132765866Y-79473500D01*
X132703684Y-79480255D01*
X132567295Y-79531385D01*
X132450739Y-79618739D01*
X132363385Y-79735295D01*
X132360233Y-79743703D01*
X132340772Y-79795615D01*
X132298130Y-79852379D01*
X132229385Y-79877212D01*
X132187693Y-79879397D01*
X132187690Y-79879397D01*
X132181096Y-79879743D01*
X132174718Y-79881452D01*
X132173696Y-79881614D01*
X132103285Y-79872514D01*
X132048972Y-79826791D01*
X132028196Y-79764416D01*
X132027905Y-79759357D01*
X132026709Y-79738618D01*
X132026500Y-79731367D01*
X132026500Y-77482522D01*
X135369273Y-77482522D01*
X135416764Y-77659761D01*
X135420510Y-77670053D01*
X135512586Y-77867511D01*
X135518069Y-77877007D01*
X135643028Y-78055467D01*
X135650084Y-78063875D01*
X135804125Y-78217916D01*
X135812533Y-78224972D01*
X135990993Y-78349931D01*
X136000489Y-78355414D01*
X136197947Y-78447490D01*
X136208239Y-78451236D01*
X136380503Y-78497394D01*
X136394599Y-78497058D01*
X136398000Y-78489116D01*
X136398000Y-78483967D01*
X136906000Y-78483967D01*
X136909973Y-78497498D01*
X136918522Y-78498727D01*
X137095761Y-78451236D01*
X137106053Y-78447490D01*
X137303511Y-78355414D01*
X137313007Y-78349931D01*
X137491467Y-78224972D01*
X137499875Y-78217916D01*
X137653916Y-78063875D01*
X137660972Y-78055467D01*
X137785931Y-77877007D01*
X137791414Y-77867511D01*
X137883490Y-77670053D01*
X137887236Y-77659761D01*
X137933394Y-77487497D01*
X137933058Y-77473401D01*
X137925116Y-77470000D01*
X136924115Y-77470000D01*
X136908876Y-77474475D01*
X136907671Y-77475865D01*
X136906000Y-77483548D01*
X136906000Y-78483967D01*
X136398000Y-78483967D01*
X136398000Y-77488115D01*
X136393525Y-77472876D01*
X136392135Y-77471671D01*
X136384452Y-77470000D01*
X135384033Y-77470000D01*
X135370502Y-77473973D01*
X135369273Y-77482522D01*
X132026500Y-77482522D01*
X132026500Y-76944503D01*
X135370606Y-76944503D01*
X135370942Y-76958599D01*
X135378884Y-76962000D01*
X136379885Y-76962000D01*
X136395124Y-76957525D01*
X136396329Y-76956135D01*
X136398000Y-76948452D01*
X136398000Y-76943885D01*
X136906000Y-76943885D01*
X136910475Y-76959124D01*
X136911865Y-76960329D01*
X136919548Y-76962000D01*
X137919967Y-76962000D01*
X137933498Y-76958027D01*
X137934727Y-76949478D01*
X137887236Y-76772239D01*
X137883490Y-76761947D01*
X137791414Y-76564489D01*
X137785931Y-76554993D01*
X137660972Y-76376533D01*
X137653916Y-76368125D01*
X137499875Y-76214084D01*
X137491467Y-76207028D01*
X137313007Y-76082069D01*
X137303511Y-76076586D01*
X137106053Y-75984510D01*
X137095761Y-75980764D01*
X136923497Y-75934606D01*
X136909401Y-75934942D01*
X136906000Y-75942884D01*
X136906000Y-76943885D01*
X136398000Y-76943885D01*
X136398000Y-75948033D01*
X136394027Y-75934502D01*
X136385478Y-75933273D01*
X136208239Y-75980764D01*
X136197947Y-75984510D01*
X136000489Y-76076586D01*
X135990993Y-76082069D01*
X135812533Y-76207028D01*
X135804125Y-76214084D01*
X135650084Y-76368125D01*
X135643028Y-76376533D01*
X135518069Y-76554993D01*
X135512586Y-76564489D01*
X135420510Y-76761947D01*
X135416764Y-76772239D01*
X135370606Y-76944503D01*
X132026500Y-76944503D01*
X132026500Y-76799660D01*
X132046502Y-76731539D01*
X132063405Y-76710565D01*
X134114566Y-74659405D01*
X134176878Y-74625379D01*
X134203661Y-74622500D01*
X135485122Y-74622500D01*
X135553243Y-74642502D01*
X135588335Y-74676229D01*
X135642643Y-74753789D01*
X135645802Y-74758300D01*
X135807700Y-74920198D01*
X135812208Y-74923355D01*
X135812211Y-74923357D01*
X135836657Y-74940474D01*
X135995251Y-75051523D01*
X136000233Y-75053846D01*
X136000238Y-75053849D01*
X136197775Y-75145961D01*
X136202757Y-75148284D01*
X136208065Y-75149706D01*
X136208067Y-75149707D01*
X136418598Y-75206119D01*
X136418600Y-75206119D01*
X136423913Y-75207543D01*
X136652000Y-75227498D01*
X136880087Y-75207543D01*
X136885400Y-75206119D01*
X136885402Y-75206119D01*
X137095933Y-75149707D01*
X137095935Y-75149706D01*
X137101243Y-75148284D01*
X137106225Y-75145961D01*
X137303762Y-75053849D01*
X137303767Y-75053846D01*
X137308749Y-75051523D01*
X137467343Y-74940474D01*
X137491789Y-74923357D01*
X137491792Y-74923355D01*
X137496300Y-74920198D01*
X137658198Y-74758300D01*
X137679219Y-74728280D01*
X137739281Y-74642502D01*
X137789523Y-74570749D01*
X137791846Y-74565767D01*
X137791849Y-74565762D01*
X137883961Y-74368225D01*
X137883961Y-74368224D01*
X137886284Y-74363243D01*
X137911779Y-74268097D01*
X137944119Y-74147402D01*
X137944119Y-74147400D01*
X137945543Y-74142087D01*
X137965498Y-73914000D01*
X137945543Y-73685913D01*
X137886284Y-73464757D01*
X137869086Y-73427876D01*
X137791849Y-73262238D01*
X137791846Y-73262233D01*
X137789523Y-73257251D01*
X137680122Y-73101010D01*
X137661357Y-73074211D01*
X137661355Y-73074208D01*
X137658198Y-73069700D01*
X137496300Y-72907802D01*
X137491792Y-72904645D01*
X137491789Y-72904643D01*
X137390797Y-72833928D01*
X137308749Y-72776477D01*
X137303767Y-72774154D01*
X137303762Y-72774151D01*
X137106225Y-72682039D01*
X137106224Y-72682039D01*
X137101243Y-72679716D01*
X137095935Y-72678294D01*
X137095933Y-72678293D01*
X136885402Y-72621881D01*
X136885400Y-72621881D01*
X136880087Y-72620457D01*
X136652000Y-72600502D01*
X136423913Y-72620457D01*
X136418600Y-72621881D01*
X136418598Y-72621881D01*
X136208067Y-72678293D01*
X136208065Y-72678294D01*
X136202757Y-72679716D01*
X136197776Y-72682039D01*
X136197775Y-72682039D01*
X136000238Y-72774151D01*
X136000233Y-72774154D01*
X135995251Y-72776477D01*
X135913203Y-72833928D01*
X135812211Y-72904643D01*
X135812208Y-72904645D01*
X135807700Y-72907802D01*
X135645802Y-73069700D01*
X135642645Y-73074208D01*
X135642643Y-73074211D01*
X135588335Y-73151771D01*
X135532878Y-73196099D01*
X135485122Y-73205500D01*
X133886911Y-73205500D01*
X133878342Y-73205208D01*
X133828223Y-73201791D01*
X133828219Y-73201791D01*
X133820647Y-73201275D01*
X133757685Y-73212264D01*
X133751195Y-73213221D01*
X133687758Y-73220898D01*
X133680649Y-73223584D01*
X133678078Y-73224216D01*
X133661772Y-73228676D01*
X133659204Y-73229451D01*
X133651716Y-73230758D01*
X133632464Y-73239209D01*
X133593212Y-73256439D01*
X133587105Y-73258931D01*
X133572521Y-73264442D01*
X133527344Y-73281513D01*
X133521083Y-73285816D01*
X133518717Y-73287053D01*
X133503937Y-73295280D01*
X133501652Y-73296631D01*
X133494695Y-73299685D01*
X133488675Y-73304305D01*
X133488669Y-73304308D01*
X133457542Y-73328194D01*
X133443998Y-73338587D01*
X133438668Y-73342459D01*
X133392280Y-73374339D01*
X133392275Y-73374344D01*
X133386019Y-73378643D01*
X133380968Y-73384313D01*
X133380966Y-73384314D01*
X133344565Y-73425170D01*
X133339584Y-73430446D01*
X131082645Y-75687385D01*
X131020333Y-75721411D01*
X130949518Y-75716346D01*
X130892682Y-75673799D01*
X130879355Y-75651539D01*
X130835851Y-75558242D01*
X130835847Y-75558236D01*
X130833523Y-75553251D01*
X130760098Y-75448389D01*
X130705357Y-75370211D01*
X130705355Y-75370208D01*
X130702198Y-75365700D01*
X130540300Y-75203802D01*
X130535792Y-75200645D01*
X130535789Y-75200643D01*
X130430493Y-75126914D01*
X130352749Y-75072477D01*
X130347767Y-75070154D01*
X130347762Y-75070151D01*
X130183994Y-74993786D01*
X130145243Y-74975716D01*
X130013720Y-74940474D01*
X129953098Y-74903522D01*
X129934670Y-74877142D01*
X129931174Y-74870454D01*
X129928487Y-74863344D01*
X129924182Y-74857080D01*
X129922946Y-74854716D01*
X129914720Y-74839937D01*
X129913369Y-74837652D01*
X129910315Y-74830695D01*
X129905695Y-74824675D01*
X129905692Y-74824669D01*
X129871421Y-74780009D01*
X129867541Y-74774668D01*
X129835661Y-74728280D01*
X129835656Y-74728275D01*
X129831357Y-74722019D01*
X129802829Y-74696601D01*
X129784830Y-74680565D01*
X129779554Y-74675584D01*
X128761405Y-73657435D01*
X128727379Y-73595123D01*
X128724500Y-73568340D01*
X128724500Y-73444433D01*
X128744502Y-73376312D01*
X128786670Y-73337003D01*
X128787705Y-73336615D01*
X128794890Y-73331230D01*
X128795124Y-73331102D01*
X128864479Y-73315923D01*
X128892907Y-73321248D01*
X129077180Y-73378290D01*
X129083305Y-73378934D01*
X129083306Y-73378934D01*
X129272622Y-73398832D01*
X129272623Y-73398832D01*
X129278750Y-73399476D01*
X129362014Y-73391898D01*
X129474457Y-73381665D01*
X129474460Y-73381664D01*
X129480596Y-73381106D01*
X129486502Y-73379368D01*
X129486506Y-73379367D01*
X129640913Y-73333922D01*
X129675029Y-73323881D01*
X129680486Y-73321028D01*
X129680489Y-73321027D01*
X129764837Y-73276931D01*
X129854460Y-73230077D01*
X129854462Y-73230077D01*
X129854645Y-73229981D01*
X129854663Y-73230016D01*
X129920441Y-73210111D01*
X129981409Y-73225271D01*
X130153565Y-73318356D01*
X130218895Y-73338579D01*
X130341293Y-73376468D01*
X130341296Y-73376469D01*
X130347180Y-73378290D01*
X130353305Y-73378934D01*
X130353306Y-73378934D01*
X130542622Y-73398832D01*
X130542623Y-73398832D01*
X130548750Y-73399476D01*
X130632014Y-73391898D01*
X130744457Y-73381665D01*
X130744460Y-73381664D01*
X130750596Y-73381106D01*
X130756502Y-73379368D01*
X130756506Y-73379367D01*
X130910913Y-73333922D01*
X130945029Y-73323881D01*
X130950486Y-73321028D01*
X130950489Y-73321027D01*
X131034837Y-73276931D01*
X131124645Y-73229981D01*
X131146686Y-73212260D01*
X131200455Y-73169028D01*
X131282601Y-73102981D01*
X131412881Y-72947719D01*
X131415845Y-72942327D01*
X131415848Y-72942323D01*
X131507556Y-72775506D01*
X131510523Y-72770109D01*
X131571807Y-72576916D01*
X131589500Y-72419183D01*
X131589500Y-71859996D01*
X131574723Y-71709287D01*
X131516142Y-71515258D01*
X131420990Y-71336302D01*
X131415770Y-71329901D01*
X131296785Y-71184013D01*
X131292890Y-71179237D01*
X131235184Y-71131499D01*
X131195447Y-71072667D01*
X131189500Y-71034415D01*
X131189500Y-70878522D01*
X135369273Y-70878522D01*
X135416764Y-71055761D01*
X135420510Y-71066053D01*
X135512586Y-71263511D01*
X135518069Y-71273007D01*
X135643028Y-71451467D01*
X135650084Y-71459875D01*
X135804125Y-71613916D01*
X135812533Y-71620972D01*
X135990993Y-71745931D01*
X136000489Y-71751414D01*
X136197947Y-71843490D01*
X136208239Y-71847236D01*
X136380503Y-71893394D01*
X136394599Y-71893058D01*
X136398000Y-71885116D01*
X136398000Y-71879967D01*
X136906000Y-71879967D01*
X136909973Y-71893498D01*
X136918522Y-71894727D01*
X137095761Y-71847236D01*
X137106053Y-71843490D01*
X137303511Y-71751414D01*
X137313007Y-71745931D01*
X137491467Y-71620972D01*
X137499875Y-71613916D01*
X137653916Y-71459875D01*
X137660972Y-71451467D01*
X137785931Y-71273007D01*
X137791414Y-71263511D01*
X137883490Y-71066053D01*
X137887236Y-71055761D01*
X137933394Y-70883497D01*
X137933058Y-70869401D01*
X137925116Y-70866000D01*
X136924115Y-70866000D01*
X136908876Y-70870475D01*
X136907671Y-70871865D01*
X136906000Y-70879548D01*
X136906000Y-71879967D01*
X136398000Y-71879967D01*
X136398000Y-70884115D01*
X136393525Y-70868876D01*
X136392135Y-70867671D01*
X136384452Y-70866000D01*
X135384033Y-70866000D01*
X135370502Y-70869973D01*
X135369273Y-70878522D01*
X131189500Y-70878522D01*
X131189500Y-70340503D01*
X135370606Y-70340503D01*
X135370942Y-70354599D01*
X135378884Y-70358000D01*
X136379885Y-70358000D01*
X136395124Y-70353525D01*
X136396329Y-70352135D01*
X136398000Y-70344452D01*
X136398000Y-70339885D01*
X136906000Y-70339885D01*
X136910475Y-70355124D01*
X136911865Y-70356329D01*
X136919548Y-70358000D01*
X137919967Y-70358000D01*
X137933498Y-70354027D01*
X137934727Y-70345478D01*
X137887236Y-70168239D01*
X137883490Y-70157947D01*
X137791414Y-69960489D01*
X137785931Y-69950993D01*
X137660972Y-69772533D01*
X137653916Y-69764125D01*
X137499875Y-69610084D01*
X137491467Y-69603028D01*
X137313007Y-69478069D01*
X137303511Y-69472586D01*
X137106053Y-69380510D01*
X137095761Y-69376764D01*
X136923497Y-69330606D01*
X136909401Y-69330942D01*
X136906000Y-69338884D01*
X136906000Y-70339885D01*
X136398000Y-70339885D01*
X136398000Y-69344033D01*
X136394027Y-69330502D01*
X136385478Y-69329273D01*
X136208239Y-69376764D01*
X136197947Y-69380510D01*
X136000489Y-69472586D01*
X135990993Y-69478069D01*
X135812533Y-69603028D01*
X135804125Y-69610084D01*
X135650084Y-69764125D01*
X135643028Y-69772533D01*
X135518069Y-69950993D01*
X135512586Y-69960489D01*
X135420510Y-70157947D01*
X135416764Y-70168239D01*
X135370606Y-70340503D01*
X131189500Y-70340503D01*
X131189500Y-66880768D01*
X131190027Y-66869585D01*
X131191702Y-66862092D01*
X131189562Y-66794001D01*
X131189500Y-66790044D01*
X131189500Y-66762144D01*
X131188996Y-66758153D01*
X131188063Y-66746311D01*
X131187954Y-66742826D01*
X131186674Y-66702111D01*
X131184462Y-66694497D01*
X131184461Y-66694492D01*
X131181023Y-66682659D01*
X131177012Y-66663295D01*
X131175467Y-66651064D01*
X131174474Y-66643203D01*
X131171557Y-66635836D01*
X131171556Y-66635831D01*
X131158198Y-66602092D01*
X131154354Y-66590865D01*
X131144230Y-66556022D01*
X131142018Y-66548407D01*
X131131707Y-66530972D01*
X131123012Y-66513224D01*
X131115552Y-66494383D01*
X131089564Y-66458613D01*
X131083048Y-66448693D01*
X131064580Y-66417465D01*
X131064578Y-66417462D01*
X131060542Y-66410638D01*
X131046221Y-66396317D01*
X131033380Y-66381283D01*
X131026132Y-66371307D01*
X131021472Y-66364893D01*
X130987401Y-66336707D01*
X130978622Y-66328718D01*
X130963499Y-66313595D01*
X130929473Y-66251283D01*
X130934538Y-66180468D01*
X130977085Y-66123632D01*
X131043605Y-66098821D01*
X131052594Y-66098500D01*
X131501377Y-66098500D01*
X131502148Y-66098502D01*
X131579721Y-66098976D01*
X131608152Y-66090850D01*
X131624915Y-66087272D01*
X131654187Y-66083080D01*
X131677564Y-66072451D01*
X131695087Y-66066004D01*
X131719771Y-66058949D01*
X131727365Y-66054157D01*
X131727368Y-66054156D01*
X131744780Y-66043170D01*
X131759865Y-66035030D01*
X131786782Y-66022792D01*
X131806235Y-66006030D01*
X131821239Y-65994927D01*
X131842958Y-65981224D01*
X131848897Y-65974499D01*
X131848901Y-65974496D01*
X131862532Y-65959062D01*
X131874724Y-65947018D01*
X131890327Y-65933573D01*
X131890329Y-65933570D01*
X131897127Y-65927713D01*
X131911094Y-65906165D01*
X131922385Y-65891291D01*
X131933431Y-65878783D01*
X131933432Y-65878782D01*
X131939378Y-65872049D01*
X131951943Y-65845287D01*
X131960263Y-65830309D01*
X131971471Y-65813017D01*
X131971473Y-65813012D01*
X131976352Y-65805485D01*
X131978922Y-65796892D01*
X131978924Y-65796887D01*
X131982180Y-65786000D01*
X144908500Y-65786000D01*
X144908500Y-71549233D01*
G37*
G04 #@! TD.AperFunction*
G04 #@! TA.AperFunction,Conductor*
G36*
X127752959Y-68383339D02*
G01*
X127798195Y-68435543D01*
X127814151Y-68469762D01*
X127814154Y-68469767D01*
X127816477Y-68474749D01*
X127947802Y-68662300D01*
X128109700Y-68824198D01*
X128114208Y-68827355D01*
X128114211Y-68827357D01*
X128151369Y-68853375D01*
X128297251Y-68955523D01*
X128302233Y-68957846D01*
X128302238Y-68957849D01*
X128499775Y-69049961D01*
X128504757Y-69052284D01*
X128510065Y-69053706D01*
X128510067Y-69053707D01*
X128720598Y-69110119D01*
X128720600Y-69110119D01*
X128725913Y-69111543D01*
X128954000Y-69131498D01*
X129182087Y-69111543D01*
X129187400Y-69110119D01*
X129187402Y-69110119D01*
X129397933Y-69053707D01*
X129397935Y-69053706D01*
X129403243Y-69052284D01*
X129408225Y-69049961D01*
X129605762Y-68957849D01*
X129605767Y-68957846D01*
X129610749Y-68955523D01*
X129724230Y-68876063D01*
X129791503Y-68853375D01*
X129860363Y-68870660D01*
X129908948Y-68922429D01*
X129922500Y-68979276D01*
X129922500Y-70868835D01*
X129902498Y-70936956D01*
X129848842Y-70983449D01*
X129778568Y-70993553D01*
X129736571Y-70979671D01*
X129724273Y-70973022D01*
X129688435Y-70953644D01*
X129591627Y-70923677D01*
X129500707Y-70895532D01*
X129500704Y-70895531D01*
X129494820Y-70893710D01*
X129488695Y-70893066D01*
X129488694Y-70893066D01*
X129299378Y-70873168D01*
X129299377Y-70873168D01*
X129293250Y-70872524D01*
X129216072Y-70879548D01*
X129097543Y-70890335D01*
X129097540Y-70890336D01*
X129091404Y-70890894D01*
X129085498Y-70892632D01*
X129085494Y-70892633D01*
X128902879Y-70946380D01*
X128902877Y-70946381D01*
X128901493Y-70946788D01*
X128896971Y-70948119D01*
X128896718Y-70947260D01*
X128831338Y-70953714D01*
X128794594Y-70940548D01*
X128787705Y-70935385D01*
X128779304Y-70932236D01*
X128779301Y-70932234D01*
X128667534Y-70890335D01*
X128651316Y-70884255D01*
X128589134Y-70877500D01*
X127442866Y-70877500D01*
X127380684Y-70884255D01*
X127244295Y-70935385D01*
X127127739Y-71022739D01*
X127040385Y-71139295D01*
X126989255Y-71275684D01*
X126982500Y-71337866D01*
X126982500Y-72934134D01*
X126989255Y-72996316D01*
X127040385Y-73132705D01*
X127127739Y-73249261D01*
X127244295Y-73336615D01*
X127244951Y-73336861D01*
X127292157Y-73384175D01*
X127307500Y-73444433D01*
X127307500Y-73885088D01*
X127307208Y-73893658D01*
X127306195Y-73908525D01*
X127303275Y-73951352D01*
X127304580Y-73958829D01*
X127304580Y-73958830D01*
X127314261Y-74014299D01*
X127315223Y-74020821D01*
X127322898Y-74084242D01*
X127325581Y-74091343D01*
X127326222Y-74093952D01*
X127330685Y-74110262D01*
X127331450Y-74112798D01*
X127332757Y-74120284D01*
X127335811Y-74127241D01*
X127358442Y-74178795D01*
X127360933Y-74184899D01*
X127383513Y-74244656D01*
X127387817Y-74250919D01*
X127389054Y-74253285D01*
X127397299Y-74268097D01*
X127398632Y-74270351D01*
X127401685Y-74277305D01*
X127437394Y-74323840D01*
X127440579Y-74327991D01*
X127444459Y-74333332D01*
X127476339Y-74379720D01*
X127476344Y-74379725D01*
X127480643Y-74385981D01*
X127486313Y-74391032D01*
X127486314Y-74391034D01*
X127527161Y-74427427D01*
X127532438Y-74432408D01*
X128093815Y-74993786D01*
X128127840Y-75056098D01*
X128122775Y-75126914D01*
X128076990Y-75186094D01*
X128051700Y-75203802D01*
X127889802Y-75365700D01*
X127886645Y-75370208D01*
X127886643Y-75370211D01*
X127831902Y-75448389D01*
X127758477Y-75553251D01*
X127756154Y-75558233D01*
X127756151Y-75558238D01*
X127682425Y-75716346D01*
X127661716Y-75760757D01*
X127660294Y-75766065D01*
X127660293Y-75766067D01*
X127611535Y-75948033D01*
X127602457Y-75981913D01*
X127582502Y-76210000D01*
X127602457Y-76438087D01*
X127603881Y-76443400D01*
X127603881Y-76443402D01*
X127609754Y-76465319D01*
X127661716Y-76659243D01*
X127664040Y-76664227D01*
X127665196Y-76667403D01*
X127669701Y-76738257D01*
X127635184Y-76800298D01*
X127572604Y-76833829D01*
X127546796Y-76836500D01*
X126743500Y-76836500D01*
X126675379Y-76816498D01*
X126628886Y-76762842D01*
X126617500Y-76710500D01*
X126617500Y-76532767D01*
X126618027Y-76521584D01*
X126619702Y-76514091D01*
X126619350Y-76502875D01*
X126617562Y-76446001D01*
X126617500Y-76442043D01*
X126617500Y-76414144D01*
X126616996Y-76410153D01*
X126616063Y-76398311D01*
X126615896Y-76392980D01*
X126614674Y-76354111D01*
X126612462Y-76346497D01*
X126612461Y-76346492D01*
X126609023Y-76334659D01*
X126605012Y-76315295D01*
X126603467Y-76303064D01*
X126602474Y-76295203D01*
X126599557Y-76287836D01*
X126599556Y-76287831D01*
X126586198Y-76254092D01*
X126582354Y-76242865D01*
X126574383Y-76215432D01*
X126570018Y-76200407D01*
X126559707Y-76182972D01*
X126551012Y-76165224D01*
X126543552Y-76146383D01*
X126517564Y-76110613D01*
X126511048Y-76100693D01*
X126492580Y-76069465D01*
X126492578Y-76069462D01*
X126488542Y-76062638D01*
X126474221Y-76048317D01*
X126461380Y-76033283D01*
X126460226Y-76031695D01*
X126449472Y-76016893D01*
X126415395Y-75988702D01*
X126406616Y-75980712D01*
X125984000Y-75558096D01*
X125984000Y-73036563D01*
X126089243Y-72961494D01*
X126253303Y-72798005D01*
X126260135Y-72788498D01*
X126338302Y-72679716D01*
X126388458Y-72609917D01*
X126392875Y-72600981D01*
X126488784Y-72406922D01*
X126488785Y-72406920D01*
X126491078Y-72402280D01*
X126558408Y-72180671D01*
X126588640Y-71951041D01*
X126589493Y-71916135D01*
X126590245Y-71885365D01*
X126590245Y-71885361D01*
X126590327Y-71882000D01*
X126582500Y-71786797D01*
X126571773Y-71656318D01*
X126571772Y-71656312D01*
X126571349Y-71651167D01*
X126514925Y-71426533D01*
X126489152Y-71367258D01*
X126424630Y-71218868D01*
X126424628Y-71218865D01*
X126422570Y-71214131D01*
X126296764Y-71019665D01*
X126140887Y-70848358D01*
X126136836Y-70845159D01*
X126136832Y-70845155D01*
X125984000Y-70724456D01*
X125984000Y-69057440D01*
X125991684Y-69059499D01*
X126180598Y-69110119D01*
X126180600Y-69110119D01*
X126185913Y-69111543D01*
X126414000Y-69131498D01*
X126642087Y-69111543D01*
X126647400Y-69110119D01*
X126647402Y-69110119D01*
X126857933Y-69053707D01*
X126857935Y-69053706D01*
X126863243Y-69052284D01*
X126868225Y-69049961D01*
X127065762Y-68957849D01*
X127065767Y-68957846D01*
X127070749Y-68955523D01*
X127216631Y-68853375D01*
X127253789Y-68827357D01*
X127253792Y-68827355D01*
X127258300Y-68824198D01*
X127420198Y-68662300D01*
X127551523Y-68474749D01*
X127553846Y-68469767D01*
X127553849Y-68469762D01*
X127569805Y-68435543D01*
X127616722Y-68382258D01*
X127684999Y-68362797D01*
X127752959Y-68383339D01*
G37*
G04 #@! TD.AperFunction*
G04 #@! TA.AperFunction,Conductor*
G36*
X155001500Y-67581353D02*
G01*
X155001498Y-67582123D01*
X155001430Y-67593229D01*
X155001024Y-67659721D01*
X155003491Y-67668352D01*
X155009150Y-67688153D01*
X155012728Y-67704915D01*
X155016920Y-67734187D01*
X155020634Y-67742355D01*
X155020634Y-67742356D01*
X155027548Y-67757562D01*
X155033996Y-67775086D01*
X155041051Y-67799771D01*
X155045843Y-67807365D01*
X155045844Y-67807368D01*
X155056830Y-67824780D01*
X155064969Y-67839863D01*
X155077208Y-67866782D01*
X155083069Y-67873584D01*
X155093970Y-67886235D01*
X155105073Y-67901239D01*
X155118776Y-67922958D01*
X155125501Y-67928897D01*
X155125504Y-67928901D01*
X155140938Y-67942532D01*
X155152982Y-67954724D01*
X155166427Y-67970327D01*
X155166430Y-67970329D01*
X155172287Y-67977127D01*
X155179816Y-67982007D01*
X155179817Y-67982008D01*
X155193835Y-67991094D01*
X155194000Y-67991219D01*
X155194000Y-69649500D01*
X152428927Y-69649500D01*
X152420358Y-69649208D01*
X152370225Y-69645790D01*
X152370221Y-69645790D01*
X152362648Y-69645274D01*
X152299681Y-69656264D01*
X152293169Y-69657224D01*
X152229758Y-69664898D01*
X152222657Y-69667581D01*
X152220048Y-69668222D01*
X152203715Y-69672691D01*
X152201195Y-69673452D01*
X152193717Y-69674757D01*
X152186765Y-69677809D01*
X152186764Y-69677809D01*
X152135204Y-69700441D01*
X152129099Y-69702932D01*
X152076456Y-69722825D01*
X152076452Y-69722827D01*
X152069344Y-69725513D01*
X152063083Y-69729816D01*
X152060717Y-69731053D01*
X152045937Y-69739280D01*
X152043652Y-69740631D01*
X152036695Y-69743685D01*
X152030675Y-69748305D01*
X152030669Y-69748308D01*
X151999542Y-69772194D01*
X151985998Y-69782587D01*
X151980668Y-69786459D01*
X151934280Y-69818339D01*
X151934275Y-69818344D01*
X151928019Y-69822643D01*
X151922968Y-69828313D01*
X151922966Y-69828314D01*
X151886565Y-69869170D01*
X151881584Y-69874446D01*
X151381435Y-70374595D01*
X151319123Y-70408621D01*
X151292340Y-70411500D01*
X150970861Y-70411500D01*
X150902740Y-70391498D01*
X150856247Y-70337842D01*
X150846143Y-70267568D01*
X150867648Y-70213229D01*
X150880140Y-70195389D01*
X150997523Y-70027749D01*
X150999846Y-70022767D01*
X150999849Y-70022762D01*
X151091961Y-69825225D01*
X151091961Y-69825224D01*
X151094284Y-69820243D01*
X151103337Y-69786459D01*
X151152119Y-69604402D01*
X151152119Y-69604400D01*
X151153543Y-69599087D01*
X151173498Y-69371000D01*
X151153543Y-69142913D01*
X151145266Y-69112022D01*
X151095707Y-68927067D01*
X151095706Y-68927065D01*
X151094284Y-68921757D01*
X151050265Y-68827357D01*
X150999849Y-68719238D01*
X150999846Y-68719233D01*
X150997523Y-68714251D01*
X150908157Y-68586624D01*
X150869357Y-68531211D01*
X150869355Y-68531208D01*
X150866198Y-68526700D01*
X150704300Y-68364802D01*
X150699792Y-68361645D01*
X150699789Y-68361643D01*
X150589056Y-68284107D01*
X150516749Y-68233477D01*
X150511767Y-68231154D01*
X150511762Y-68231151D01*
X150477543Y-68215195D01*
X150424258Y-68168278D01*
X150404797Y-68100001D01*
X150425339Y-68032041D01*
X150477543Y-67986805D01*
X150511762Y-67970849D01*
X150511767Y-67970846D01*
X150516749Y-67968523D01*
X150673722Y-67858609D01*
X150699789Y-67840357D01*
X150699792Y-67840355D01*
X150704300Y-67837198D01*
X150866198Y-67675300D01*
X150871063Y-67668352D01*
X150923665Y-67593229D01*
X150979122Y-67548901D01*
X151026878Y-67539500D01*
X151580088Y-67539500D01*
X151588658Y-67539792D01*
X151638776Y-67543209D01*
X151638780Y-67543209D01*
X151646352Y-67543725D01*
X151653829Y-67542420D01*
X151653830Y-67542420D01*
X151680308Y-67537799D01*
X151709303Y-67532738D01*
X151715821Y-67531777D01*
X151779242Y-67524102D01*
X151786343Y-67521419D01*
X151788952Y-67520778D01*
X151805262Y-67516315D01*
X151807798Y-67515550D01*
X151815284Y-67514243D01*
X151873800Y-67488556D01*
X151879904Y-67486065D01*
X151932548Y-67466173D01*
X151932549Y-67466172D01*
X151939656Y-67463487D01*
X151945919Y-67459183D01*
X151948285Y-67457946D01*
X151963097Y-67449701D01*
X151965351Y-67448368D01*
X151972305Y-67445315D01*
X152023002Y-67406413D01*
X152028332Y-67402541D01*
X152074720Y-67370661D01*
X152074725Y-67370656D01*
X152080981Y-67366357D01*
X152122436Y-67319829D01*
X152127416Y-67314554D01*
X153642520Y-65799450D01*
X153648785Y-65793596D01*
X153657492Y-65786000D01*
X155001500Y-65786000D01*
X155001500Y-67581353D01*
G37*
G04 #@! TD.AperFunction*
G04 #@! TA.AperFunction,Conductor*
G36*
X151352435Y-66085595D02*
G01*
X151290122Y-66119620D01*
X151263339Y-66122500D01*
X151026878Y-66122500D01*
X150958757Y-66102498D01*
X150923665Y-66068771D01*
X150869357Y-65991211D01*
X150869355Y-65991208D01*
X150866198Y-65986700D01*
X150704300Y-65824802D01*
X150699792Y-65821645D01*
X150699789Y-65821643D01*
X150648886Y-65786000D01*
X151652029Y-65786000D01*
X151352435Y-66085595D01*
G37*
G04 #@! TD.AperFunction*
M02*
