G04 #@! TF.GenerationSoftware,KiCad,Pcbnew,6.0.11-2627ca5db0~126~ubuntu22.04.1*
G04 #@! TF.CreationDate,2026-07-03T16:33:01+10:00*
G04 #@! TF.ProjectId,ToothEater,546f6f74-6845-4617-9465-722e6b696361,rev?*
G04 #@! TF.SameCoordinates,Original*
G04 #@! TF.FileFunction,Copper,L1,Top*
G04 #@! TF.FilePolarity,Positive*
%FSLAX46Y46*%
G04 Gerber Fmt 4.6, Leading zero omitted, Abs format (unit mm)*
G04 Created by KiCad (PCBNEW 6.0.11-2627ca5db0~126~ubuntu22.04.1) date 2026-07-03 16:33:01*
%MOMM*%
%LPD*%
G01*
G04 APERTURE LIST*
G04 Aperture macros list*
%AMRoundRect*
0 Rectangle with rounded corners*
0 $1 Rounding radius*
0 $2 $3 $4 $5 $6 $7 $8 $9 X,Y pos of 4 corners*
0 Add a 4 corners polygon primitive as box body*
4,1,4,$2,$3,$4,$5,$6,$7,$8,$9,$2,$3,0*
0 Add four circle primitives for the rounded corners*
1,1,$1+$1,$2,$3*
1,1,$1+$1,$4,$5*
1,1,$1+$1,$6,$7*
1,1,$1+$1,$8,$9*
0 Add four rect primitives between the rounded corners*
20,1,$1+$1,$2,$3,$4,$5,0*
20,1,$1+$1,$4,$5,$6,$7,0*
20,1,$1+$1,$6,$7,$8,$9,0*
20,1,$1+$1,$8,$9,$2,$3,0*%
G04 Aperture macros list end*
G04 #@! TA.AperFunction,ComponentPad*
%ADD10R,2.200000X2.200000*%
G04 #@! TD*
G04 #@! TA.AperFunction,ComponentPad*
%ADD11O,2.200000X2.200000*%
G04 #@! TD*
G04 #@! TA.AperFunction,ComponentPad*
%ADD12R,1.800000X1.800000*%
G04 #@! TD*
G04 #@! TA.AperFunction,ComponentPad*
%ADD13C,1.800000*%
G04 #@! TD*
G04 #@! TA.AperFunction,ComponentPad*
%ADD14C,1.600000*%
G04 #@! TD*
G04 #@! TA.AperFunction,ComponentPad*
%ADD15O,1.600000X1.600000*%
G04 #@! TD*
G04 #@! TA.AperFunction,ComponentPad*
%ADD16R,1.050000X1.500000*%
G04 #@! TD*
G04 #@! TA.AperFunction,ComponentPad*
%ADD17O,1.050000X1.500000*%
G04 #@! TD*
G04 #@! TA.AperFunction,SMDPad,CuDef*
%ADD18R,1.000000X1.000000*%
G04 #@! TD*
G04 #@! TA.AperFunction,ComponentPad*
%ADD19R,1.600000X1.600000*%
G04 #@! TD*
G04 #@! TA.AperFunction,ComponentPad*
%ADD20RoundRect,0.250001X-0.499999X0.499999X-0.499999X-0.499999X0.499999X-0.499999X0.499999X0.499999X0*%
G04 #@! TD*
G04 #@! TA.AperFunction,ComponentPad*
%ADD21C,1.500000*%
G04 #@! TD*
G04 #@! TA.AperFunction,ComponentPad*
%ADD22R,2.400000X1.600000*%
G04 #@! TD*
G04 #@! TA.AperFunction,ComponentPad*
%ADD23O,2.400000X1.600000*%
G04 #@! TD*
G04 #@! TA.AperFunction,ComponentPad*
%ADD24R,1.500000X1.050000*%
G04 #@! TD*
G04 #@! TA.AperFunction,ComponentPad*
%ADD25O,1.500000X1.050000*%
G04 #@! TD*
G04 #@! TA.AperFunction,ComponentPad*
%ADD26R,1.800000X1.714500*%
G04 #@! TD*
G04 #@! TA.AperFunction,ComponentPad*
%ADD27O,1.800000X1.714500*%
G04 #@! TD*
G04 #@! TA.AperFunction,ViaPad*
%ADD28C,0.800000*%
G04 #@! TD*
G04 #@! TA.AperFunction,Conductor*
%ADD29C,1.000000*%
G04 #@! TD*
G04 #@! TA.AperFunction,Conductor*
%ADD30C,0.400000*%
G04 #@! TD*
G04 #@! TA.AperFunction,Conductor*
%ADD31C,0.800000*%
G04 #@! TD*
G04 #@! TA.AperFunction,Conductor*
%ADD32C,0.250000*%
G04 #@! TD*
G04 APERTURE END LIST*
D10*
X139446000Y-102108000D03*
D11*
X139446000Y-91948000D03*
D12*
X135612000Y-99822000D03*
D13*
X133072000Y-99822000D03*
D14*
X128016000Y-70612000D03*
D15*
X130556000Y-70612000D03*
D16*
X144526000Y-63352000D03*
D17*
X145796000Y-63352000D03*
X147066000Y-63352000D03*
D18*
X120650000Y-73152000D03*
D14*
X146812000Y-70612000D03*
D15*
X136652000Y-70612000D03*
D14*
X142748000Y-92202000D03*
D15*
X142748000Y-102362000D03*
D14*
X149860000Y-69371000D03*
D15*
X149860000Y-66831000D03*
D16*
X138938000Y-63352000D03*
D17*
X140208000Y-63352000D03*
X141478000Y-63352000D03*
D14*
X130048000Y-67310000D03*
D15*
X127508000Y-67310000D03*
D14*
X122760000Y-67310000D03*
D15*
X125300000Y-67310000D03*
D19*
X133614000Y-80782000D03*
D15*
X133614000Y-83322000D03*
X133614000Y-85862000D03*
X133614000Y-88402000D03*
X141234000Y-88402000D03*
X141234000Y-85862000D03*
X141234000Y-83322000D03*
X141234000Y-80782000D03*
D16*
X153162000Y-71988000D03*
D17*
X154432000Y-71988000D03*
X155702000Y-71988000D03*
D20*
X153879000Y-78510000D03*
D21*
X153879000Y-81510000D03*
X150879000Y-78510000D03*
X150879000Y-81510000D03*
D16*
X159004000Y-71988000D03*
D17*
X160274000Y-71988000D03*
X161544000Y-71988000D03*
D16*
X124714000Y-62124000D03*
D17*
X123444000Y-62124000D03*
X122174000Y-62124000D03*
D14*
X146812000Y-77216000D03*
D15*
X136652000Y-77216000D03*
D22*
X121676000Y-76210000D03*
D23*
X121676000Y-78750000D03*
X121676000Y-81290000D03*
X121676000Y-83830000D03*
X129296000Y-83830000D03*
X129296000Y-81290000D03*
X129296000Y-78750000D03*
X129296000Y-76210000D03*
D14*
X157012000Y-100330000D03*
X162012000Y-100330000D03*
X149860000Y-74930000D03*
D15*
X149860000Y-72390000D03*
D14*
X122760000Y-70612000D03*
D15*
X125300000Y-70612000D03*
D14*
X129794000Y-99256000D03*
D15*
X129794000Y-101796000D03*
D24*
X122534000Y-90678000D03*
D25*
X122534000Y-89408000D03*
X122534000Y-88138000D03*
D20*
X153879000Y-89940000D03*
D21*
X153879000Y-92940000D03*
X150879000Y-89940000D03*
X150879000Y-92940000D03*
D12*
X133345000Y-62992000D03*
D13*
X135885000Y-62992000D03*
D14*
X136652000Y-67310000D03*
D15*
X146812000Y-67310000D03*
D26*
X149606000Y-97536000D03*
D27*
X149606000Y-99822000D03*
X149606000Y-102108000D03*
D10*
X146558000Y-102108000D03*
D11*
X146558000Y-91948000D03*
D12*
X150617000Y-62992000D03*
D13*
X153157000Y-62992000D03*
D14*
X128464000Y-93980000D03*
D15*
X120964000Y-93980000D03*
D14*
X136652000Y-73914000D03*
D15*
X146812000Y-73914000D03*
D28*
X146558000Y-89408000D03*
X159766000Y-77216000D03*
X131064000Y-89916000D03*
X153924000Y-68072000D03*
X128524000Y-86360000D03*
X124714000Y-75692000D03*
X136398000Y-91948000D03*
X126238000Y-79502000D03*
X144780000Y-81534000D03*
X144780000Y-83058000D03*
D29*
X157226000Y-74676000D02*
X159766000Y-77216000D01*
X153924000Y-68072000D02*
X157226000Y-71374000D01*
X150879000Y-89940000D02*
X150093000Y-89154000D01*
X150093000Y-89154000D02*
X146812000Y-89154000D01*
X157226000Y-71374000D02*
X157226000Y-74676000D01*
X131064000Y-89916000D02*
X131064000Y-88900000D01*
X146812000Y-89154000D02*
X146558000Y-89408000D01*
X131064000Y-88900000D02*
X128524000Y-86360000D01*
X157012000Y-100330000D02*
X159004000Y-100330000D01*
X159004000Y-73406000D02*
X159004000Y-71988000D01*
X159004000Y-100330000D02*
X162052000Y-97282000D01*
X162052000Y-97282000D02*
X162052000Y-76454000D01*
X149606000Y-97536000D02*
X139446000Y-97536000D01*
D30*
X128464000Y-93980000D02*
X128464000Y-97926000D01*
D29*
X139446000Y-97536000D02*
X135890000Y-93980000D01*
D31*
X133614000Y-79004000D02*
X133614000Y-80782000D01*
D30*
X128464000Y-97926000D02*
X129794000Y-99256000D01*
D29*
X162052000Y-76454000D02*
X159004000Y-73406000D01*
D31*
X130820000Y-76210000D02*
X133614000Y-79004000D01*
X129296000Y-76210000D02*
X130820000Y-76210000D01*
D29*
X135890000Y-93980000D02*
X128464000Y-93980000D01*
D30*
X124714000Y-75692000D02*
X124714000Y-73914000D01*
X126238000Y-79502000D02*
X126238000Y-86362792D01*
X124714000Y-73914000D02*
X128016000Y-70612000D01*
X126238000Y-86362792D02*
X131823208Y-91948000D01*
X131823208Y-91948000D02*
X136398000Y-91948000D01*
D29*
X154940000Y-94996000D02*
X155702000Y-94234000D01*
X139446000Y-91948000D02*
X142494000Y-94996000D01*
X142494000Y-94996000D02*
X154940000Y-94996000D01*
X153879000Y-90379000D02*
X153879000Y-89940000D01*
X155702000Y-92202000D02*
X153879000Y-90379000D01*
X155702000Y-94234000D02*
X155702000Y-92202000D01*
D30*
X151638000Y-71120000D02*
X152400000Y-70358000D01*
X148082000Y-68580000D02*
X148082000Y-70612000D01*
X153924000Y-70358000D02*
X154432000Y-70866000D01*
X146812000Y-67310000D02*
X148082000Y-68580000D01*
X154432000Y-70866000D02*
X154432000Y-71988000D01*
X148082000Y-70612000D02*
X148590000Y-71120000D01*
X152400000Y-70358000D02*
X153924000Y-70358000D01*
X148590000Y-71120000D02*
X151638000Y-71120000D01*
D32*
X131826000Y-65786000D02*
X131572000Y-66040000D01*
X135885000Y-62992000D02*
X135885000Y-61971000D01*
X135885000Y-61971000D02*
X135128000Y-61214000D01*
X127508000Y-66548000D02*
X127508000Y-67310000D01*
X132080000Y-61214000D02*
X131826000Y-61468000D01*
X128016000Y-66040000D02*
X127508000Y-66548000D01*
X131826000Y-61468000D02*
X131826000Y-65786000D01*
X135128000Y-61214000D02*
X132080000Y-61214000D01*
X131572000Y-66040000D02*
X128016000Y-66040000D01*
D30*
X121676000Y-81290000D02*
X125730000Y-77236000D01*
X129794000Y-74168000D02*
X136652000Y-67310000D01*
X127000000Y-74168000D02*
X129794000Y-74168000D01*
X125730000Y-77236000D02*
X125730000Y-75438000D01*
X125730000Y-75438000D02*
X127000000Y-74168000D01*
X132172000Y-84420000D02*
X132172000Y-81626000D01*
X133614000Y-85862000D02*
X132172000Y-84420000D01*
X132172000Y-81626000D02*
X129296000Y-78750000D01*
D29*
X139964000Y-88402000D02*
X141234000Y-88402000D01*
X139944000Y-80782000D02*
X138938000Y-81788000D01*
X138938000Y-87376000D02*
X139964000Y-88402000D01*
X141234000Y-80782000D02*
X139944000Y-80782000D01*
X138938000Y-81788000D02*
X138938000Y-87376000D01*
D30*
X143256000Y-81534000D02*
X144780000Y-81534000D01*
X142494000Y-84074000D02*
X143002000Y-83566000D01*
X142494000Y-84602000D02*
X142494000Y-84074000D01*
X141234000Y-85862000D02*
X142494000Y-84602000D01*
X143002000Y-81788000D02*
X143256000Y-81534000D01*
X143002000Y-83566000D02*
X143002000Y-81788000D01*
X142494000Y-89916000D02*
X143256000Y-89154000D01*
X143256000Y-89154000D02*
X143256000Y-84582000D01*
X139446000Y-89916000D02*
X142494000Y-89916000D01*
X137932000Y-88402000D02*
X139446000Y-89916000D01*
X153924000Y-84582000D02*
X155448000Y-83058000D01*
X132598000Y-88402000D02*
X133614000Y-88402000D01*
X129804000Y-81290000D02*
X131572000Y-83058000D01*
X131572000Y-87376000D02*
X132598000Y-88402000D01*
X144780000Y-83058000D02*
X146304000Y-84582000D01*
X146304000Y-84582000D02*
X153924000Y-84582000D01*
X129296000Y-81290000D02*
X129804000Y-81290000D01*
X155448000Y-83058000D02*
X155448000Y-74168000D01*
X153162000Y-73152000D02*
X153162000Y-71988000D01*
X133614000Y-88402000D02*
X137932000Y-88402000D01*
X155448000Y-74168000D02*
X154940000Y-73660000D01*
X131572000Y-83058000D02*
X131572000Y-87376000D01*
X143256000Y-84582000D02*
X144780000Y-83058000D01*
X154940000Y-73660000D02*
X153670000Y-73660000D01*
X153670000Y-73660000D02*
X153162000Y-73152000D01*
X156210000Y-72496000D02*
X155702000Y-71988000D01*
X152400000Y-91461000D02*
X152400000Y-87630000D01*
X156210000Y-83820000D02*
X156210000Y-72496000D01*
X152400000Y-87630000D02*
X156210000Y-83820000D01*
X153879000Y-92940000D02*
X152400000Y-91461000D01*
X149860000Y-60198000D02*
X150617000Y-60955000D01*
X150617000Y-60955000D02*
X150617000Y-62992000D01*
X145542000Y-60198000D02*
X149860000Y-60198000D01*
X144526000Y-61214000D02*
X145542000Y-60198000D01*
X144526000Y-63352000D02*
X144526000Y-61214000D01*
D32*
X137668000Y-62590500D02*
X137668000Y-64516000D01*
X128867462Y-68435000D02*
X126425000Y-68435000D01*
X137431000Y-64753000D02*
X134891000Y-64753000D01*
X138282500Y-61976000D02*
X137668000Y-62590500D01*
X134891000Y-64753000D02*
X130556000Y-69088000D01*
X129520462Y-69088000D02*
X128867462Y-68435000D01*
X130556000Y-69088000D02*
X129520462Y-69088000D01*
X140208000Y-63352000D02*
X140208000Y-62697000D01*
X126425000Y-68435000D02*
X125300000Y-67310000D01*
X140208000Y-62697000D02*
X139487000Y-61976000D01*
X139487000Y-61976000D02*
X138282500Y-61976000D01*
X137668000Y-64516000D02*
X137431000Y-64753000D01*
D30*
X124714000Y-65786000D02*
X124100000Y-66400000D01*
X130302000Y-70612000D02*
X130556000Y-70612000D01*
X134874000Y-65786000D02*
X130556000Y-70104000D01*
X124100000Y-67966000D02*
X125094000Y-68960000D01*
X145288000Y-74930000D02*
X145288000Y-72390000D01*
X148854943Y-76718943D02*
X147828000Y-75692000D01*
X124714000Y-62124000D02*
X124714000Y-65786000D01*
X124100000Y-66400000D02*
X124100000Y-67966000D01*
X146050000Y-75692000D02*
X145288000Y-74930000D01*
X147828000Y-75692000D02*
X146050000Y-75692000D01*
X152087943Y-76718943D02*
X148854943Y-76718943D01*
X130556000Y-70104000D02*
X130556000Y-70612000D01*
X128650000Y-68960000D02*
X130302000Y-70612000D01*
X125094000Y-68960000D02*
X128650000Y-68960000D01*
X138684000Y-65786000D02*
X134874000Y-65786000D01*
X153879000Y-78510000D02*
X152087943Y-76718943D01*
X145288000Y-72390000D02*
X138684000Y-65786000D01*
X120076000Y-71948000D02*
X121412000Y-70612000D01*
X120076000Y-73086000D02*
X120076000Y-71948000D01*
X121676000Y-78750000D02*
X121276000Y-78750000D01*
X120076000Y-77550000D02*
X120076000Y-73086000D01*
D32*
X120142000Y-73152000D02*
X120076000Y-73086000D01*
X120650000Y-73152000D02*
X120142000Y-73152000D01*
D30*
X121412000Y-70612000D02*
X122760000Y-70612000D01*
X121276000Y-78750000D02*
X120076000Y-77550000D01*
X131098000Y-101796000D02*
X133072000Y-99822000D01*
X129794000Y-101796000D02*
X131098000Y-101796000D01*
X120396000Y-68072000D02*
X120396000Y-60706000D01*
X123444000Y-60706000D02*
X123444000Y-62124000D01*
X120650000Y-60452000D02*
X123190000Y-60452000D01*
X123190000Y-60452000D02*
X123444000Y-60706000D01*
X123522000Y-68834000D02*
X121158000Y-68834000D01*
X120396000Y-60706000D02*
X120650000Y-60452000D01*
X125300000Y-70612000D02*
X123522000Y-68834000D01*
X121158000Y-68834000D02*
X120396000Y-68072000D01*
M02*
