M48
INCH,TZ
T1C0.0157
T2C0.0295
T3C0.0315
T4C0.0354
T5C0.0402
T6C0.0433
%
G90
G05
T1
X49100Y-29800
X49700Y-31300
X50600Y-34000
X51600Y-35400
X53700Y-36200
X57000Y-32100
X57000Y-32700
X57700Y-35200
X60600Y-26800
X62900Y-30400
T2
X48100Y-24458
X48242Y-34700
X48242Y-35200
X48242Y-35700
X48600Y-24458
X49100Y-24458
X54700Y-24942
X55200Y-24942
X55700Y-24942
X56900Y-24942
X57400Y-24942
X57900Y-24942
X60300Y-28342
X60800Y-28342
X61300Y-28342
X62600Y-28342
X63100Y-28342
X63600Y-28342
T3
X47624Y-37000
X47904Y-30004
X47904Y-31004
X47904Y-32004
X47904Y-33004
X48331Y-26500
X48331Y-27800
X49331Y-26500
X49331Y-27800
X50200Y-26500
X50400Y-27800
X50576Y-37000
X50904Y-30004
X50904Y-31004
X50904Y-32004
X50904Y-33004
X51100Y-39077
X51100Y-40077
X51200Y-26500
X51400Y-27800
X52604Y-31804
X52604Y-32804
X52604Y-33804
X52604Y-34804
X53800Y-26500
X53800Y-27800
X53800Y-29100
X53800Y-30400
X55604Y-31804
X55604Y-32804
X55604Y-33804
X55604Y-34804
X56200Y-36300
X56200Y-40300
X57800Y-26500
X57800Y-27800
X57800Y-29100
X57800Y-30400
X59000Y-26311
X59000Y-27311
X59000Y-28500
X59000Y-29500
X61816Y-39500
X63784Y-39500
T4
X52391Y-39300
X52498Y-24800
X53391Y-39300
X53498Y-24800
X59298Y-24800
X60298Y-24800
T5
X59401Y-30909
X59401Y-32091
X59401Y-35409
X59401Y-36591
X60582Y-30909
X60582Y-32091
X60582Y-35409
X60582Y-36591
T6
X54900Y-36200
X54900Y-40200
X57700Y-36200
X57700Y-40200
X58900Y-38400
X58900Y-39300
X58900Y-40200
T0
M30
