G04 #@! TF.GenerationSoftware,KiCad,Pcbnew,6.0.11-2627ca5db0~126~ubuntu22.04.1*
G04 #@! TF.CreationDate,2026-07-03T16:33:01+10:00*
G04 #@! TF.ProjectId,ToothEater,546f6f74-6845-4617-9465-722e6b696361,rev?*
G04 #@! TF.SameCoordinates,Original*
G04 #@! TF.FileFunction,Soldermask,Bot*
G04 #@! TF.FilePolarity,Negative*
%FSLAX46Y46*%
G04 Gerber Fmt 4.6, Leading zero omitted, Abs format (unit mm)*
G04 Created by KiCad (PCBNEW 6.0.11-2627ca5db0~126~ubuntu22.04.1) date 2026-07-03 16:33:01*
%MOMM*%
%LPD*%
G01*
G04 APERTURE LIST*
G04 Aperture macros list*
%AMRoundRect*
0 Rectangle with rounded corners*
0 $1 Rounding radius*
0 $2 $3 $4 $5 $6 $7 $8 $9 X,Y pos of 4 corners*
0 Add a 4 corners polygon primitive as box body*
4,1,4,$2,$3,$4,$5,$6,$7,$8,$9,$2,$3,0*
0 Add four circle primitives for the rounded corners*
1,1,$1+$1,$2,$3*
1,1,$1+$1,$4,$5*
1,1,$1+$1,$6,$7*
1,1,$1+$1,$8,$9*
0 Add four rect primitives between the rounded corners*
20,1,$1+$1,$2,$3,$4,$5,0*
20,1,$1+$1,$4,$5,$6,$7,0*
20,1,$1+$1,$6,$7,$8,$9,0*
20,1,$1+$1,$8,$9,$2,$3,0*%
%AMFreePoly0*
4,1,22,0.500000,-0.750000,0.000000,-0.750000,0.000000,-0.745033,-0.079941,-0.743568,-0.215256,-0.701293,-0.333266,-0.622738,-0.424486,-0.514219,-0.481581,-0.384460,-0.499164,-0.250000,-0.500000,-0.250000,-0.500000,0.250000,-0.499164,0.250000,-0.499963,0.256109,-0.478152,0.396186,-0.417904,0.524511,-0.324060,0.630769,-0.204165,0.706417,-0.067858,0.745374,0.000000,0.744959,0.000000,0.750000,
0.500000,0.750000,0.500000,-0.750000,0.500000,-0.750000,$1*%
%AMFreePoly1*
4,1,20,0.000000,0.744959,0.073905,0.744508,0.209726,0.703889,0.328688,0.626782,0.421226,0.519385,0.479903,0.390333,0.500000,0.250000,0.500000,-0.250000,0.499851,-0.262216,0.476331,-0.402017,0.414519,-0.529596,0.319384,-0.634700,0.198574,-0.708877,0.061801,-0.746166,0.000000,-0.745033,0.000000,-0.750000,-0.500000,-0.750000,-0.500000,0.750000,0.000000,0.750000,0.000000,0.744959,
0.000000,0.744959,$1*%
G04 Aperture macros list end*
%ADD10R,2.200000X2.200000*%
%ADD11O,2.200000X2.200000*%
%ADD12R,1.800000X1.800000*%
%ADD13C,1.800000*%
%ADD14C,1.600000*%
%ADD15O,1.600000X1.600000*%
%ADD16R,1.050000X1.500000*%
%ADD17O,1.050000X1.500000*%
%ADD18R,1.600000X1.600000*%
%ADD19C,3.000000*%
%ADD20RoundRect,0.250001X-0.499999X0.499999X-0.499999X-0.499999X0.499999X-0.499999X0.499999X0.499999X0*%
%ADD21C,1.500000*%
%ADD22R,2.400000X1.600000*%
%ADD23O,2.400000X1.600000*%
%ADD24R,1.500000X1.050000*%
%ADD25O,1.500000X1.050000*%
%ADD26R,1.800000X1.714500*%
%ADD27O,1.800000X1.714500*%
%ADD28FreePoly0,270.000000*%
%ADD29FreePoly1,270.000000*%
G04 APERTURE END LIST*
D10*
X139446000Y-102108000D03*
D11*
X139446000Y-91948000D03*
D12*
X135612000Y-99822000D03*
D13*
X133072000Y-99822000D03*
D14*
X128016000Y-70612000D03*
D15*
X130556000Y-70612000D03*
D16*
X144526000Y-63352000D03*
D17*
X145796000Y-63352000D03*
X147066000Y-63352000D03*
D14*
X146812000Y-70612000D03*
D15*
X136652000Y-70612000D03*
D14*
X142748000Y-92202000D03*
D15*
X142748000Y-102362000D03*
D14*
X149860000Y-69371000D03*
D15*
X149860000Y-66831000D03*
D16*
X138938000Y-63352000D03*
D17*
X140208000Y-63352000D03*
X141478000Y-63352000D03*
D14*
X130048000Y-67310000D03*
D15*
X127508000Y-67310000D03*
D14*
X122760000Y-67310000D03*
D15*
X125300000Y-67310000D03*
D18*
X133614000Y-80782000D03*
D15*
X133614000Y-83322000D03*
X133614000Y-85862000D03*
X133614000Y-88402000D03*
X141234000Y-88402000D03*
X141234000Y-85862000D03*
X141234000Y-83322000D03*
X141234000Y-80782000D03*
D16*
X153162000Y-71988000D03*
D17*
X154432000Y-71988000D03*
X155702000Y-71988000D03*
D19*
X158199000Y-80010000D03*
D20*
X153879000Y-78510000D03*
D21*
X153879000Y-81510000D03*
X150879000Y-78510000D03*
X150879000Y-81510000D03*
D16*
X159004000Y-71988000D03*
D17*
X160274000Y-71988000D03*
X161544000Y-71988000D03*
D16*
X124714000Y-62124000D03*
D17*
X123444000Y-62124000D03*
X122174000Y-62124000D03*
D14*
X146812000Y-77216000D03*
D15*
X136652000Y-77216000D03*
D22*
X121676000Y-76210000D03*
D23*
X121676000Y-78750000D03*
X121676000Y-81290000D03*
X121676000Y-83830000D03*
X129296000Y-83830000D03*
X129296000Y-81290000D03*
X129296000Y-78750000D03*
X129296000Y-76210000D03*
D14*
X157012000Y-100330000D03*
X162012000Y-100330000D03*
X149860000Y-74930000D03*
D15*
X149860000Y-72390000D03*
D14*
X122760000Y-70612000D03*
D15*
X125300000Y-70612000D03*
D14*
X129794000Y-99256000D03*
D15*
X129794000Y-101796000D03*
D24*
X122534000Y-90678000D03*
D25*
X122534000Y-89408000D03*
X122534000Y-88138000D03*
D19*
X158199000Y-91440000D03*
D20*
X153879000Y-89940000D03*
D21*
X153879000Y-92940000D03*
X150879000Y-89940000D03*
X150879000Y-92940000D03*
D12*
X133345000Y-62992000D03*
D13*
X135885000Y-62992000D03*
D14*
X136652000Y-67310000D03*
D15*
X146812000Y-67310000D03*
D26*
X149606000Y-97536000D03*
D27*
X149606000Y-99822000D03*
X149606000Y-102108000D03*
D10*
X146558000Y-102108000D03*
D11*
X146558000Y-91948000D03*
D12*
X150617000Y-62992000D03*
D13*
X153157000Y-62992000D03*
D14*
X128464000Y-93980000D03*
D15*
X120964000Y-93980000D03*
D14*
X136652000Y-73914000D03*
D15*
X146812000Y-73914000D03*
D28*
X144780000Y-81646000D03*
D29*
X144780000Y-82946000D03*
D28*
X145034000Y-86472000D03*
D29*
X145034000Y-87772000D03*
M02*
